<svg width="163" height="26" viewBox="0 0 163 26" fill="none" xmlns="http://www.w3.org/2000/svg">
<path d="M21 6.5C21 6.79667 20.912 7.08668 20.7472 7.33336C20.5824 7.58003 20.3481 7.77229 20.074 7.88582C19.7999 7.99935 19.4983 8.02906 19.2074 7.97118C18.9164 7.9133 18.6491 7.77044 18.4393 7.56066C18.2296 7.35088 18.0867 7.08361 18.0288 6.79264C17.9709 6.50166 18.0007 6.20006 18.1142 5.92598C18.2277 5.65189 18.42 5.41762 18.6666 5.2528C18.9133 5.08797 19.2033 5 19.5 5C19.8978 5 20.2794 5.15804 20.5607 5.43934C20.842 5.72064 21 6.10218 21 6.5ZM29 8C29.0001 8.16468 28.9595 8.32683 28.8819 8.47206C28.8043 8.61729 28.692 8.7411 28.555 8.8325L26 10.535V13C25.9964 16.4467 24.6256 19.7512 22.1884 22.1884C19.7512 24.6256 16.4467 25.9964 13 26H2C1.6232 26 1.25407 25.8936 0.935119 25.6929C0.616171 25.4923 0.360385 25.2057 0.197226 24.866C0.0340667 24.5264 -0.0298275 24.1476 0.0129034 23.7732C0.0556344 23.3988 0.203252 23.0441 0.438752 22.75L11 10.0787V7.61125C11 3.43375 14.3488 0.0200003 18.4638 3.32598e-07H18.5C20.0932 -0.000474005 21.6452 0.506424 22.931 1.44722C24.2168 2.38802 25.1696 3.71384 25.6513 5.2325L28.555 7.1675C28.692 7.2589 28.8043 7.38271 28.8819 7.52794C28.9595 7.67317 29.0001 7.83532 29 8ZM26.1975 8L24.2375 6.6925C24.0331 6.55652 23.8858 6.35007 23.8238 6.1125C23.5166 4.93448 22.8274 3.89164 21.8639 3.14742C20.9005 2.40319 19.7174 1.99964 18.5 2H18.4725C15.455 2.015 13 4.53125 13 7.61125V10.44C13.0004 10.6742 12.9186 10.9012 12.7688 11.0813L2 24H5.3625L14.23 13.36C14.3131 13.2562 14.4161 13.17 14.5329 13.1065C14.6497 13.0429 14.778 13.0033 14.9103 12.99C15.0426 12.9766 15.1762 12.9898 15.3034 13.0287C15.4305 13.0677 15.5486 13.1316 15.6508 13.2167C15.753 13.3018 15.8371 13.4064 15.8983 13.5245C15.9596 13.6425 15.9966 13.7716 16.0074 13.9041C16.0181 14.0366 16.0024 14.17 15.961 14.2963C15.9195 14.4227 15.8534 14.5395 15.7663 14.64L7.96875 24H13C15.9164 23.9967 18.7123 22.8367 20.7745 20.7745C22.8367 18.7123 23.9967 15.9164 24 13V10C23.9999 9.83532 24.0405 9.67317 24.1181 9.52794C24.1957 9.38271 24.308 9.2589 24.445 9.1675L26.1975 8Z" fill="white"/>
<path d="M43.8461 24.6806H37L44.7133 1.31939H53.385L61.0983 24.6806H54.2522L49.1404 7.75285H48.9579L43.8461 24.6806ZM42.5682 15.4639H55.4389V20.2091H42.5682V15.4639Z" fill="white"/>
<path d="M57.2441 24.6806V1.31939H63.5881V10.7643H63.9076L70.9363 1.31939H78.3301L70.4342 11.7224L78.5127 24.6806H70.9363L65.6876 15.9202L63.5881 18.6578V24.6806H57.2441Z" fill="white"/>
<path d="M85.7006 10.6274V15.3726H74.7468V10.6274H85.7006Z" fill="white"/>
<path d="M83.2527 24.6806V1.31939H93.3393C95.0736 1.31939 96.5912 1.63498 97.892 2.26616C99.1927 2.89734 100.204 3.80608 100.927 4.9924C101.65 6.17871 102.011 7.60076 102.011 9.25855C102.011 10.9316 101.638 12.3422 100.893 13.4905C100.155 14.6388 99.1167 15.5057 97.7779 16.0913C96.4467 16.6768 94.8911 16.9696 93.1111 16.9696H87.0865V12.0418H91.8332C92.5786 12.0418 93.2138 11.9506 93.7387 11.7681C94.2711 11.5779 94.6781 11.2776 94.9595 10.8669C95.2486 10.4563 95.3931 9.92015 95.3931 9.25855C95.3931 8.58935 95.2486 8.04563 94.9595 7.62738C94.6781 7.20152 94.2711 6.88973 93.7387 6.69201C93.2138 6.48669 92.5786 6.38403 91.8332 6.38403H89.5968V24.6806H83.2527ZM96.9449 13.9582L102.787 24.6806H95.8952L90.1901 13.9582H96.9449Z" fill="white"/>
<path d="M121.248 13C121.248 15.6008 120.742 17.7947 119.731 19.5817C118.719 21.3612 117.353 22.711 115.634 23.6312C113.915 24.5437 111.998 25 109.884 25C107.754 25 105.829 24.5399 104.11 23.6198C102.399 22.692 101.037 21.3384 100.025 19.5589C99.0211 17.7719 98.5191 15.5856 98.5191 13C98.5191 10.3992 99.0211 8.20913 100.025 6.42966C101.037 4.64259 102.399 3.29278 104.11 2.38023C105.829 1.46008 107.754 1 109.884 1C111.998 1 113.915 1.46008 115.634 2.38023C117.353 3.29278 118.719 4.64259 119.731 6.42966C120.742 8.20913 121.248 10.3992 121.248 13ZM114.722 13C114.722 11.6008 114.535 10.4221 114.162 9.46388C113.797 8.4981 113.253 7.76806 112.531 7.27376C111.816 6.77186 110.933 6.52091 109.884 6.52091C108.834 6.52091 107.948 6.77186 107.225 7.27376C106.51 7.76806 105.966 8.4981 105.593 9.46388C105.228 10.4221 105.046 11.6008 105.046 13C105.046 14.3992 105.228 15.5817 105.593 16.5475C105.966 17.5057 106.51 18.2357 107.225 18.7376C107.948 19.2319 108.834 19.4791 109.884 19.4791C110.933 19.4791 111.816 19.2319 112.531 18.7376C113.253 18.2357 113.797 17.5057 114.162 16.5475C114.535 15.5817 114.722 14.3992 114.722 13Z" fill="white"/>
<path d="M122.674 24.6806H115.828L123.541 1.31939H132.213L139.926 24.6806H133.08L127.968 7.75285H127.786L122.674 24.6806ZM121.396 15.4639H134.267V20.2091H121.396V15.4639Z" fill="white"/>
<path d="M136.072 1.31939H143.968L149.399 14.5513H149.673L155.104 1.31939H163V24.6806H156.793V11.1749H156.61L151.407 24.4981H147.665L142.462 11.0836H142.279V24.6806H136.072V1.31939Z" fill="white"/>
</svg>
