<svg width="126" height="13" viewBox="0 0 126 13" fill="none" xmlns="http://www.w3.org/2000/svg">
<g clip-path="url(#clip0_502_236)">
<path d="M0.24231 11.9733L22.9496 1.97656L23.1919 11.9976L0.24231 11.9733Z" fill="white"/>
<path d="M22.9496 0.178615L0.242327 10.1753L0 0.154297L22.9496 0.178615Z" fill="white"/>
<path d="M43.439 4.82H40.2536C40.2765 4.55458 40.2612 4.31532 40.2077 4.10224C40.1543 3.88916 40.0626 3.70598 39.9327 3.55271C39.8029 3.3957 39.6329 3.27607 39.4228 3.19383C39.2128 3.11159 38.9626 3.07046 38.6723 3.07046C38.1147 3.07046 37.6162 3.20691 37.177 3.47981C36.7377 3.74897 36.373 4.13589 36.0827 4.64056C35.7924 5.14149 35.5862 5.73962 35.4639 6.43495C35.357 7.10785 35.3532 7.66673 35.4525 8.11159C35.5556 8.55645 35.7561 8.88916 36.0541 9.10972C36.3558 9.33028 36.7473 9.44056 37.2285 9.44056C37.5494 9.44056 37.8435 9.40317 38.1108 9.32841C38.382 9.25364 38.6227 9.1471 38.8327 9.00878C39.0466 8.86673 39.228 8.6985 39.377 8.50411C39.5298 8.30598 39.6463 8.08729 39.7265 7.84803H42.9349C42.8126 8.33402 42.5949 8.83121 42.2817 9.33962C41.9685 9.8443 41.5637 10.3097 41.0671 10.7359C40.5706 11.1583 39.9862 11.5004 39.314 11.7621C38.6418 12.0238 37.8855 12.1546 37.0452 12.1546C35.9452 12.1546 34.9961 11.9191 34.1978 11.4481C33.4033 10.977 32.8266 10.2892 32.4676 9.38448C32.1123 8.47981 32.0417 7.37701 32.2556 6.07607C32.4695 4.82 32.8915 3.76766 33.5217 2.91906C34.1519 2.07046 34.9178 1.43121 35.8192 1.00131C36.7206 0.571398 37.6792 0.356445 38.6952 0.356445C39.4629 0.356445 40.1505 0.45551 40.7577 0.653641C41.3689 0.851772 41.8826 1.14149 42.2989 1.5228C42.7191 1.90037 43.0284 2.36579 43.2271 2.91906C43.4257 3.47233 43.4963 4.10598 43.439 4.82Z" fill="white"/>
<path d="M46.1718 11.9968H42.7343L46.6072 0.512695H50.9614L54.8344 11.9968H51.3969L48.8302 3.67531H48.7385L46.1718 11.9968ZM45.5301 7.46597H51.9927V9.79868H45.5301V7.46597Z" fill="white"/>
<path d="M54.6737 11.9968V0.512695H59.7383C60.6092 0.512695 61.3712 0.667835 62.0243 0.978116C62.6775 1.2884 63.1854 1.73513 63.5483 2.3183C63.9111 2.90148 64.0926 3.60055 64.0926 4.4155C64.0926 5.23793 63.9054 5.93139 63.5311 6.49587C63.1606 7.06036 62.6392 7.48653 61.967 7.77438C61.2986 8.06223 60.5175 8.20615 59.6238 8.20615H56.5987V5.78372H58.9821C59.3564 5.78372 59.6753 5.73886 59.9389 5.64914C60.2062 5.55569 60.4106 5.40802 60.5519 5.20615C60.697 5.00428 60.7696 4.74073 60.7696 4.4155C60.7696 4.08653 60.697 3.81924 60.5519 3.61363C60.4106 3.40428 60.2062 3.25101 59.9389 3.15382C59.6753 3.05288 59.3564 3.00241 58.9821 3.00241H57.8592V11.9968H54.6737ZM61.5488 6.72578L64.4822 11.9968H61.0217L58.1571 6.72578H61.5488Z" fill="white"/>
<path d="M66.5415 3.02485L66.9769 0.512695H77.1749L76.7395 3.02485H73.2103L71.6978 11.9968H68.5582L70.0707 3.02485H66.5415Z" fill="white"/>
<path d="M75.8685 11.9968V0.512695H80.9331C81.804 0.512695 82.566 0.667835 83.2191 0.978116C83.8722 1.2884 84.3802 1.73513 84.7431 2.3183C85.1059 2.90148 85.2873 3.60055 85.2873 4.4155C85.2873 5.23793 85.1002 5.93139 84.7259 6.49587C84.3554 7.06036 83.834 7.48653 83.1618 7.77438C82.4934 8.06223 81.7123 8.20615 80.8185 8.20615H77.7935V5.78372H80.1769C80.5512 5.78372 80.8701 5.73886 81.1336 5.64914C81.401 5.55569 81.6053 5.40802 81.7467 5.20615C81.8918 5.00428 81.9644 4.74073 81.9644 4.4155C81.9644 4.08653 81.8918 3.81924 81.7467 3.61363C81.6053 3.40428 81.401 3.25101 81.1336 3.15382C80.8701 3.05288 80.5512 3.00241 80.1769 3.00241H79.0539V11.9968H75.8685ZM82.7436 6.72578L85.6769 11.9968H82.2165L79.3519 6.72578H82.7436Z" fill="white"/>
<path d="M88.4023 11.9968H84.9648L88.8378 0.512695H93.192L97.0649 11.9968H93.6274L91.0607 3.67531H90.969L88.4023 11.9968ZM87.7607 7.46597H94.2232V9.79868H87.7607V7.46597Z" fill="white"/>
<path d="M101.419 11.9968H96.9044V0.512695H101.373C102.58 0.512695 103.623 0.742602 104.501 1.20241C105.384 1.65849 106.064 2.31643 106.541 3.17625C107.022 4.03232 107.263 5.05849 107.263 6.25475C107.263 7.45101 107.024 8.47905 106.547 9.33886C106.069 10.1949 105.393 10.8529 104.519 11.3127C103.644 11.7688 102.611 11.9968 101.419 11.9968ZM100.09 9.35008H101.304C101.885 9.35008 102.38 9.25849 102.788 9.07531C103.201 8.89213 103.514 8.57625 103.728 8.12765C103.946 7.67905 104.055 7.05475 104.055 6.25475C104.055 5.45475 103.944 4.83045 103.722 4.38185C103.505 3.93326 103.184 3.61737 102.76 3.43419C102.34 3.25101 101.824 3.15942 101.213 3.15942H100.09V9.35008Z" fill="white"/>
<path d="M107.446 11.9968V0.512695H115.902V3.02485H110.632V4.99868H115.467V7.51083H110.632V9.48466H115.879V11.9968H107.446Z" fill="white"/>
<path d="M116.192 11.9968V0.512695H121.256C122.127 0.512695 122.889 0.667835 123.542 0.978116C124.195 1.2884 124.703 1.73513 125.066 2.3183C125.429 2.90148 125.61 3.60055 125.61 4.4155C125.61 5.23793 125.423 5.93139 125.049 6.49587C124.678 7.06036 124.157 7.48653 123.485 7.77438C122.816 8.06223 122.035 8.20615 121.142 8.20615H118.117V5.78372H120.5C120.874 5.78372 121.193 5.73886 121.457 5.64914C121.724 5.55569 121.928 5.40802 122.07 5.20615C122.215 5.00428 122.287 4.74073 122.287 4.4155C122.287 4.08653 122.215 3.81924 122.07 3.61363C121.928 3.40428 121.724 3.25101 121.457 3.15382C121.193 3.05288 120.874 3.00241 120.5 3.00241H119.377V11.9968H116.192ZM123.067 6.72578L126 11.9968H122.54L119.675 6.72578H123.067Z" fill="white"/>
</g>
<defs>
<clipPath id="clip0_502_236">
<rect width="126" height="13" fill="white"/>
</clipPath>
</defs>
</svg>
