<svg width="125" height="36" viewBox="0 0 125 36" fill="none" xmlns="http://www.w3.org/2000/svg">
<rect x="0.5" y="0.5" width="124" height="35" rx="7.5" stroke="black"/>
<mask id="path-2-inside-1_471_299" fill="white">
<path fill-rule="evenodd" clip-rule="evenodd" d="M8.71088 18.1666C8.73474 19.4572 8.88264 20.6553 9.15518 21.7603C9.42713 22.8646 9.84698 23.8271 10.4165 24.6464C10.9849 25.4652 11.7196 26.1108 12.6195 26.5826C13.5201 27.0545 14.6216 27.2901 15.9235 27.2901C17.8438 27.2901 19.4361 26.7626 20.704 25.7076C21.9714 24.6514 22.7592 23.0702 23.0669 20.9596H23.7778C23.5172 23.194 22.6763 24.9252 21.2551 26.1545C19.8333 27.3832 18.08 27.9982 15.995 27.9982C14.5739 28.0232 13.3591 27.787 12.353 27.2901C11.3451 26.7939 10.5221 26.092 9.88277 25.1858C9.24285 24.2796 8.76933 23.2121 8.4616 21.9834C8.15387 20.7547 8 19.4334 8 18.0172C8 16.4285 8.22483 15.0136 8.6751 13.7723C9.12537 12.5311 9.71757 11.4812 10.4523 10.6249C11.1847 9.7687 12.0375 9.11872 13.0096 8.67123C13.9817 8.22374 14.9764 8 15.995 8C17.4162 8 18.643 8.28562 19.6729 8.85623C20.7035 9.42746 21.5443 10.1849 22.1956 11.128C22.8474 12.0718 23.321 13.1517 23.6174 14.368C23.9132 15.5835 24.0378 16.8491 23.9901 18.166L8.71088 18.1666ZM23.2804 17.4216C23.2804 16.2548 23.1253 15.1436 22.8182 14.0886C22.5105 13.0336 22.0548 12.1086 21.4501 11.3137C20.846 10.5199 20.094 9.89307 19.1934 9.43371C18.2929 8.97435 17.2504 8.74498 16.066 8.74498C15.0701 8.74498 14.1409 8.9431 13.2762 9.34059C12.4114 9.73808 11.654 10.3156 11.0022 11.0718C10.3509 11.8293 9.82372 12.7417 9.42057 13.8092C9.01802 14.8767 8.78126 16.081 8.71088 17.4216H23.2804Z"/>
</mask>
<path d="M8.71088 18.1666L8.71084 17.1666L7.69223 17.1666L7.71105 18.1851L8.71088 18.1666ZM9.15518 21.7603L10.1262 21.5211L10.1261 21.5208L9.15518 21.7603ZM10.4165 24.6464L11.238 24.0762L11.2376 24.0757L10.4165 24.6464ZM12.6195 26.5826L12.1552 27.4683L12.1554 27.4684L12.6195 26.5826ZM20.704 25.7076L21.3437 26.4763L21.3443 26.4758L20.704 25.7076ZM23.0669 20.9597V19.9597H22.2021L22.0774 20.8154L23.0669 20.9597ZM23.7778 20.9597L24.771 21.0755L24.9012 19.9597H23.7778V20.9597ZM21.2551 26.1545L21.909 26.9111L21.9093 26.9108L21.2551 26.1545ZM15.995 27.9982V26.9982H15.9863L15.9775 26.9984L15.995 27.9982ZM12.353 27.2901L12.7958 26.3935L12.7947 26.3929L12.353 27.2901ZM9.88277 25.1858L10.6999 24.6093L10.6996 24.609L9.88277 25.1858ZM10.4523 10.6249L11.2112 11.2761L11.2122 11.2749L10.4523 10.6249ZM19.6729 8.85623L20.1577 7.98161L20.1575 7.9815L19.6729 8.85623ZM22.1956 11.128L21.3727 11.6963L21.3728 11.6964L22.1956 11.128ZM23.6174 14.368L24.589 14.1315L24.5889 14.1312L23.6174 14.368ZM23.9901 18.166L23.9901 19.166L24.9545 19.1659L24.9894 18.2022L23.9901 18.166ZM23.2804 17.4216V18.4216H24.2804V17.4216H23.2804ZM22.8182 14.0886L23.7783 13.8091L23.7782 13.8086L22.8182 14.0886ZM21.4501 11.3137L22.246 10.7082L22.2458 10.708L21.4501 11.3137ZM11.0022 11.0718L10.2447 10.4189L10.2439 10.4199L11.0022 11.0718ZM9.42057 13.8092L8.48507 13.4559L8.48489 13.4564L9.42057 13.8092ZM8.71088 17.4216L7.71226 17.3692L7.65701 18.4216H8.71088V17.4216ZM8.71088 18.1666L7.71105 18.1851C7.7361 19.5402 7.89165 20.8133 8.18428 21.9997L9.15518 21.7603L10.1261 21.5208C9.87363 20.4972 9.73337 19.3741 9.71071 18.1481L8.71088 18.1666ZM9.15518 21.7603L8.18419 21.9994C8.48117 23.2053 8.94663 24.2838 9.59541 25.2172L10.4165 24.6464L11.2376 24.0757C10.7473 23.3703 10.3731 22.5238 10.1262 21.5211L9.15518 21.7603ZM10.4165 24.6464L9.59505 25.2167C10.2572 26.1705 11.1155 26.9231 12.1552 27.4683L12.6195 26.5826L13.0839 25.697C12.3237 25.2984 11.7125 24.7598 11.238 24.0762L10.4165 24.6464ZM12.6195 26.5826L12.1554 27.4684C13.2339 28.0335 14.5043 28.2901 15.9235 28.2901V27.2901V26.2901C14.7389 26.2901 13.8063 26.0755 13.0837 25.6969L12.6195 26.5826ZM15.9235 27.2901V28.2901C18.0374 28.2901 19.8675 27.7046 21.3437 26.4763L20.704 25.7076L20.0644 24.9389C19.0048 25.8207 17.6503 26.2901 15.9235 26.2901V27.2901ZM20.704 25.7076L21.3443 26.4758C22.8507 25.2203 23.7238 23.3856 24.0564 21.1039L23.0669 20.9597L22.0774 20.8154C21.7946 22.7549 21.092 24.0826 20.0638 24.9395L20.704 25.7076ZM23.0669 20.9597V21.9597H23.7778V20.9597V19.9597H23.0669V20.9597ZM23.7778 20.9597L22.7845 20.8438C22.5468 22.8814 21.797 24.3635 20.6009 25.3982L21.2551 26.1545L21.9093 26.9108C23.5556 25.4868 24.4875 23.5066 24.771 21.0755L23.7778 20.9597ZM21.2551 26.1545L20.6012 25.3979C19.3812 26.4522 17.8678 26.9982 15.995 26.9982V27.9982V28.9982C18.2921 28.9982 20.2854 28.3142 21.909 26.9111L21.2551 26.1545ZM15.995 27.9982L15.9775 26.9984C14.6744 27.0213 13.6258 26.8034 12.7958 26.3935L12.353 27.2901L11.9102 28.1867C13.0923 28.7705 14.4734 29.0251 16.0126 28.9981L15.995 27.9982ZM12.353 27.2901L12.7947 26.3929C11.9352 25.9698 11.2419 25.3776 10.6999 24.6093L9.88277 25.1858L9.06564 25.7622C9.8023 26.8065 10.7549 27.6179 11.9112 28.1873L12.353 27.2901ZM9.88277 25.1858L10.6996 24.609C10.1404 23.817 9.71362 22.8663 9.43164 21.7404L8.4616 21.9834L7.49156 22.2263C7.82504 23.5579 8.34531 24.7421 9.06589 25.7626L9.88277 25.1858ZM8.4616 21.9834L9.43164 21.7404C9.14597 20.5998 9 19.361 9 18.0172H8H7C7 19.5059 7.16176 20.9095 7.49156 22.2263L8.4616 21.9834ZM8 18.0172H9C9 16.5217 9.21173 15.2255 9.61516 14.1134L8.6751 13.7723L7.73504 13.4313C7.23794 14.8017 7 16.3353 7 18.0172H8ZM8.6751 13.7723L9.61516 14.1134C10.0313 12.9662 10.5675 12.0263 11.2112 11.2761L10.4523 10.6249L9.69341 9.97371C8.86762 10.9361 8.21942 12.0961 7.73504 13.4313L8.6751 13.7723ZM10.4523 10.6249L11.2122 11.2749C11.855 10.5235 12.5928 9.96397 13.4277 9.57961L13.0096 8.67123L12.5914 7.76286C11.4822 8.27347 10.5144 9.01391 9.69237 9.97493L10.4523 10.6249ZM13.0096 8.67123L13.4277 9.57961C14.2756 9.18933 15.1282 9 15.995 9V8V7C14.8247 7 13.6878 7.25816 12.5914 7.76286L13.0096 8.67123ZM15.995 8V9C17.2816 9 18.3345 9.25792 19.1883 9.73095L19.6729 8.85623L20.1575 7.9815C18.9515 7.31332 17.5508 7 15.995 7V8ZM19.6729 8.85623L19.1881 9.73085C20.0876 10.2295 20.8115 10.8835 21.3727 11.6963L22.1956 11.128L23.0185 10.5598C22.2772 9.48638 21.3193 8.62546 20.1577 7.98161L19.6729 8.85623ZM22.1956 11.128L21.3728 11.6964C21.9489 12.5305 22.3756 13.496 22.6458 14.6047L23.6174 14.368L24.5889 14.1312C24.2663 12.8075 23.7459 11.613 23.0184 10.5597L22.1956 11.128ZM23.6174 14.368L22.6457 14.6044C22.9188 15.7265 23.0353 16.9001 22.9907 18.1298L23.9901 18.166L24.9894 18.2022C25.0403 16.7982 24.9076 15.4406 24.589 14.1315L23.6174 14.368ZM23.9901 18.166L23.9901 17.166L8.71084 17.1666L8.71088 18.1666L8.71092 19.1666L23.9901 19.166L23.9901 18.166ZM23.2804 17.4216H24.2804C24.2804 16.1652 24.1133 14.9595 23.7783 13.8091L22.8182 14.0886L21.8581 14.3681C22.1374 15.3276 22.2804 16.3444 22.2804 17.4216H23.2804ZM22.8182 14.0886L23.7782 13.8086C23.4397 12.6481 22.9322 11.6103 22.246 10.7082L21.4501 11.3137L20.6542 11.9191C21.1775 12.607 21.5812 13.4191 21.8582 14.3686L22.8182 14.0886ZM21.4501 11.3137L22.2458 10.708C21.5497 9.7934 20.6805 9.06968 19.6478 8.54291L19.1934 9.43371L18.739 10.3245C19.5074 10.7165 20.1423 11.2465 20.6544 11.9193L21.4501 11.3137ZM19.1934 9.43371L19.6478 8.54291C18.5841 8.00032 17.3811 7.74498 16.066 7.74498V8.74498V9.74498C17.1197 9.74498 18.0016 9.94837 18.739 10.3245L19.1934 9.43371ZM16.066 8.74498V7.74498C14.933 7.74498 13.8606 7.97137 12.8585 8.43198L13.2762 9.34059L13.6938 10.2492C14.4212 9.91483 15.2071 9.74498 16.066 9.74498V8.74498ZM13.2762 9.34059L12.8585 8.43198C11.8564 8.89259 10.985 9.56008 10.2447 10.4189L11.0022 11.0718L11.7596 11.7247C12.323 11.071 12.9664 10.5836 13.6938 10.2492L13.2762 9.34059ZM11.0022 11.0718L10.2439 10.4199C9.50662 11.2774 8.92364 12.2946 8.48507 13.4559L9.42057 13.8092L10.3561 14.1625C10.7238 13.1889 11.1952 12.3811 11.7604 11.7237L11.0022 11.0718ZM9.42057 13.8092L8.48489 13.4564C8.0403 14.6353 7.78711 15.9434 7.71226 17.3692L8.71088 17.4216L9.70951 17.474C9.77541 16.2187 9.99573 15.1181 10.3563 14.1621L9.42057 13.8092ZM8.71088 17.4216V18.4216H23.2804V17.4216V16.4216H8.71088V17.4216Z" fill="black" mask="url(#path-2-inside-1_471_299)"/>
<path d="M33.3583 24V11.6364H41.1097V13.2422H35.2237V17.0092H40.7053V18.609H35.2237V22.3942H41.1822V24H33.3583ZM44.8813 14.7273L46.9278 18.3374L48.9925 14.7273H50.9665L48.0748 19.3636L50.9907 24H49.0166L46.9278 20.5348L44.8451 24H42.865L45.7506 19.3636L42.9012 14.7273H44.8813ZM52.8199 27.4773V14.7273H54.5827V16.2305H54.7336C54.8382 16.0373 54.9891 15.8139 55.1863 15.5604C55.3836 15.3068 55.6572 15.0855 56.0074 14.8963C56.3575 14.7031 56.8203 14.6065 57.3959 14.6065C58.1444 14.6065 58.8125 14.7957 59.4001 15.174C59.9877 15.5523 60.4485 16.0977 60.7826 16.81C61.1207 17.5224 61.2897 18.3796 61.2897 19.3817C61.2897 20.3839 61.1227 21.2431 60.7886 21.9595C60.4546 22.6719 59.9958 23.2212 59.4122 23.6076C58.8286 23.9899 58.1626 24.1811 57.414 24.1811C56.8505 24.1811 56.3897 24.0865 56.0315 23.8974C55.6773 23.7082 55.3997 23.4869 55.1984 23.2333C54.9972 22.9798 54.8422 22.7544 54.7336 22.5572H54.6249V27.4773H52.8199ZM54.5887 19.3636C54.5887 20.0156 54.6833 20.5871 54.8724 21.0781C55.0616 21.5691 55.3353 21.9535 55.6934 22.2312C56.0516 22.5049 56.4903 22.6417 57.0095 22.6417C57.5488 22.6417 57.9996 22.4988 58.3618 22.2131C58.724 21.9233 58.9977 21.5309 59.1828 21.0359C59.372 20.5408 59.4665 19.9834 59.4665 19.3636C59.4665 18.7519 59.374 18.2025 59.1888 17.7156C59.0077 17.2286 58.734 16.8442 58.3678 16.5625C58.0056 16.2808 57.5528 16.1399 57.0095 16.1399C56.4863 16.1399 56.0436 16.2747 55.6814 16.5444C55.3232 16.814 55.0515 17.1903 54.8664 17.6733C54.6813 18.1562 54.5887 18.7197 54.5887 19.3636ZM63.3121 24V14.7273H65.0567V16.2003H65.1533C65.3224 15.7012 65.6202 15.3088 66.0468 15.0231C66.4774 14.7333 66.9644 14.5884 67.5077 14.5884C67.6204 14.5884 67.7532 14.5924 67.9062 14.6005C68.0631 14.6085 68.1859 14.6186 68.2744 14.6307V16.3572C68.202 16.3371 68.0732 16.315 67.8881 16.2908C67.7029 16.2627 67.5178 16.2486 67.3327 16.2486C66.906 16.2486 66.5257 16.3391 66.1917 16.5202C65.8617 16.6973 65.6001 16.9448 65.4069 17.2628C65.2137 17.5767 65.1171 17.9349 65.1171 18.3374V24H63.3121ZM73.5009 24.1871C72.5873 24.1871 71.8005 23.992 71.1404 23.6016C70.4844 23.2071 69.9773 22.6538 69.6191 21.9414C69.265 21.225 69.0879 20.3859 69.0879 19.424C69.0879 18.4742 69.265 17.6371 69.6191 16.9126C69.9773 16.1882 70.4764 15.6228 71.1163 15.2163C71.7602 14.8098 72.5128 14.6065 73.3741 14.6065C73.8973 14.6065 74.4044 14.6931 74.8954 14.8661C75.3864 15.0392 75.8271 15.3108 76.2175 15.6811C76.6079 16.0514 76.9158 16.5323 77.1412 17.1239C77.3665 17.7115 77.4792 18.4259 77.4792 19.267V19.907H70.1081V18.5547H75.7104C75.7104 18.0798 75.6138 17.6592 75.4206 17.293C75.2275 16.9227 74.9558 16.6309 74.6056 16.4176C74.2595 16.2043 73.853 16.0977 73.3862 16.0977C72.8791 16.0977 72.4364 16.2224 72.0581 16.4719C71.6838 16.7174 71.394 17.0394 71.1887 17.4379C70.9875 17.8323 70.8869 18.2609 70.8869 18.7237V19.7802C70.8869 20.4 70.9956 20.9272 71.2129 21.3619C71.4342 21.7965 71.7421 22.1286 72.1365 22.358C72.531 22.5833 72.9918 22.696 73.519 22.696C73.8611 22.696 74.173 22.6477 74.4547 22.5511C74.7364 22.4505 74.9799 22.3016 75.1852 22.1044C75.3904 21.9072 75.5474 21.6637 75.6561 21.3739L77.3645 21.6818C77.2277 22.1849 76.9822 22.6256 76.628 23.0039C76.2779 23.3782 75.8372 23.67 75.3059 23.8793C74.7787 24.0845 74.177 24.1871 73.5009 24.1871ZM86.4305 16.9911L84.7945 17.2809C84.7261 17.0716 84.6174 16.8724 84.4685 16.6832C84.3236 16.4941 84.1264 16.3391 83.8769 16.2184C83.6273 16.0977 83.3154 16.0373 82.9411 16.0373C82.43 16.0373 82.0034 16.152 81.6613 16.3814C81.3192 16.6068 81.1482 16.8986 81.1482 17.2567C81.1482 17.5666 81.2629 17.8162 81.4923 18.0053C81.7217 18.1945 82.0919 18.3494 82.6031 18.4702L84.0761 18.8082C84.9293 19.0054 85.5652 19.3093 85.9838 19.7198C86.4023 20.1303 86.6116 20.6636 86.6116 21.3196C86.6116 21.875 86.4506 22.37 86.1286 22.8047C85.8107 23.2353 85.366 23.5734 84.7945 23.8189C84.227 24.0644 83.569 24.1871 82.8204 24.1871C81.782 24.1871 80.9349 23.9658 80.2789 23.5231C79.6228 23.0763 79.2204 22.4425 79.0715 21.6214L80.8161 21.3558C80.9248 21.8106 81.1482 22.1547 81.4862 22.3881C81.8243 22.6175 82.265 22.7322 82.8083 22.7322C83.3999 22.7322 83.8728 22.6095 84.227 22.364C84.5812 22.1145 84.7583 21.8106 84.7583 21.4524C84.7583 21.1626 84.6496 20.9192 84.4323 20.7219C84.219 20.5247 83.891 20.3758 83.4482 20.2752L81.8786 19.9311C81.0133 19.7339 80.3734 19.42 79.9589 18.9893C79.5484 18.5587 79.3431 18.0134 79.3431 17.3533C79.3431 16.806 79.4961 16.3271 79.8019 15.9165C80.1078 15.506 80.5304 15.1861 81.0697 14.9567C81.609 14.7232 82.2268 14.6065 82.923 14.6065C83.9252 14.6065 84.714 14.8239 85.2895 15.2585C85.865 15.6892 86.2454 16.2667 86.4305 16.9911ZM95.5447 16.9911L93.9087 17.2809C93.8403 17.0716 93.7317 16.8724 93.5827 16.6832C93.4379 16.4941 93.2406 16.3391 92.9911 16.2184C92.7416 16.0977 92.4297 16.0373 92.0554 16.0373C91.5443 16.0373 91.1177 16.152 90.7756 16.3814C90.4335 16.6068 90.2624 16.8986 90.2624 17.2567C90.2624 17.5666 90.3771 17.8162 90.6065 18.0053C90.8359 18.1945 91.2062 18.3494 91.7173 18.4702L93.1903 18.8082C94.0436 19.0054 94.6795 19.3093 95.098 19.7198C95.5166 20.1303 95.7259 20.6636 95.7259 21.3196C95.7259 21.875 95.5649 22.37 95.2429 22.8047C94.925 23.2353 94.4802 23.5734 93.9087 23.8189C93.3413 24.0644 92.6832 24.1871 91.9347 24.1871C90.8963 24.1871 90.0491 23.9658 89.3931 23.5231C88.7371 23.0763 88.3346 22.4425 88.1857 21.6214L89.9304 21.3558C90.0391 21.8106 90.2624 22.1547 90.6005 22.3881C90.9386 22.6175 91.3793 22.7322 91.9226 22.7322C92.5142 22.7322 92.9871 22.6095 93.3413 22.364C93.6954 22.1145 93.8725 21.8106 93.8725 21.4524C93.8725 21.1626 93.7638 20.9192 93.5465 20.7219C93.3332 20.5247 93.0052 20.3758 92.5625 20.2752L90.9929 19.9311C90.1276 19.7339 89.4877 19.42 89.0732 18.9893C88.6626 18.5587 88.4574 18.0134 88.4574 17.3533C88.4574 16.806 88.6103 16.3271 88.9162 15.9165C89.2221 15.506 89.6446 15.1861 90.1839 14.9567C90.7232 14.7232 91.341 14.6065 92.0373 14.6065C93.0394 14.6065 93.8282 14.8239 94.4038 15.2585C94.9793 15.6892 95.3596 16.2667 95.5447 16.9911ZM102.661 11.6364H104.52V20.402C104.52 21.1948 104.363 21.873 104.049 22.4364C103.739 22.9999 103.303 23.4305 102.739 23.7283C102.176 24.0221 101.516 24.169 100.759 24.169C100.063 24.169 99.4371 24.0423 98.8817 23.7887C98.3303 23.5352 97.8936 23.1669 97.5716 22.6839C97.2537 22.197 97.0947 21.6054 97.0947 20.9091H98.9481C98.9481 21.2512 99.0265 21.547 99.1835 21.7965C99.3445 22.046 99.5638 22.2412 99.8415 22.3821C100.123 22.5189 100.445 22.5874 100.807 22.5874C101.202 22.5874 101.536 22.5049 101.81 22.3398C102.087 22.1708 102.299 21.9233 102.443 21.5973C102.588 21.2713 102.661 20.8729 102.661 20.402V11.6364ZM113.979 14.8842C113.914 14.3127 113.648 13.87 113.182 13.5561C112.715 13.2382 112.127 13.0792 111.419 13.0792C110.912 13.0792 110.473 13.1597 110.103 13.3207C109.733 13.4776 109.445 13.695 109.24 13.9727C109.038 14.2463 108.938 14.5582 108.938 14.9084C108.938 15.2022 109.006 15.4557 109.143 15.669C109.284 15.8823 109.467 16.0614 109.692 16.2063C109.922 16.3472 110.167 16.4659 110.429 16.5625C110.69 16.6551 110.942 16.7315 111.183 16.7919L112.391 17.1058C112.785 17.2024 113.19 17.3332 113.604 17.4982C114.019 17.6632 114.403 17.8806 114.757 18.1502C115.111 18.4199 115.397 18.7539 115.615 19.1523C115.836 19.5508 115.947 20.0277 115.947 20.5831C115.947 21.2834 115.765 21.9052 115.403 22.4485C115.045 22.9918 114.524 23.4205 113.84 23.7344C113.16 24.0483 112.336 24.2053 111.371 24.2053C110.445 24.2053 109.644 24.0584 108.968 23.7646C108.292 23.4708 107.762 23.0542 107.38 22.5149C106.998 21.9716 106.787 21.3277 106.746 20.5831H108.618C108.654 21.0298 108.799 21.4021 109.052 21.6999C109.31 21.9937 109.638 22.2131 110.036 22.358C110.439 22.4988 110.88 22.5692 111.358 22.5692C111.886 22.5692 112.355 22.4867 112.765 22.3217C113.18 22.1527 113.506 21.9193 113.743 21.6214C113.981 21.3196 114.099 20.9674 114.099 20.565C114.099 20.1987 113.995 19.8989 113.785 19.6655C113.58 19.4321 113.3 19.2389 112.946 19.0859C112.596 18.933 112.2 18.7982 111.757 18.6815L110.296 18.283C109.306 18.0134 108.521 17.617 107.942 17.0938C107.366 16.5705 107.078 15.8783 107.078 15.017C107.078 14.3047 107.271 13.6829 107.658 13.1516C108.044 12.6204 108.567 12.2079 109.227 11.9141C109.887 11.6162 110.632 11.4673 111.461 11.4673C112.298 11.4673 113.037 11.6142 113.677 11.908C114.321 12.2018 114.828 12.6063 115.198 13.1214C115.568 13.6326 115.761 14.2202 115.778 14.8842H113.979Z" fill="black"/>
</svg>
