<svg width="110" height="42" viewBox="0 0 110 42" fill="none" xmlns="http://www.w3.org/2000/svg">
<rect x="0.5" y="0.5" width="109" height="41" rx="7.5" stroke="black"/>
<path d="M19.5388 33.913C19.1523 33.867 18.747 33.8075 18.6383 33.7807C18.4784 33.7429 18.3175 33.709 18.1559 33.6793C17.9713 33.6435 17.7882 33.6007 17.6069 33.5509C16.7651 33.3098 16.7048 33.2901 16.0701 33.0308C15.4861 32.7931 14.4103 32.2375 14.0423 31.9847C13.9416 31.9149 13.8473 31.8587 13.8329 31.8587C13.8187 31.8587 13.5831 31.6932 13.3093 31.4909C11.5687 30.2039 10.2619 28.6417 9.31773 26.7174C9.15525 26.3869 9.02262 26.0937 9.02262 26.0661C9.02262 26.0389 8.99337 25.9637 8.95763 25.9004C8.8839 25.7687 8.7789 25.485 8.6942 25.1919C8.65779 25.0673 8.61543 24.9445 8.56726 24.824C8.52766 24.7307 8.49577 24.6171 8.49577 24.5712C8.49577 24.5252 8.45617 24.3754 8.40783 24.2375C8.35949 24.1005 8.3205 23.9388 8.3205 23.8783C8.3205 23.8183 8.28252 23.6105 8.2356 23.4165C8.12146 22.9377 8 21.6974 8 21.0023C8 20.308 8.12146 19.0677 8.2356 18.5891C8.28231 18.3949 8.3205 18.1833 8.3205 18.1184C8.3205 18.0533 8.34995 17.9256 8.38549 17.8343C8.42205 17.7434 8.46876 17.5801 8.49029 17.4716C8.51263 17.363 8.56341 17.176 8.60464 17.0546L8.72447 16.7044C8.81241 16.4421 8.89406 16.2201 8.93305 16.1337C8.95539 16.0854 9.04252 15.8882 9.12742 15.6954C9.26472 15.384 9.55901 14.7966 9.73104 14.4892C9.7938 14.3766 9.81756 14.3393 10.1571 13.8091C10.6952 12.9675 11.6146 11.9204 12.4705 11.174C12.7721 10.9108 13.7797 10.1467 13.825 10.1467C13.8376 10.1467 13.9326 10.0897 14.0368 10.0199C14.3104 9.83689 14.5787 9.68148 14.9284 9.50638C15.054 9.44436 15.1783 9.37989 15.3013 9.31302C15.3592 9.27975 15.4679 9.22984 16.0258 8.98028C16.1487 8.9255 16.2811 8.87559 16.6627 8.74229C16.7468 8.71307 16.9158 8.65119 17.0364 8.60594C17.1579 8.5609 17.3007 8.52357 17.3539 8.52357C17.4063 8.52357 17.5442 8.48705 17.6602 8.442C17.7759 8.39676 17.9861 8.34522 18.1281 8.32777C18.2695 8.31114 18.4573 8.27157 18.5455 8.24053C18.6328 8.2105 18.8725 8.17155 19.0778 8.1543C19.3454 8.13015 19.6123 8.09869 19.8782 8.05995C20.4242 7.98002 21.6111 7.98002 22.1514 8.05995C22.4065 8.09654 22.6626 8.12664 22.9193 8.15024C23.1128 8.16627 23.3596 8.20665 23.4683 8.23992C23.5769 8.27238 23.765 8.31296 23.8856 8.32777C24.0063 8.3438 24.2094 8.39371 24.3369 8.43957C24.4649 8.48623 24.6099 8.52357 24.6599 8.52357C24.7098 8.52357 24.813 8.55136 24.8884 8.58626C24.9645 8.62035 25.1256 8.67736 25.247 8.71307C25.3677 8.74959 25.5746 8.82162 25.7081 8.87477C25.8405 8.92773 26.0182 8.99752 26.1031 9.02918C26.2595 9.08802 27.4152 9.66565 27.5724 9.76406C28.848 10.5588 29.5043 11.078 30.3865 11.9886C31.4504 13.087 32.1566 14.1332 32.8754 15.6731C32.9261 15.7819 33.0037 15.9428 33.0482 16.0298C33.0919 16.1179 33.1284 16.2209 33.1284 16.2591C33.1284 16.2976 33.165 16.4133 33.2101 16.5165C33.3323 16.7972 33.4369 17.1165 33.4863 17.3606C33.5107 17.4803 33.556 17.6284 33.5868 17.6895C33.6179 17.7503 33.6543 17.9052 33.6687 18.032C33.6829 18.1586 33.7249 18.3663 33.7607 18.4923C33.9678 19.2087 34.0708 21.3194 33.9455 22.253C33.9083 22.5303 33.8663 22.8657 33.8521 22.998C33.8281 23.2246 33.7083 23.8104 33.6059 24.2042L33.5003 24.6211C33.3013 25.424 32.8093 26.5677 32.2088 27.6258C31.9707 28.0458 31.1727 29.1816 31.022 29.3147C31.0084 29.3264 30.941 29.406 30.8728 29.4898C30.8045 29.5746 30.5856 29.8115 30.3874 30.0161C29.5138 30.9171 28.8092 31.4742 27.5724 32.2416C27.4257 32.3327 26.1817 32.9397 25.9492 33.0341C25.8285 33.0824 25.627 33.1639 25.5017 33.2147C25.3772 33.2648 25.2383 33.3068 25.1946 33.3076C25.151 33.3082 25.036 33.3472 24.9391 33.3938C24.8425 33.4405 24.7194 33.4794 24.6647 33.4803C24.6107 33.4811 24.4529 33.5192 24.314 33.5651C24.1753 33.6117 23.9823 33.6618 23.8854 33.6767C23.7888 33.6919 23.5818 33.7331 23.4246 33.768C23.2676 33.8029 22.793 33.871 22.3711 33.9193C21.4301 34.029 20.4794 34.0268 19.5388 33.913ZM20.494 31.3769C20.555 31.3294 20.6177 31.2348 20.6344 31.1685C20.6709 31.0218 26.5719 19.2039 26.683 19.0558C26.7766 18.9306 26.7853 18.7301 26.6996 18.6595C26.6545 18.6216 26.0895 18.6096 24.5813 18.612C23.45 18.6145 22.4989 18.6153 22.4678 18.6145C22.4219 18.6128 22.4123 17.8577 22.417 14.6231C22.4203 12.4285 22.4099 10.6128 22.3941 10.5876C22.3782 10.562 22.3163 10.5415 22.256 10.5415C22.1711 10.5415 22.1314 10.5781 22.0793 10.7055C21.9807 10.9425 21.7086 11.4805 20.3838 14.0502C20.1086 14.5834 19.834 15.1171 19.5602 15.651C19.3254 16.11 18.9549 16.8304 18.7382 17.2518C18.1549 18.3846 17.5728 19.5181 16.9919 20.6521C15.99 22.6072 15.8688 22.8403 15.8257 22.8919C15.7425 22.9925 15.6972 23.2246 15.7441 23.3119C15.7867 23.3918 15.8718 23.395 17.9869 23.3918C19.196 23.3904 20.1932 23.3967 20.2036 23.406C20.2314 23.4346 20.2211 30.9759 20.1924 31.1557C20.1735 31.2738 20.1861 31.3363 20.2402 31.3903C20.3336 31.4838 20.3592 31.483 20.494 31.3769Z" fill="black"/>
<path d="M43.3583 27V14.6364H51.0252V16.2422H45.2237V20.0092H50.4759V21.609H45.2237V27H43.3583ZM55.8397 27.2053C55.2521 27.2053 54.7208 27.0966 54.2459 26.8793C53.771 26.6579 53.3947 26.3379 53.117 25.9194C52.8433 25.5008 52.7065 24.9877 52.7065 24.38C52.7065 23.8568 52.8071 23.4261 53.0083 23.0881C53.2096 22.75 53.4812 22.4824 53.8233 22.2852C54.1654 22.0879 54.5478 21.939 54.9703 21.8384C55.3929 21.7378 55.8236 21.6613 56.2623 21.609C56.8176 21.5446 57.2684 21.4923 57.6145 21.4521C57.9606 21.4078 58.2122 21.3374 58.3691 21.2408C58.5261 21.1442 58.6046 20.9872 58.6046 20.7699V20.7276C58.6046 20.2004 58.4557 19.7919 58.1578 19.5021C57.8641 19.2124 57.4254 19.0675 56.8418 19.0675C56.2341 19.0675 55.7551 19.2023 55.405 19.4719C55.0589 19.7376 54.8194 20.0334 54.6866 20.3594L52.9902 19.973C53.1915 19.4096 53.4853 18.9548 53.8716 18.6087C54.262 18.2585 54.7108 18.005 55.2179 17.848C55.725 17.687 56.2582 17.6065 56.8176 17.6065C57.1879 17.6065 57.5803 17.6508 57.9949 17.7393C58.4134 17.8239 58.8038 17.9808 59.166 18.2102C59.5323 18.4396 59.8321 18.7676 60.0655 19.1942C60.2989 19.6168 60.4157 20.1662 60.4157 20.8423V27H58.6529V25.7322H58.5804C58.4637 25.9657 58.2886 26.1951 58.0552 26.4205C57.8218 26.6458 57.522 26.833 57.1557 26.9819C56.7895 27.1308 56.3508 27.2053 55.8397 27.2053ZM56.2321 25.7564C56.7311 25.7564 57.1577 25.6578 57.5119 25.4606C57.8701 25.2634 58.1417 25.0058 58.3269 24.6879C58.516 24.3659 58.6106 24.0218 58.6106 23.6555V22.4602C58.5462 22.5246 58.4215 22.585 58.2363 22.6413C58.0552 22.6937 57.848 22.7399 57.6145 22.7802C57.3811 22.8164 57.1537 22.8506 56.9324 22.8828C56.711 22.911 56.5259 22.9351 56.377 22.9553C56.0268 22.9995 55.7069 23.074 55.4171 23.1786C55.1313 23.2833 54.9019 23.4342 54.7289 23.6314C54.5598 23.8246 54.4753 24.0821 54.4753 24.4041C54.4753 24.8509 54.6403 25.1889 54.9703 25.4183C55.3004 25.6437 55.7209 25.7564 56.2321 25.7564ZM69.7684 19.9911L68.1324 20.2809C68.064 20.0716 67.9553 19.8724 67.8064 19.6832C67.6615 19.4941 67.4643 19.3391 67.2148 19.2184C66.9652 19.0977 66.6533 19.0373 66.279 19.0373C65.7679 19.0373 65.3413 19.152 64.9992 19.3814C64.6571 19.6068 64.4861 19.8986 64.4861 20.2567C64.4861 20.5666 64.6008 20.8162 64.8302 21.0053C65.0596 21.1945 65.4298 21.3494 65.941 21.4702L67.414 21.8082C68.2672 22.0054 68.9031 22.3093 69.3216 22.7198C69.7402 23.1303 69.9495 23.6636 69.9495 24.3196C69.9495 24.875 69.7885 25.37 69.4665 25.8047C69.1486 26.2353 68.7039 26.5734 68.1324 26.8189C67.5649 27.0644 66.9069 27.1871 66.1583 27.1871C65.1199 27.1871 64.2728 26.9658 63.6167 26.5231C62.9607 26.0763 62.5583 25.4425 62.4094 24.6214L64.154 24.3558C64.2627 24.8106 64.4861 25.1547 64.8241 25.3881C65.1622 25.6175 65.6029 25.7322 66.1462 25.7322C66.7378 25.7322 67.2107 25.6095 67.5649 25.364C67.9191 25.1145 68.0961 24.8106 68.0961 24.4524C68.0961 24.1626 67.9875 23.9192 67.7702 23.7219C67.5568 23.5247 67.2288 23.3758 66.7861 23.2752L65.2165 22.9311C64.3512 22.7339 63.7113 22.42 63.2968 21.9893C62.8863 21.5587 62.681 21.0134 62.681 20.3533C62.681 19.806 62.834 19.3271 63.1398 18.9165C63.4457 18.506 63.8683 18.1861 64.4076 17.9567C64.9469 17.7232 65.5647 17.6065 66.2609 17.6065C67.2631 17.6065 68.0519 17.8239 68.6274 18.2585C69.2029 18.6892 69.5832 19.2667 69.7684 19.9911ZM76.2626 17.7273V19.1761H71.1976V17.7273H76.2626ZM72.5559 15.5057H74.361V24.2773C74.361 24.6275 74.4133 24.8911 74.5179 25.0682C74.6226 25.2412 74.7574 25.36 74.9224 25.4244C75.0914 25.4847 75.2746 25.5149 75.4718 25.5149C75.6167 25.5149 75.7434 25.5049 75.8521 25.4847C75.9608 25.4646 76.0453 25.4485 76.1056 25.4364L76.4316 26.9276C76.327 26.9678 76.1781 27.008 75.9849 27.0483C75.7917 27.0926 75.5502 27.1167 75.2605 27.1207C74.7856 27.1288 74.3429 27.0443 73.9324 26.8672C73.5218 26.6901 73.1898 26.4164 72.9363 26.0462C72.6827 25.6759 72.5559 25.2111 72.5559 24.6516V15.5057ZM80.9578 27.2053C80.3702 27.2053 79.839 27.0966 79.3641 26.8793C78.8892 26.6579 78.5129 26.3379 78.2352 25.9194C77.9615 25.5008 77.8247 24.9877 77.8247 24.38C77.8247 23.8568 77.9253 23.4261 78.1265 23.0881C78.3277 22.75 78.5994 22.4824 78.9415 22.2852C79.2836 22.0879 79.6659 21.939 80.0885 21.8384C80.5111 21.7378 80.9417 21.6613 81.3804 21.609C81.9358 21.5446 82.3866 21.4923 82.7327 21.4521C83.0788 21.4078 83.3303 21.3374 83.4873 21.2408C83.6443 21.1442 83.7227 20.9872 83.7227 20.7699V20.7276C83.7227 20.2004 83.5738 19.7919 83.276 19.5021C82.9822 19.2124 82.5435 19.0675 81.96 19.0675C81.3522 19.0675 80.8733 19.2023 80.5232 19.4719C80.1771 19.7376 79.9376 20.0334 79.8048 20.3594L78.1084 19.973C78.3096 19.4096 78.6034 18.9548 78.9898 18.6087C79.3802 18.2585 79.8289 18.005 80.336 17.848C80.8431 17.687 81.3764 17.6065 81.9358 17.6065C82.3061 17.6065 82.6985 17.6508 83.113 17.7393C83.5316 17.8239 83.922 17.9808 84.2842 18.2102C84.6504 18.4396 84.9503 18.7676 85.1837 19.1942C85.4171 19.6168 85.5338 20.1662 85.5338 20.8423V27H83.771V25.7322H83.6986C83.5819 25.9657 83.4068 26.1951 83.1734 26.4205C82.94 26.6458 82.6401 26.833 82.2739 26.9819C81.9076 27.1308 81.469 27.2053 80.9578 27.2053ZM81.3502 25.7564C81.8493 25.7564 82.2759 25.6578 82.6301 25.4606C82.9883 25.2634 83.2599 25.0058 83.445 24.6879C83.6342 24.3659 83.7288 24.0218 83.7288 23.6555V22.4602C83.6644 22.5246 83.5396 22.585 83.3545 22.6413C83.1734 22.6937 82.9661 22.7399 82.7327 22.7802C82.4993 22.8164 82.2719 22.8506 82.0505 22.8828C81.8292 22.911 81.644 22.9351 81.4951 22.9553C81.145 22.9995 80.825 23.074 80.5352 23.1786C80.2495 23.2833 80.0201 23.4342 79.847 23.6314C79.678 23.8246 79.5935 24.0821 79.5935 24.4041C79.5935 24.8509 79.7585 25.1889 80.0885 25.4183C80.4185 25.6437 80.8391 25.7564 81.3502 25.7564ZM87.938 30.4773V17.7273H89.7008V19.2305H89.8517C89.9564 19.0373 90.1073 18.8139 90.3045 18.5604C90.5017 18.3068 90.7754 18.0855 91.1255 17.8963C91.4757 17.7031 91.9385 17.6065 92.514 17.6065C93.2626 17.6065 93.9307 17.7957 94.5183 18.174C95.1059 18.5523 95.5667 19.0977 95.9007 19.81C96.2388 20.5224 96.4078 21.3796 96.4078 22.3817C96.4078 23.3839 96.2408 24.2431 95.9068 24.9595C95.5727 25.6719 95.1139 26.2212 94.5304 26.6076C93.9468 26.9899 93.2807 27.1811 92.5321 27.1811C91.9687 27.1811 91.5079 27.0865 91.1497 26.8974C90.7955 26.7082 90.5178 26.4869 90.3166 26.2333C90.1154 25.9798 89.9604 25.7544 89.8517 25.5572H89.7431V30.4773H87.938ZM89.7069 22.3636C89.7069 23.0156 89.8014 23.5871 89.9906 24.0781C90.1797 24.5691 90.4534 24.9535 90.8116 25.2312C91.1698 25.5049 91.6085 25.6417 92.1277 25.6417C92.667 25.6417 93.1177 25.4988 93.4799 25.2131C93.8422 24.9233 94.1158 24.5309 94.301 24.0359C94.4901 23.5408 94.5847 22.9834 94.5847 22.3636C94.5847 21.7519 94.4921 21.2025 94.307 20.7156C94.1259 20.2286 93.8522 19.8442 93.486 19.5625C93.1238 19.2808 92.671 19.1399 92.1277 19.1399C91.6045 19.1399 91.1618 19.2747 90.7995 19.5444C90.4413 19.814 90.1697 20.1903 89.9846 20.6733C89.7994 21.1562 89.7069 21.7197 89.7069 22.3636ZM98.4302 27V17.7273H100.235V27H98.4302ZM99.3418 16.2965C99.0279 16.2965 98.7582 16.1919 98.5328 15.9826C98.3115 15.7693 98.2008 15.5157 98.2008 15.2219C98.2008 14.9241 98.3115 14.6706 98.5328 14.4613C98.7582 14.248 99.0279 14.1413 99.3418 14.1413C99.6557 14.1413 99.9234 14.248 100.145 14.4613C100.37 14.6706 100.483 14.9241 100.483 15.2219C100.483 15.5157 100.37 15.7693 100.145 15.9826C99.9234 16.1919 99.6557 16.2965 99.3418 16.2965Z" fill="black"/>
</svg>
