<svg width="86" height="36" viewBox="0 0 86 36" fill="none" xmlns="http://www.w3.org/2000/svg">
<rect x="0.5" y="0.5" width="85" height="35" rx="7.5" stroke="black"/>
<path d="M14 8H11C9.34315 8 8 9.49239 8 11.3333C8 13.1743 9.34315 14.6667 11 14.6667M14 8V14.6667M14 8H17C18.6569 8 20 9.49239 20 11.3333C20 13.1743 18.6569 14.6667 17 14.6667M11 14.6667H14M11 14.6667C9.34315 14.6667 8 16.159 8 18C8 19.841 9.34315 21.3333 11 21.3333M14 14.6667H17M14 14.6667V21.3333M17 14.6667C18.6569 14.6667 20 16.159 20 18C20 19.841 18.6569 21.3333 17 21.3333C15.3431 21.3333 14 19.841 14 18C14 16.159 15.3431 14.6667 17 14.6667ZM14 21.3333H11M14 21.3333V24.6667C14 26.5077 12.6569 28 11 28C9.34315 28 8 26.5077 8 24.6667C8 22.8257 9.34315 21.3333 11 21.3333" stroke="black" stroke-linecap="round" stroke-linejoin="round"/>
<path d="M29.3583 24V11.6364H37.0252V13.2422H31.2237V17.0092H36.4759V18.609H31.2237V24H29.3583ZM39.1744 24V14.7273H40.9794V24H39.1744ZM40.0859 13.2965C39.772 13.2965 39.5024 13.1919 39.277 12.9826C39.0556 12.7693 38.945 12.5157 38.945 12.2219C38.945 11.9241 39.0556 11.6706 39.277 11.4613C39.5024 11.248 39.772 11.1413 40.0859 11.1413C40.3999 11.1413 40.6675 11.248 40.8888 11.4613C41.1142 11.6706 41.2269 11.9241 41.2269 12.2219C41.2269 12.5157 41.1142 12.7693 40.8888 12.9826C40.6675 13.1919 40.3999 13.2965 40.0859 13.2965ZM47.2955 27.6705C46.559 27.6705 45.9252 27.5739 45.3939 27.3807C44.8667 27.1875 44.4361 26.9319 44.102 26.614C43.768 26.296 43.5184 25.9479 43.3534 25.5696L44.9049 24.9297C45.0136 25.1068 45.1585 25.2939 45.3396 25.4911C45.5247 25.6924 45.7742 25.8634 46.0882 26.0043C46.4061 26.1451 46.8146 26.2156 47.3137 26.2156C47.9978 26.2156 48.5633 26.0485 49.01 25.7145C49.4568 25.3845 49.6801 24.8572 49.6801 24.1328V22.3097H49.5654C49.4568 22.5069 49.2998 22.7262 49.0945 22.9677C48.8933 23.2092 48.6156 23.4184 48.2615 23.5955C47.9073 23.7726 47.4465 23.8612 46.879 23.8612C46.1465 23.8612 45.4865 23.6901 44.8989 23.348C44.3153 23.0019 43.8525 22.4928 43.5104 21.8207C43.1723 21.1445 43.0033 20.3134 43.0033 19.3274C43.0033 18.3414 43.1703 17.4962 43.5044 16.7919C43.8424 16.0876 44.3052 15.5483 44.8928 15.174C45.4804 14.7957 46.1465 14.6065 46.8911 14.6065C47.4666 14.6065 47.9314 14.7031 48.2856 14.8963C48.6398 15.0855 48.9155 15.3068 49.1127 15.5604C49.3139 15.8139 49.4688 16.0373 49.5775 16.2305H49.7103V14.7273H51.4791V24.2053C51.4791 25.0021 51.294 25.6561 50.9237 26.1673C50.5535 26.6784 50.0524 27.0567 49.4205 27.3022C48.7927 27.5477 48.0844 27.6705 47.2955 27.6705ZM47.2774 22.364C47.7966 22.364 48.2353 22.2433 48.5935 22.0018C48.9557 21.7563 49.2294 21.4061 49.4145 20.9513C49.6037 20.4925 49.6982 19.9432 49.6982 19.3033C49.6982 18.6795 49.6057 18.1301 49.4205 17.6552C49.2354 17.1803 48.9637 16.81 48.6056 16.5444C48.2474 16.2747 47.8047 16.1399 47.2774 16.1399C46.7341 16.1399 46.2813 16.2808 45.9191 16.5625C45.5569 16.8402 45.2832 17.2185 45.0981 17.6974C44.917 18.1764 44.8264 18.7116 44.8264 19.3033C44.8264 19.911 44.919 20.4442 45.1041 20.9031C45.2893 21.3619 45.5629 21.7201 45.9252 21.9776C46.2914 22.2352 46.7422 22.364 47.2774 22.364ZM53.8999 24V14.7273H55.6325V16.2365H55.7472C55.9404 15.7254 56.2564 15.3269 56.695 15.0412C57.1337 14.7514 57.6589 14.6065 58.2707 14.6065C58.8905 14.6065 59.4097 14.7514 59.8282 15.0412C60.2508 15.331 60.5627 15.7294 60.7639 16.2365H60.8605C61.0819 15.7415 61.434 15.3471 61.917 15.0533C62.3999 14.7554 62.9755 14.6065 63.6436 14.6065C64.4847 14.6065 65.1709 14.8701 65.7021 15.3974C66.2374 15.9246 66.5051 16.7195 66.5051 17.782V24H64.7V17.951C64.7 17.3232 64.529 16.8684 64.1869 16.5866C63.8448 16.3049 63.4363 16.1641 62.9614 16.1641C62.3738 16.1641 61.917 16.3452 61.591 16.7074C61.265 17.0656 61.102 17.5264 61.102 18.0898V24H59.303V17.8363C59.303 17.3332 59.146 16.9287 58.8321 16.6229C58.5182 16.317 58.1097 16.1641 57.6066 16.1641C57.2645 16.1641 56.9486 16.2546 56.6588 16.4357C56.3731 16.6128 56.1417 16.8603 55.9646 17.1783C55.7915 17.4962 55.705 17.8645 55.705 18.283V24H53.8999ZM71.6229 24.2053C71.0353 24.2053 70.504 24.0966 70.0291 23.8793C69.5542 23.6579 69.1779 23.3379 68.9002 22.9194C68.6265 22.5008 68.4897 21.9877 68.4897 21.38C68.4897 20.8568 68.5903 20.4261 68.7915 20.0881C68.9928 19.75 69.2644 19.4824 69.6065 19.2852C69.9486 19.0879 70.331 18.939 70.7536 18.8384C71.1761 18.7378 71.6068 18.6613 72.0455 18.609C72.6009 18.5446 73.0516 18.4923 73.3977 18.4521C73.7438 18.4078 73.9954 18.3374 74.1523 18.2408C74.3093 18.1442 74.3878 17.9872 74.3878 17.7699V17.7276C74.3878 17.2004 74.2389 16.7919 73.9411 16.5021C73.6473 16.2124 73.2086 16.0675 72.625 16.0675C72.0173 16.0675 71.5384 16.2023 71.1882 16.4719C70.8421 16.7376 70.6026 17.0334 70.4698 17.3594L68.7734 16.973C68.9747 16.4096 69.2685 15.9548 69.6548 15.6087C70.0452 15.2585 70.494 15.005 71.0011 14.848C71.5082 14.687 72.0414 14.6065 72.6009 14.6065C72.9711 14.6065 73.3635 14.6508 73.7781 14.7393C74.1966 14.8239 74.587 14.9808 74.9492 15.2102C75.3155 15.4396 75.6153 15.7676 75.8487 16.1942C76.0821 16.6168 76.1989 17.1662 76.1989 17.8423V24H74.4361V22.7322H74.3636C74.2469 22.9657 74.0719 23.1951 73.8384 23.4205C73.605 23.6458 73.3052 23.833 72.9389 23.9819C72.5727 24.1308 72.134 24.2053 71.6229 24.2053ZM72.0153 22.7564C72.5143 22.7564 72.9409 22.6578 73.2951 22.4606C73.6533 22.2634 73.925 22.0058 74.1101 21.6879C74.2992 21.3659 74.3938 21.0218 74.3938 20.6555V19.4602C74.3294 19.5246 74.2047 19.585 74.0195 19.6413C73.8384 19.6937 73.6312 19.7399 73.3977 19.7802C73.1643 19.8164 72.9369 19.8506 72.7156 19.8828C72.4942 19.911 72.3091 19.9351 72.1602 19.9553C71.81 19.9995 71.4901 20.074 71.2003 20.1786C70.9145 20.2833 70.6851 20.4342 70.5121 20.6314C70.343 20.8246 70.2585 21.0821 70.2585 21.4041C70.2585 21.8509 70.4235 22.1889 70.7536 22.4183C71.0836 22.6437 71.5041 22.7564 72.0153 22.7564Z" fill="black"/>
</svg>
