<svg width="113" height="36" viewBox="0 0 113 36" fill="none" xmlns="http://www.w3.org/2000/svg">
<rect x="0.5" y="0.5" width="112" height="35" rx="7.5" stroke="black"/>
<path d="M14.173 10.2214C13.3627 9.23322 12.665 8.21397 12.53 8.01167C12.515 7.99611 12.4925 7.99611 12.4775 8.01167C12.335 8.22175 11.6373 9.23322 10.827 10.2291C3.88018 19.418 11.9223 25.6191 11.9223 25.6191L11.9899 25.6658C12.0499 26.6228 12.1999 28 12.1999 28H12.8001C12.8001 28 12.9501 26.6306 13.0101 25.6658L13.0777 25.6114C13.0777 25.6114 21.1198 19.418 14.173 10.2214ZM12.5 25.4791C12.5 25.4791 12.1399 25.1601 12.0424 24.9967V24.9811L12.4775 14.9753C12.4775 14.9442 12.5225 14.9442 12.5225 14.9753L12.9501 24.9733V24.9889C12.8526 25.1601 12.5 25.4791 12.5 25.4791Z" fill="black"/>
<path d="M26.3583 11.6364H28.6222L32.5582 21.2472H32.7031L36.6392 11.6364H38.9031V24H37.1282V15.0533H37.0135L33.3672 23.9819H31.8942L28.2479 15.0472H28.1332V24H26.3583V11.6364ZM45.3762 24.1871C44.5068 24.1871 43.7482 23.9879 43.1002 23.5895C42.4523 23.1911 41.9492 22.6336 41.591 21.9173C41.2328 21.2009 41.0537 20.3638 41.0537 19.4059C41.0537 18.444 41.2328 17.6029 41.591 16.8825C41.9492 16.162 42.4523 15.6026 43.1002 15.2042C43.7482 14.8058 44.5068 14.6065 45.3762 14.6065C46.2455 14.6065 47.0041 14.8058 47.6521 15.2042C48.3 15.6026 48.8031 16.162 49.1613 16.8825C49.5195 17.6029 49.6986 18.444 49.6986 19.4059C49.6986 20.3638 49.5195 21.2009 49.1613 21.9173C48.8031 22.6336 48.3 23.1911 47.6521 23.5895C47.0041 23.9879 46.2455 24.1871 45.3762 24.1871ZM45.3822 22.6719C45.9456 22.6719 46.4125 22.523 46.7828 22.2251C47.153 21.9273 47.4267 21.5309 47.6038 21.0359C47.7849 20.5408 47.8754 19.9955 47.8754 19.3999C47.8754 18.8082 47.7849 18.2649 47.6038 17.7699C47.4267 17.2708 47.153 16.8704 46.7828 16.5685C46.4125 16.2667 45.9456 16.1158 45.3822 16.1158C44.8147 16.1158 44.3438 16.2667 43.9695 16.5685C43.5993 16.8704 43.3236 17.2708 43.1425 17.7699C42.9654 18.2649 42.8769 18.8082 42.8769 19.3999C42.8769 19.9955 42.9654 20.5408 43.1425 21.0359C43.3236 21.5309 43.5993 21.9273 43.9695 22.2251C44.3438 22.523 44.8147 22.6719 45.3822 22.6719ZM53.5185 18.4943V24H51.7134V14.7273H53.446V16.2365H53.5607C53.774 15.7455 54.1081 15.3511 54.5629 15.0533C55.0217 14.7554 55.5992 14.6065 56.2955 14.6065C56.9273 14.6065 57.4807 14.7393 57.9556 15.005C58.4305 15.2666 58.7988 15.657 59.0604 16.1761C59.322 16.6953 59.4528 17.3372 59.4528 18.1019V24H57.6477V18.3192C57.6477 17.6471 57.4727 17.1219 57.1225 16.7436C56.7724 16.3613 56.2914 16.1701 55.6797 16.1701C55.2611 16.1701 54.8888 16.2607 54.5629 16.4418C54.2409 16.6229 53.9853 16.8885 53.7962 17.2386C53.611 17.5848 53.5185 18.0033 53.5185 18.4943ZM65.7614 27.6705C65.0249 27.6705 64.391 27.5739 63.8597 27.3807C63.3325 27.1875 62.9019 26.9319 62.5678 26.614C62.2338 26.296 61.9843 25.9479 61.8192 25.5696L63.3707 24.9297C63.4794 25.1068 63.6243 25.2939 63.8054 25.4911C63.9905 25.6924 64.2401 25.8634 64.554 26.0043C64.8719 26.1451 65.2804 26.2156 65.7795 26.2156C66.4637 26.2156 67.0291 26.0485 67.4759 25.7145C67.9226 25.3845 68.146 24.8572 68.146 24.1328V22.3097H68.0312C67.9226 22.5069 67.7656 22.7262 67.5604 22.9677C67.3591 23.2092 67.0814 23.4184 66.7273 23.5955C66.3731 23.7726 65.9123 23.8612 65.3448 23.8612C64.6123 23.8612 63.9523 23.6901 63.3647 23.348C62.7811 23.0019 62.3183 22.4928 61.9762 21.8207C61.6381 21.1445 61.4691 20.3134 61.4691 19.3274C61.4691 18.3414 61.6361 17.4962 61.9702 16.7919C62.3082 16.0876 62.7711 15.5483 63.3587 15.174C63.9463 14.7957 64.6123 14.6065 65.3569 14.6065C65.9324 14.6065 66.3973 14.7031 66.7514 14.8963C67.1056 15.0855 67.3813 15.3068 67.5785 15.5604C67.7797 15.8139 67.9347 16.0373 68.0433 16.2305H68.1761V14.7273H69.945V24.2053C69.945 25.0021 69.7598 25.6561 69.3896 26.1673C69.0193 26.6784 68.5182 27.0567 67.8864 27.3022C67.2585 27.5477 66.5502 27.6705 65.7614 27.6705ZM65.7433 22.364C66.2624 22.364 66.7011 22.2433 67.0593 22.0018C67.4215 21.7563 67.6952 21.4061 67.8803 20.9513C68.0695 20.4925 68.1641 19.9432 68.1641 19.3033C68.1641 18.6795 68.0715 18.1301 67.8864 17.6552C67.7012 17.1803 67.4296 16.81 67.0714 16.5444C66.7132 16.2747 66.2705 16.1399 65.7433 16.1399C65.1999 16.1399 64.7472 16.2808 64.3849 16.5625C64.0227 16.8402 63.7491 17.2185 63.5639 17.6974C63.3828 18.1764 63.2923 18.7116 63.2923 19.3033C63.2923 19.911 63.3848 20.4442 63.57 20.9031C63.7551 21.3619 64.0288 21.7201 64.391 21.9776C64.7572 22.2352 65.208 22.364 65.7433 22.364ZM76.2717 24.1871C75.4023 24.1871 74.6437 23.9879 73.9957 23.5895C73.3478 23.1911 72.8447 22.6336 72.4865 21.9173C72.1283 21.2009 71.9492 20.3638 71.9492 19.4059C71.9492 18.444 72.1283 17.6029 72.4865 16.8825C72.8447 16.162 73.3478 15.6026 73.9957 15.2042C74.6437 14.8058 75.4023 14.6065 76.2717 14.6065C77.141 14.6065 77.8996 14.8058 78.5476 15.2042C79.1955 15.6026 79.6986 16.162 80.0568 16.8825C80.415 17.6029 80.5941 18.444 80.5941 19.4059C80.5941 20.3638 80.415 21.2009 80.0568 21.9173C79.6986 22.6336 79.1955 23.1911 78.5476 23.5895C77.8996 23.9879 77.141 24.1871 76.2717 24.1871ZM76.2777 22.6719C76.8411 22.6719 77.308 22.523 77.6783 22.2251C78.0485 21.9273 78.3222 21.5309 78.4993 21.0359C78.6804 20.5408 78.771 19.9955 78.771 19.3999C78.771 18.8082 78.6804 18.2649 78.4993 17.7699C78.3222 17.2708 78.0485 16.8704 77.6783 16.5685C77.308 16.2667 76.8411 16.1158 76.2777 16.1158C75.7102 16.1158 75.2393 16.2667 74.8651 16.5685C74.4948 16.8704 74.2191 17.2708 74.038 17.7699C73.8609 18.2649 73.7724 18.8082 73.7724 19.3999C73.7724 19.9955 73.8609 20.5408 74.038 21.0359C74.2191 21.5309 74.4948 21.9273 74.8651 22.2251C75.2393 22.523 75.7102 22.6719 76.2777 22.6719ZM86.7563 24H82.7538V11.6364H86.8831C88.0945 11.6364 89.1349 11.8839 90.0042 12.3789C90.8735 12.8699 91.5396 13.5762 92.0024 14.4979C92.4693 15.4155 92.7027 16.5162 92.7027 17.8001C92.7027 19.0879 92.4672 20.1947 91.9964 21.1204C91.5295 22.046 90.8534 22.7584 89.968 23.2575C89.0825 23.7525 88.012 24 86.7563 24ZM84.6192 22.37H86.6537C87.5954 22.37 88.3782 22.1929 89.002 21.8388C89.6259 21.4806 90.0927 20.9634 90.4026 20.2873C90.7125 19.6071 90.8675 18.7781 90.8675 17.8001C90.8675 16.8301 90.7125 16.0071 90.4026 15.331C90.0967 14.6548 89.6399 14.1417 89.0322 13.7915C88.4245 13.4414 87.6699 13.2663 86.7684 13.2663H84.6192V22.37ZM95.0224 24V11.6364H99.5501C100.427 11.6364 101.154 11.7812 101.729 12.071C102.305 12.3568 102.736 12.7451 103.021 13.2362C103.307 13.7231 103.45 14.2725 103.45 14.8842C103.45 15.3994 103.355 15.834 103.166 16.1882C102.977 16.5384 102.723 16.8201 102.406 17.0334C102.092 17.2427 101.746 17.3956 101.367 17.4922V17.6129C101.778 17.633 102.178 17.7659 102.569 18.0114C102.963 18.2528 103.289 18.5969 103.547 19.0437C103.804 19.4904 103.933 20.0337 103.933 20.6737C103.933 21.3055 103.784 21.873 103.486 22.3761C103.192 22.8751 102.738 23.2715 102.122 23.5653C101.506 23.8551 100.719 24 99.7614 24H95.0224ZM96.8878 22.4002H99.5803C100.474 22.4002 101.114 22.2272 101.5 21.881C101.886 21.5349 102.08 21.1023 102.08 20.5831C102.08 20.1927 101.981 19.8345 101.784 19.5085C101.587 19.1825 101.305 18.9229 100.939 18.7298C100.576 18.5366 100.146 18.44 99.6467 18.44H96.8878V22.4002ZM96.8878 16.9851H99.3871C99.8056 16.9851 100.182 16.9046 100.516 16.7436C100.854 16.5826 101.122 16.3572 101.319 16.0675C101.52 15.7737 101.621 15.4276 101.621 15.0291C101.621 14.518 101.442 14.0894 101.083 13.7433C100.725 13.3971 100.176 13.2241 99.4354 13.2241H96.8878V16.9851Z" fill="black"/>
</svg>
