<svg width="103" height="36" viewBox="0 0 103 36" fill="none" xmlns="http://www.w3.org/2000/svg">
<rect x="0.5" y="0.5" width="102" height="35" rx="7.5" stroke="black"/>
<mask id="path-2-inside-1_471_293" fill="white">
<path d="M22.8427 26.7512C22.7683 26.7906 22.7745 26.8031 22.8458 26.7669C22.8689 26.7575 22.8883 26.7444 22.9052 26.7287C22.9052 26.7156 22.9052 26.7156 22.8427 26.7512ZM22.9927 26.67C22.957 26.6994 22.957 26.6994 22.9995 26.68C23.022 26.6669 23.042 26.6543 23.042 26.6506C23.042 26.6337 23.032 26.6375 22.9927 26.67ZM23.0902 26.6112C23.0545 26.6406 23.0545 26.6406 23.097 26.6212C23.1202 26.6081 23.1395 26.5943 23.1395 26.5912C23.1395 26.5756 23.1295 26.5787 23.0902 26.6112ZM23.1889 26.5531C23.1533 26.5825 23.1533 26.5825 23.1945 26.5625C23.2176 26.55 23.237 26.5368 23.237 26.5331C23.237 26.5175 23.227 26.5206 23.1889 26.5531ZM23.322 26.465C23.2539 26.5106 23.2301 26.54 23.2926 26.5075C23.3345 26.4818 23.4058 26.4256 23.3933 26.4256C23.3664 26.4356 23.3439 26.4525 23.3214 26.465H23.322ZM17.3453 8.00459C17.2997 8.00772 17.1628 8.02022 17.0428 8.03022C14.2004 8.28772 11.5411 9.81776 9.85557 12.1747C8.92372 13.4666 8.31874 14.9672 8.09062 16.5429C8.01 17.0929 8 17.2554 8 18.001C8 18.7461 8.01 18.9061 8.09062 19.4561C8.63498 23.213 11.3074 26.3668 14.9298 27.5356C15.5816 27.7437 16.2647 27.8875 17.0428 27.9756C17.3453 28.0081 18.6534 28.0081 18.9559 27.9756C20.3009 27.8256 21.4365 27.4937 22.5602 26.9206C22.7327 26.8331 22.7652 26.81 22.742 26.7906C22.1921 26.065 21.6521 25.3387 21.1115 24.6062L19.5134 22.448L17.5116 19.4823C16.8441 18.4898 16.1741 17.4998 15.4935 16.5173C15.4866 16.5173 15.4779 17.8354 15.4741 19.443C15.4673 22.2586 15.4673 22.373 15.4316 22.438C15.396 22.5161 15.3373 22.5811 15.2591 22.6174C15.1973 22.6468 15.1417 22.653 14.846 22.653H14.5079L14.4198 22.598C14.3648 22.5624 14.3192 22.513 14.2898 22.4549L14.2473 22.3668L14.2573 14.5279L14.3192 14.4497C14.3586 14.4016 14.4073 14.3622 14.4623 14.3328C14.5442 14.2935 14.5767 14.2872 14.9148 14.2872C15.3116 14.2872 15.3773 14.3028 15.4816 14.4172C16.2916 15.6247 17.0991 16.8354 17.8934 18.0498C19.1928 20.0198 20.9665 22.708 21.8383 24.0268L23.4239 26.4262L23.502 26.3743C24.2639 25.8662 24.957 25.2612 25.5551 24.5712C26.815 23.1287 27.6325 21.3542 27.9094 19.4605C27.99 18.9104 28 18.7473 28 18.0023C28 17.2567 27.99 17.0973 27.9094 16.5473C27.365 12.7903 24.6926 9.6365 21.0702 8.4671C20.3927 8.25272 19.6959 8.10647 18.9903 8.03147C18.8009 8.01209 17.5085 7.98897 17.346 8.00584L17.3453 8.00459ZM21.4371 14.0528C21.5315 14.0978 21.6027 14.1828 21.6352 14.2803C21.6521 14.3328 21.6552 15.4197 21.6521 17.8679L21.6452 21.383L21.0271 20.433L20.4052 19.4823V16.9304C20.4052 15.276 20.4121 14.3485 20.4209 14.3028C20.4502 14.1985 20.5215 14.111 20.6165 14.056C20.694 14.0166 20.724 14.0135 21.0333 14.0135C21.3227 14.0135 21.3721 14.0166 21.4371 14.0528Z"/>
</mask>
<path d="M22.8427 26.7512L34.5403 48.8457L34.8847 48.6633L35.2232 48.4704L22.8427 26.7512ZM22.8458 26.7669L13.4527 3.59854L12.4619 4.00027L11.5089 4.48514L22.8458 26.7669ZM22.9052 26.7287L39.8908 45.0723L47.9052 37.6512V26.7287H22.9052ZM22.9927 26.67L38.8977 45.9581L38.9073 45.9501L22.9927 26.67ZM22.9995 26.68L33.3702 49.4275L34.5125 48.9067L35.5968 48.2742L22.9995 26.68ZM23.0902 26.6112L38.9952 45.8993L39.0048 45.8914L23.0902 26.6112ZM23.097 26.6212L33.4677 49.3687L34.475 48.9095L35.4376 48.3631L23.097 26.6212ZM23.1889 26.5531L39.0939 45.8412L39.2519 45.7109L39.4077 45.5781L23.1889 26.5531ZM23.1945 26.5625L34.1018 49.0576L34.5979 48.8171L35.0829 48.5549L23.1945 26.5625ZM23.322 26.465L37.234 47.2365L105.574 1.46497H23.322V26.465ZM23.2926 26.5075L34.8269 48.6876L35.5995 48.2859L36.3423 47.8313L23.2926 26.5075ZM23.3933 26.4256V1.42559H18.8926L14.6745 2.9952L23.3933 26.4256ZM23.3214 26.465L11.1798 4.6113L-73.1524 51.465H23.3214V26.465ZM17.3453 8.00459L39.7086 -3.17065L32.2603 -18.0756L15.6369 -16.937L17.3453 8.00459ZM17.0428 8.03022L14.9666 -16.8834L14.8769 -16.8759L14.7872 -16.8678L17.0428 8.03022ZM9.85557 12.1747L30.1314 26.7996L30.1611 26.7586L30.1905 26.7174L9.85557 12.1747ZM8.09062 16.5429L32.8263 20.1687L32.8295 20.1468L32.8327 20.125L8.09062 16.5429ZM8.09062 19.4561L32.8323 15.8712L32.8293 15.8507L32.8263 15.8302L8.09062 19.4561ZM14.9298 27.5356L7.25316 51.3278L7.28945 51.3395L7.32578 51.3511L14.9298 27.5356ZM17.0428 27.9756L14.2294 52.8168L14.3007 52.8249L14.3721 52.8326L17.0428 27.9756ZM18.9559 27.9756L21.6266 52.8326L21.6768 52.8272L21.727 52.8216L18.9559 27.9756ZM22.5602 26.9206L11.2503 4.62516L11.2258 4.63758L11.2014 4.65005L22.5602 26.9206ZM22.742 26.7906L2.81812 41.8915L4.52283 44.1407L6.68606 45.9532L22.742 26.7906ZM21.1115 24.6062L41.2266 9.7609L41.2148 9.7449L41.2029 9.72892L21.1115 24.6062ZM19.5134 22.448L-1.20791 36.4347L-0.902707 36.8869L-0.578075 37.3253L19.5134 22.448ZM17.5116 19.4823L-3.23357 33.4336L-3.22166 33.4513L-3.20972 33.469L17.5116 19.4823ZM15.4935 16.5173L36.0444 2.2814L28.588 -8.48273H15.4935V16.5173ZM15.4741 19.443L40.4741 19.504L40.4741 19.5013L15.4741 19.443ZM15.4316 22.438L-6.4918 10.4229L-6.93374 11.2293L-7.31524 12.066L15.4316 22.438ZM15.2591 22.6174L4.73625 -0.0600986L4.63638 -0.0137587L4.53693 0.0334592L15.2591 22.6174ZM14.5079 22.653L1.27108 43.8612L7.34639 47.653H14.5079V22.653ZM14.4198 22.598L0.82814 43.5806L1.0046 43.6949L1.18296 43.8062L14.4198 22.598ZM14.2898 22.4549L-8.2285 33.3143L-8.12764 33.5234L-8.02292 33.7306L14.2898 22.4549ZM14.2473 22.3668L-10.7527 22.3349L-10.76 28.0649L-8.27099 33.2261L14.2473 22.3668ZM14.2573 14.5279L-5.34105 -0.993246L-10.7316 5.81335L-10.7427 14.496L14.2573 14.5279ZM14.3192 14.4497L-5.03015 -1.38073L-5.15589 -1.22704L-5.27918 -1.07137L14.3192 14.4497ZM14.4623 14.3328L3.6268 -8.19695L3.1504 -7.96783L2.68412 -7.71878L14.4623 14.3328ZM15.4816 14.4172L36.2435 0.490754L35.2051 -1.0573L33.9486 -2.43425L15.4816 14.4172ZM17.8934 18.0498L-3.02828 31.7349L-3.00228 31.7746L-2.97614 31.8143L17.8934 18.0498ZM21.8383 24.0268L42.6957 10.2439L42.693 10.2397L21.8383 24.0268ZM23.4239 26.4262L2.56648 40.2091L16.3803 61.1133L37.2535 47.2527L23.4239 26.4262ZM23.502 26.3743L37.3316 47.2008L37.3528 47.1868L37.374 47.1726L23.502 26.3743ZM25.5551 24.5712L6.7261 8.12523L6.69505 8.16078L6.66413 8.19645L25.5551 24.5712ZM27.9094 19.4605L3.17371 15.8346L3.17234 15.844L27.9094 19.4605ZM27.9094 16.5473L3.16775 20.1322L3.17071 20.1526L3.17371 20.1731L27.9094 16.5473ZM21.0702 8.4671L28.7506 -15.3239L28.6816 -15.3462L28.6125 -15.368L21.0702 8.4671ZM18.9903 8.03147L21.6328 -16.8285L21.5838 -16.8337L21.5349 -16.8387L18.9903 8.03147ZM17.346 8.00584L-5.01727 19.1811L2.71752 34.6595L19.9284 32.8721L17.346 8.00584ZM21.4371 14.0528L9.25989 35.8867L9.95661 36.2752L10.6767 36.6186L21.4371 14.0528ZM21.6352 14.2803L45.436 6.63048L45.3949 6.50252L45.3524 6.37502L21.6352 14.2803ZM21.6521 17.8679L46.652 17.9168L46.652 17.9083L46.6521 17.8998L21.6521 17.8679ZM21.6452 21.383L0.690104 35.0169L46.4809 105.397L46.6452 21.4319L21.6452 21.383ZM21.0271 20.433L41.9822 6.79905L41.9654 6.77322L41.9485 6.74744L21.0271 20.433ZM20.4052 19.4823H-4.59476V26.9328L-0.516193 33.1679L20.4052 19.4823ZM20.4209 14.3028L-3.64433 7.53036L-3.93185 8.55202L-4.13174 9.59437L20.4209 14.3028ZM20.6165 14.056L9.29211 -8.23212L8.68217 -7.92221L8.09009 -7.57941L20.6165 14.056ZM22.8427 26.7512L11.145 4.65678C10.6576 4.91481 9.64132 5.46979 8.44779 6.30677C7.9793 6.63531 6.60708 7.60907 5.09266 9.12724C4.42257 9.79899 2.74645 11.5341 1.20358 14.1751C0.293888 15.7323 -4.48085 24.0275 -0.928672 34.6895C3.295 47.3669 14.4623 50.635 18.0053 51.326C21.9692 52.099 25.1377 51.6997 26.1653 51.5599C28.6714 51.2188 30.547 50.5628 31.0757 50.3775C32.5637 49.8558 33.683 49.3028 34.1827 49.0486L22.8458 26.7669L11.5089 4.48514C11.973 4.24901 13.0648 3.70807 14.5339 3.19303C15.0531 3.01099 16.9215 2.35697 19.4225 2.01659C20.4475 1.87709 23.614 1.47778 27.5765 2.25059C31.1181 2.9413 42.2845 6.20874 46.5079 18.8853C50.0598 29.5464 45.2853 37.8404 44.3765 39.3962C42.8345 42.0358 41.1598 43.7691 40.4917 44.4388C38.9813 45.953 37.6155 46.9216 37.1557 47.244C35.9797 48.0687 34.9905 48.6073 34.5403 48.8457L22.8427 26.7512ZM22.8458 26.7669L32.2388 49.9352C35.3947 48.6557 37.9337 46.8845 39.8908 45.0723L22.9052 26.7287L5.91949 8.38515C7.84283 6.60418 10.3431 4.85928 13.4527 3.59854L22.8458 26.7669ZM22.9052 26.7287H47.9052C47.9052 26.7287 47.9052 26.7284 47.9052 26.7282C47.9052 26.7279 47.9052 26.7272 47.9052 26.7267C47.9052 26.7255 47.9052 26.7235 47.9052 26.721C47.9052 26.7162 47.9052 26.7081 47.9051 26.6981C47.9051 26.6788 47.9051 26.6452 47.9049 26.6033C47.9045 26.5244 47.9034 26.3766 47.8994 26.191C47.8925 25.8699 47.8717 25.1182 47.7738 24.1661C47.6621 23.0799 47.133 17.3041 42.8326 11.6267C37.1548 4.13093 29.0786 1.80125 23.237 1.72293C18.7006 1.66211 15.3116 2.88192 14.4299 3.19931C13.1363 3.66498 12.1679 4.13741 11.8101 4.31432C11.3687 4.53256 11.0282 4.71743 10.8868 4.79475C10.7248 4.88331 10.5976 4.95519 10.5533 4.98027C10.5248 4.9964 10.5015 5.00966 10.4885 5.01705C10.4759 5.02419 10.4643 5.03084 10.4621 5.03207L22.8427 26.7512L35.2232 48.4704C35.3257 48.4119 35.105 48.5389 34.8708 48.6669C34.7382 48.7394 34.405 48.9204 33.9697 49.1357C33.618 49.3096 32.6545 49.7798 31.3648 50.2441C30.487 50.5601 27.1009 51.7792 22.5667 51.7184C16.7273 51.6401 8.65258 49.3112 2.97581 41.8167C-1.32367 36.1406 -1.85222 30.3666 -1.96372 29.2828C-2.1233 27.7316 -2.09484 26.2962 -2.09484 26.7287H22.9052ZM22.9927 26.67L7.08763 7.38189C7.08704 7.38238 7.08328 7.38548 7.07915 7.38889C7.07477 7.3925 7.06758 7.39843 7.05886 7.40564C7.04309 7.41868 7.01104 7.44519 6.97109 7.47851C6.9224 7.5191 6.71027 7.69573 6.44718 7.92749C6.36493 7.99995 5.46067 8.78192 4.45349 9.89194C4.09561 10.2864 2.57291 11.9516 1.1697 14.4499C0.489953 15.6602 -0.959007 18.4413 -1.64811 22.3216C-2.38067 26.4466 -2.51333 33.7578 2.36402 40.854C7.10013 47.7446 13.6611 50.1813 17.2077 51.021C20.7154 51.8514 23.5788 51.7199 24.8774 51.6204C27.5492 51.4157 29.5678 50.8124 30.0775 50.6612C31.4577 50.2519 32.5117 49.8008 32.618 49.7563C32.9329 49.6247 33.178 49.5143 33.235 49.4887C33.2814 49.4678 33.3185 49.451 33.3368 49.4427C33.3469 49.4381 33.3552 49.4343 33.3603 49.432C33.3651 49.4298 33.3695 49.4278 33.3702 49.4275L22.9995 26.68L12.6288 3.93249C12.432 4.02223 12.877 3.81573 13.3331 3.62509C13.434 3.58292 14.4838 3.13336 15.8611 2.7249C16.3693 2.57417 18.3868 1.97114 21.0577 1.7665C22.3559 1.66703 25.219 1.53551 28.7264 2.36587C32.2728 3.20545 38.8336 5.64203 43.5696 12.5326C48.4468 19.6286 48.3141 26.9395 47.5816 31.0643C46.8926 34.9444 45.4437 37.7252 44.7642 38.9351C43.3614 41.4327 41.8393 43.0971 41.4825 43.4904C40.4773 44.5982 39.5762 45.3772 39.4983 45.4458C39.1175 45.7813 38.7262 46.0994 38.8977 45.9581L22.9927 26.67ZM22.9995 26.68L35.5968 48.2742C35.6791 48.2262 36.2538 47.8939 36.9455 47.4304C37.2037 47.2574 38.166 46.6135 39.2885 45.6533C39.788 45.2261 41.0693 44.1073 42.4355 42.4277C43.1276 41.5767 44.2829 40.0479 45.3549 37.9263C46.343 35.971 48.042 31.9904 48.042 26.6506H23.042H-1.95797C-1.95797 21.3113 -0.259066 17.3312 0.728673 15.3765C1.80038 13.2555 2.95522 11.7273 3.64676 10.8771C5.01181 9.19893 6.2913 8.08189 6.78859 7.65654C7.90668 6.7002 8.86253 6.0609 9.11296 5.8931C9.789 5.44011 10.3425 5.12066 10.4023 5.08579L22.9995 26.68ZM23.042 26.6506H48.042C48.042 25.6352 47.9893 23.4497 47.3413 20.77C46.7137 18.174 45.0698 13.2041 40.4905 8.74016C29.2027 -2.26319 15.7938 2.63159 13.9578 3.34676C10.8482 4.55807 8.71145 6.14515 8.41589 6.35781C7.7349 6.84779 7.22609 7.2676 7.07804 7.3898L22.9927 26.67L38.9073 45.9501C38.7789 46.0561 38.2861 46.4633 37.6181 46.9439C37.3355 47.1473 35.2086 48.7284 32.1064 49.9368C30.2779 50.6491 16.8739 55.544 5.58917 44.5437C1.01143 40.0813 -0.631333 35.1136 -1.25829 32.5205C-1.90551 29.8437 -1.95797 27.6618 -1.95797 26.6506H23.042ZM23.0902 26.6112L7.18513 7.32314C7.18451 7.32365 7.18073 7.32676 7.17657 7.3302C7.17217 7.33383 7.16496 7.33978 7.15621 7.34701C7.14038 7.36009 7.10828 7.38666 7.06826 7.42003C7.01945 7.46072 6.80715 7.63749 6.54386 7.86945C6.46146 7.94205 5.55678 8.72445 4.54919 9.83516C4.1911 10.2299 2.668 11.8959 1.26476 14.3955C0.58489 15.6065 -0.863634 18.3884 -1.55179 22.2695C-2.28344 26.3959 -2.41311 33.7042 2.46267 40.7969C7.19709 47.6839 13.7544 50.121 17.3012 50.9613C20.8087 51.7922 23.672 51.6613 24.9711 51.5619C27.6436 51.3576 29.6627 50.7544 30.1728 50.6031C31.5536 50.1938 32.6081 49.7425 32.7146 49.698C33.0298 49.5662 33.275 49.4558 33.3322 49.4301C33.3787 49.4092 33.4158 49.3924 33.4341 49.384C33.4443 49.3794 33.4526 49.3756 33.4578 49.3733C33.4626 49.3711 33.467 49.3691 33.4677 49.3687L23.097 26.6212L12.7263 3.87373C12.5297 3.96337 12.975 3.75678 13.4315 3.56596C13.5326 3.52371 14.5828 3.07401 15.9608 2.66549C16.4694 2.51471 18.4874 1.91174 21.159 1.70746C22.4577 1.60815 25.3207 1.47715 28.8279 2.30807C32.3744 3.14829 38.9316 5.58524 43.6659 12.4721C48.5416 19.5646 48.4119 26.8728 47.6803 30.9989C46.9922 34.8797 45.5438 37.6613 44.8641 38.872C43.4612 41.3708 41.9388 43.036 41.5817 43.4296C40.5761 44.5382 39.6746 45.3176 39.5966 45.3863C39.2154 45.7222 38.8239 46.0405 38.9952 45.8993L23.0902 26.6112ZM23.097 26.6212L35.4376 48.3631C36.0162 48.0347 36.7485 47.5892 37.5608 47.0148C37.8928 46.7801 38.7411 46.1722 39.7354 45.2894C40.1664 44.9066 41.2668 43.9117 42.4655 42.4507C43.0568 41.7301 44.1375 40.3376 45.1791 38.3922C46.0194 36.8227 48.1395 32.5411 48.1395 26.5912H23.1395H-1.86047C-1.86047 20.6417 0.259467 16.3606 1.09948 14.7917C2.14079 12.8468 3.22107 11.4549 3.81178 10.735C5.00934 9.27546 6.10805 8.28219 6.5369 7.90139C7.52681 7.02241 8.36883 6.41942 8.69313 6.19011C9.48998 5.62664 10.201 5.19462 10.7564 4.87935L23.097 26.6212ZM23.1395 26.5912H48.1395C48.1395 25.4875 48.0762 23.1455 47.3334 20.2909C46.5947 17.4518 44.7285 12.3786 39.856 7.99592C28.5148 -2.20511 15.6567 2.66456 14.0578 3.28721C11.0297 4.46638 8.94636 5.98999 8.59516 6.24054C7.88754 6.74537 7.35965 7.17908 7.17554 7.33105L23.0902 26.6112L39.0048 45.8914C38.8403 46.0271 38.3285 46.4482 37.6338 46.9438C37.2955 47.1851 35.2221 48.7029 32.2014 49.8791C30.6099 50.4989 17.7568 55.3687 6.41869 45.1704C1.54773 40.7892 -0.317336 35.718 -1.05537 32.8816C-1.79744 30.0297 -1.86047 27.691 -1.86047 26.5912H23.1395ZM23.1889 26.5531L7.28387 7.26501C7.28322 7.26555 7.27973 7.26843 7.27591 7.27158C7.27187 7.27492 7.26532 7.28032 7.25741 7.28686C7.24306 7.29871 7.21419 7.32259 7.17824 7.35253C7.13412 7.38928 6.94438 7.54711 6.70854 7.75342C6.63231 7.8201 5.82861 8.51186 4.91892 9.48297C4.59698 9.82664 3.22665 11.279 1.89253 13.4392C1.26384 14.4572 -0.178276 16.9227 -1.06645 20.4164C-1.93362 23.8276 -3.03889 31.4951 1.72354 39.4353C6.60048 47.5665 14.1433 50.2178 17.9657 51.0302C21.7131 51.8267 24.7383 51.5577 25.9732 51.4181C28.6082 51.12 30.5868 50.4536 31.0325 50.3059C32.3284 49.8763 33.3181 49.422 33.4074 49.3819C33.6981 49.2515 33.9244 49.1429 33.9767 49.1179C34.0195 49.0974 34.0537 49.0809 34.0706 49.0727C34.08 49.0682 34.0877 49.0644 34.0925 49.0621C34.097 49.06 34.1011 49.058 34.1018 49.0576L23.1945 26.5625L12.2872 4.06734C12.1049 4.15573 12.515 3.95374 12.9351 3.76522C13.0191 3.7275 14.0049 3.27489 15.2979 2.84619C15.7422 2.69889 17.7197 2.03277 20.354 1.73483C21.5885 1.59521 24.6134 1.32625 28.3606 2.12268C32.1828 2.93505 39.7254 5.5863 44.6022 13.7173C49.3646 21.6573 48.2593 29.3247 47.3922 32.7356C46.5041 36.2291 45.0621 38.6943 44.4336 39.7119C43.0999 41.8715 41.7303 43.3229 41.4094 43.6655C40.5017 44.6345 39.7012 45.3232 39.6294 45.3861C39.2886 45.6842 38.9402 45.9679 39.0939 45.8412L23.1889 26.5531ZM23.1945 26.5625L35.0829 48.5549C35.6403 48.2536 36.4507 47.7891 37.3791 47.1514C37.7574 46.8916 38.763 46.1915 39.9257 45.1486C40.4495 44.6789 41.689 43.5371 42.9999 41.8448C43.3353 41.4119 48.237 35.5709 48.237 26.5331H23.237H-1.76298C-1.76298 21.392 -0.185053 17.5434 0.729362 15.652C1.72795 13.5866 2.80928 12.081 3.47235 11.225C4.78216 9.53419 6.02 8.39415 6.54154 7.92639C7.69996 6.88741 8.69925 6.19209 9.06977 5.93758C9.98271 5.3105 10.7719 4.85885 11.3061 4.57007L23.1945 26.5625ZM23.237 26.5331H48.237C48.237 25.4246 48.1726 23.1033 47.4417 20.2745C46.7193 17.4783 44.8881 12.4325 40.071 8.04409C28.6872 -2.32646 15.7046 2.61211 13.9864 3.29561C10.901 4.523 8.79262 6.10685 8.42826 6.37405C7.70408 6.90512 7.16552 7.3615 6.97006 7.52813L23.1889 26.5531L39.4077 45.5781C39.2313 45.7284 38.7083 46.1722 37.9967 46.6941C37.645 46.952 35.5462 48.53 32.4681 49.7545C30.7572 50.4351 17.7795 55.3738 6.39878 45.006C1.58316 40.619 -0.246963 35.5753 -0.968679 32.7818C-1.69884 29.9557 -1.76298 27.6377 -1.76298 26.5331H23.237ZM23.322 26.465L9.41008 5.69341C8.96519 5.99137 8.35547 6.41945 7.6642 6.97237C7.656 6.97893 5.29546 8.75832 3.15373 11.656C2.5452 12.4794 1.07079 14.5532 -0.0835218 17.5609C-0.951571 19.8227 -3.81 28.1759 0.84254 37.5934C6.10261 48.2408 15.9742 50.7633 19.9048 51.2953C23.9261 51.8396 27.083 51.2525 28.181 51.0321C30.7323 50.52 32.6135 49.7121 33.0838 49.5115C33.8629 49.179 34.4732 48.8716 34.8269 48.6876L23.2926 26.5075L11.7584 4.3273C12.0965 4.15148 12.6938 3.85023 13.4626 3.52223C13.9225 3.32602 15.7958 2.52078 18.3416 2.00981C19.4369 1.78997 22.5916 1.20303 26.6113 1.74711C30.5403 2.27892 40.4109 4.80084 45.6705 15.4472C50.3226 24.8639 47.4642 33.2157 46.5968 35.4759C45.4431 38.482 43.9698 40.5539 43.363 41.375C42.0181 43.1945 40.7267 44.4078 40.3236 44.7841C39.7331 45.3352 39.2253 45.7547 38.8956 46.0185C38.226 46.5541 37.6448 46.9614 37.234 47.2365L23.322 26.465ZM23.2926 26.5075L36.3423 47.8313C37.5172 47.1123 38.4317 46.42 39.0244 45.9437C39.2256 45.7819 40.159 45.0372 41.2196 43.9579C41.5324 43.6396 42.0545 43.0923 42.6525 42.3697C43.101 41.8277 44.3543 40.287 45.5296 38.0482C46.1202 36.923 47.1344 34.7961 47.7809 31.9327C48.4007 29.1873 49.1047 23.876 46.8447 17.7603C41.0945 2.20044 25.9943 1.42559 23.3933 1.42559V26.4256V51.4256C20.7938 51.4256 5.69448 50.6512 -0.055335 35.0921C-2.31522 28.9769 -1.61124 23.6661 -0.991537 20.9213C-0.345205 18.0585 0.668673 15.9323 1.25892 14.8079C2.43338 12.5707 3.68529 11.032 4.13195 10.4923C4.72806 9.77191 5.24782 9.22712 5.55784 8.91165C6.6073 7.84376 7.52257 7.11466 7.70233 6.97019C8.25205 6.5284 9.10995 5.87701 10.243 5.1836L23.2926 26.5075ZM23.3933 26.4256L14.6745 2.9952C12.5705 3.77815 11.0523 4.67369 10.5558 4.96966C10.3608 5.08585 10.0652 5.26829 10.2559 5.15118C10.31 5.11799 10.6869 4.8852 11.1798 4.6113L23.3214 26.465L35.4629 48.3186C35.9672 48.0385 36.3553 47.7989 36.4208 47.7587C36.6228 47.6346 36.3387 47.8099 36.1556 47.919C35.6827 48.2009 34.1892 49.083 32.112 49.856L23.3933 26.4256ZM23.3214 26.465V51.465H23.322V26.465V1.46497H23.3214V26.465ZM17.3453 8.00459L15.6369 -16.937C15.5062 -16.928 15.4011 -16.9198 15.3514 -16.9159C15.2931 -16.9112 15.2436 -16.9071 15.2109 -16.9044C15.148 -16.8991 15.0892 -16.894 15.0607 -16.8916C15.0176 -16.8878 15.008 -16.887 14.9833 -16.8849C14.9647 -16.8833 14.9613 -16.883 14.9666 -16.8834L17.0428 8.03022L19.1191 32.9439C19.1843 32.9384 19.2431 32.9334 19.2853 32.9297C19.3071 32.9278 19.3272 32.9261 19.3434 32.9247C19.3621 32.9231 19.3712 32.9223 19.3832 32.9212C19.3938 32.9203 19.3983 32.9199 19.3996 32.9198C19.4013 32.9197 19.3938 32.9203 19.3805 32.9214C19.3735 32.922 19.3631 32.9229 19.35 32.924C19.3371 32.925 19.319 32.9265 19.2969 32.9282C19.2752 32.9299 19.2447 32.9323 19.2077 32.9351C19.1888 32.9365 19.1667 32.9382 19.1417 32.94C19.1169 32.9418 19.0873 32.9439 19.0537 32.9462L17.3453 8.00459ZM17.0428 8.03022L14.7872 -16.8678C4.60228 -15.9451 -4.61797 -10.564 -10.4794 -2.36802L9.85557 12.1747L30.1905 26.7174C27.7002 30.1995 23.7986 32.5206 19.2985 32.9283L17.0428 8.03022ZM9.85557 12.1747L-10.4203 -2.45027C-13.7197 2.12394 -15.8487 7.41643 -16.6514 12.9608L8.09062 16.5429L32.8327 20.125C32.4862 22.518 31.5671 24.8092 30.1314 26.7996L9.85557 12.1747ZM8.09062 16.5429L-16.645 12.9171C-16.95 14.9974 -17 16.4284 -17 18.001H8H33C33 17.8424 33.0008 17.8683 32.9992 17.9628C32.9971 18.0817 32.9907 18.3672 32.967 18.7478C32.9131 19.6159 32.8114 20.2703 32.8263 20.1687L8.09062 16.5429ZM8 18.001H-17C-17 19.5814 -16.9491 21.0077 -16.645 23.0819L8.09062 19.4561L32.8263 15.8302C32.8101 15.7195 32.9125 16.3766 32.9667 17.2471C32.9905 17.63 32.9971 17.9173 32.9992 18.0375C33.0008 18.133 33 18.1597 33 18.001H8ZM8.09062 19.4561L-16.651 23.041C-14.7316 36.2881 -5.39799 47.2459 7.25316 51.3278L14.9298 27.5356L22.6064 3.74341C28.0128 5.48779 32.0016 10.138 32.8323 15.8712L8.09062 19.4561ZM14.9298 27.5356L7.32578 51.3511C9.69561 52.1078 11.9989 52.5642 14.2294 52.8168L17.0428 27.9756L19.8563 3.13444C20.5306 3.21081 21.4677 3.3797 22.5338 3.7201L14.9298 27.5356ZM17.0428 27.9756L14.3721 52.8326C16.1214 53.0205 17.966 53 17.9994 53C18.0328 53 19.8773 53.0205 21.6266 52.8326L18.9559 27.9756L16.2852 3.11869C16.7029 3.07381 17.0305 3.04985 17.2004 3.03836C17.3904 3.0255 17.5408 3.01781 17.6342 3.01345C17.8163 3.00496 17.9392 3.00189 17.9743 3.00105C18.0491 2.99926 18.0529 3 17.9994 3C17.9458 3 17.9497 2.99926 18.0245 3.00105C18.0595 3.00189 18.1824 3.00496 18.3646 3.01345C18.458 3.01781 18.6084 3.0255 18.7984 3.03836C18.9682 3.04985 19.2959 3.07381 19.7136 3.11869L17.0428 27.9756ZM18.9559 27.9756L21.727 52.8216C25.8366 52.3632 29.9128 51.2345 33.919 49.1912L22.5602 26.9206L11.2014 4.65005C11.9708 4.2576 12.8551 3.89526 13.8203 3.61285C14.7723 3.33428 15.5891 3.19612 16.1848 3.12968L18.9559 27.9756ZM22.5602 26.9206L33.87 49.216C33.9788 49.1609 34.2995 48.9981 34.6858 48.7862C34.9211 48.6571 35.9975 48.0719 37.2558 47.1731C37.899 46.7137 39.1314 45.7923 40.4914 44.421C41.7097 43.1925 44.2419 40.4096 45.9772 36.0473C48.0071 30.9443 48.5716 24.5198 46.1822 18.0898C44.0944 12.4714 40.574 9.11609 38.798 7.628L22.742 26.7906L6.68606 45.9532C4.91582 44.47 1.39954 41.1196 -0.686327 35.5065C-3.07376 29.0819 -2.50937 22.663 -0.481915 17.5662C1.25088 13.2102 3.77823 10.4342 4.9889 9.21338C6.34123 7.84973 7.56331 6.93688 8.19314 6.48698C9.42462 5.60732 10.462 5.0455 10.6434 4.94601C10.9759 4.76367 11.2278 4.63657 11.2503 4.62516L22.5602 26.9206ZM22.742 26.7906L42.666 11.6897C42.2056 11.0823 41.7351 10.4499 41.2266 9.7609L21.1115 24.6062L0.996356 39.4515C1.56904 40.2274 2.17853 41.0476 2.81812 41.8915L22.742 26.7906ZM21.1115 24.6062L41.2029 9.72892L39.6049 7.57075L19.5134 22.448L-0.578075 37.3253L1.02 39.4834L21.1115 24.6062ZM19.5134 22.448L40.2347 8.46131L38.2329 5.49563L17.5116 19.4823L-3.20972 33.469L-1.20791 36.4347L19.5134 22.448ZM17.5116 19.4823L38.2567 5.53102C37.5676 4.50637 36.8228 3.40507 36.0444 2.2814L15.4935 16.5173L-5.0574 30.7531C-4.47457 31.5945 -3.87944 32.4732 -3.23357 33.4336L17.5116 19.4823ZM15.4935 16.5173V-8.48273C2.25764 -8.48273 -4.26587 1.09459 -5.27567 2.60172C-7.10211 5.32769 -7.94115 7.77109 -8.20314 8.55032C-8.8416 10.4493 -9.098 12.0022 -9.15601 12.3449C-9.33314 13.391 -9.40174 14.2223 -9.41554 14.3831C-9.46182 14.9222 -9.47989 15.3487 -9.48356 15.4321C-9.49594 15.7129 -9.50111 15.9407 -9.50248 16.0001C-9.50655 16.1765 -9.50877 16.342 -9.50996 16.4381C-9.5127 16.6592 -9.51493 16.9308 -9.51679 17.2116C-9.52061 17.7877 -9.52386 18.5565 -9.52579 19.3846L15.4741 19.443L40.4741 19.5013C40.4759 18.7219 40.4789 18.0278 40.4821 17.543C40.4838 17.2933 40.4852 17.1349 40.4862 17.0586C40.4868 17.006 40.4865 17.0559 40.4842 17.154C40.4837 17.1742 40.4795 17.3721 40.468 17.6328C40.4647 17.7062 40.4471 18.1251 40.4013 18.6591C40.3877 18.8174 40.3193 19.6467 40.1424 20.6916C40.0845 21.0336 39.8282 22.5861 39.1899 24.4847C38.9279 25.2638 38.0889 27.7071 36.2625 30.4329C35.2528 31.94 28.7293 41.5173 15.4935 41.5173V16.5173ZM15.4741 19.443L-9.52578 19.3819C-9.52948 20.8955 -9.53117 21.4237 -9.53399 21.6303C-9.53781 21.9094 -9.53842 21.2232 -9.46778 20.3417C-9.43216 19.8971 -9.31655 18.5207 -8.91768 16.7904C-8.69416 15.8207 -8.37182 14.6888 -7.89781 13.4556C-7.41002 12.1864 -6.89606 11.1606 -6.4918 10.4229L15.4316 22.438L37.3551 34.4531C38.4129 32.5229 39.2636 30.3685 39.8045 28.0219C40.2102 26.2619 40.3317 24.8439 40.3725 24.3354C40.4533 23.3262 40.4598 22.4232 40.4613 22.3136C40.4691 21.7429 40.4709 20.8061 40.4741 19.504L15.4741 19.443ZM15.4316 22.438L-7.31524 12.066C-5.24529 7.52636 -1.35575 2.76673 4.73625 -0.0600986L15.2591 22.6174L25.782 45.2949C32.0303 42.3955 36.0373 37.5059 38.1785 32.8101L15.4316 22.438ZM15.2591 22.6174L4.53693 0.0334592C5.67269 -0.505768 7.19293 -1.12124 9.04446 -1.59243C10.7211 -2.0191 12.1042 -2.18212 12.9158 -2.25462C13.6919 -2.32395 14.288 -2.33824 14.4797 -2.34244C14.6069 -2.34522 14.7041 -2.34619 14.7555 -2.34658C14.8085 -2.34699 14.8424 -2.34698 14.846 -2.34698V22.653V47.653C14.9751 47.653 15.2498 47.6527 15.5735 47.6456C15.8607 47.6393 16.53 47.6216 17.3647 47.5471C19.7707 47.3321 22.7824 46.7201 25.9814 45.2013L15.2591 22.6174ZM14.846 22.653V-2.34698H14.5079V22.653V47.653H14.846V22.653ZM14.5079 22.653L27.7448 1.44486L27.6566 1.38986L14.4198 22.598L1.18296 43.8062L1.27108 43.8612L14.5079 22.653ZM14.4198 22.598L28.0115 1.61548C31.448 3.84155 34.5187 7.05557 36.6025 11.1791L14.2898 22.4549L-8.02292 33.7306C-5.88032 37.9705 -2.71842 41.2832 0.82814 43.5806L14.4198 22.598ZM14.2898 22.4549L36.8081 11.5955L36.7656 11.5074L14.2473 22.3668L-8.27099 33.2261L-8.2285 33.3143L14.2898 22.4549ZM14.2573 14.5279L33.8557 30.049L33.9175 29.9708L14.3192 14.4497L-5.27918 -1.07137L-5.34105 -0.993246L14.2573 14.5279ZM14.3192 14.4497L33.6685 30.2802C31.526 32.899 28.962 34.9308 26.2405 36.3845L14.4623 14.3328L2.68412 -7.71878C-0.147436 -6.2064 -2.80887 -4.09577 -5.03015 -1.38073L14.3192 14.4497ZM14.4623 14.3328L25.2978 36.8626C25.0235 36.9946 23.6937 37.6415 21.8915 38.1976C20.0135 38.7771 18.3929 39.0314 17.2514 39.1535C16.2593 39.2596 15.4943 39.2774 15.2917 39.2821C15.037 39.288 14.8597 39.2872 14.9148 39.2872V14.2872V-10.7128C14.8008 -10.7128 14.4927 -10.7128 14.1342 -10.7045C13.8278 -10.6974 12.9863 -10.6755 11.9335 -10.5629C8.34506 -10.1791 5.53091 -9.11272 3.6268 -8.19695L14.4623 14.3328ZM14.9148 14.2872V39.2872C14.8936 39.2872 14.7898 39.2872 14.642 39.2848C14.4985 39.2825 14.2272 39.2766 13.8793 39.2588C13.3299 39.2307 11.7212 39.1376 9.69844 38.6719C7.34965 38.1311 4.57863 37.1266 1.79135 35.317C-0.767368 33.6558 -2.40383 31.9059 -2.9853 31.2687L15.4816 14.4172L33.9486 -2.43425C31.6658 -4.9359 27.4278 -8.55419 20.9173 -10.0532C18.8155 -10.5372 17.1094 -10.6413 16.4329 -10.6759C15.6913 -10.7139 15.0745 -10.7128 14.9148 -10.7128V14.2872ZM15.4816 14.4172L-5.28018 28.3437C-4.49043 29.5211 -3.74479 30.6395 -3.02828 31.7349L17.8934 18.0498L38.8152 4.36471C37.943 3.03131 37.0737 1.72843 36.2435 0.490754L15.4816 14.4172ZM17.8934 18.0498L-2.97614 31.8143C-1.6778 33.7828 0.103187 36.482 0.983668 37.8139L21.8383 24.0268L42.693 10.2397C41.8298 8.934 40.0634 6.25689 38.763 4.28533L17.8934 18.0498ZM21.8383 24.0268L0.980903 37.8097L2.56648 40.2091L23.4239 26.4262L44.2813 12.6433L42.6957 10.2439L21.8383 24.0268ZM23.4239 26.4262L37.2535 47.2527L37.3316 47.2008L23.502 26.3743L9.67244 5.54785L9.59431 5.59973L23.4239 26.4262ZM23.502 26.3743L37.374 47.1726C39.9287 45.4687 42.326 43.3917 44.446 40.9459L25.5551 24.5712L6.66413 8.19645C7.58793 7.13068 8.59901 6.26374 9.63008 5.57604L23.502 26.3743ZM25.5551 24.5712L44.3841 41.0171C48.8025 35.9584 51.6736 29.7308 52.6464 23.0769L27.9094 19.4605L3.17234 15.844C3.59139 12.9777 4.82754 10.2989 6.7261 8.12523L25.5551 24.5712ZM27.9094 19.4605L52.6451 23.0863C52.9501 21.0052 53 19.5733 53 18.0023H28H3C3 18.1607 2.99921 18.1348 3.00082 18.0402C3.00285 17.9213 3.00933 17.6361 3.03293 17.256C3.08676 16.3886 3.18829 15.7352 3.17371 15.8346L27.9094 19.4605ZM28 18.0023H53C53 16.4205 52.949 14.9951 52.6451 12.9214L27.9094 16.5473L3.17371 20.1731C3.19024 20.2859 3.08765 19.6279 3.03334 18.7565C3.00945 18.3732 3.00289 18.0856 3.00084 17.9655C2.9992 17.87 3 17.8434 3 18.0023H28ZM27.9094 16.5473L52.651 12.9624C50.7315 -0.285289 41.398 -11.241 28.7506 -15.3239L21.0702 8.4671L13.3899 32.2581C7.9872 30.514 3.99853 25.8659 3.16775 20.1322L27.9094 16.5473ZM21.0702 8.4671L28.6125 -15.368C26.3524 -16.0832 24.0145 -16.5753 21.6328 -16.8285L18.9903 8.03147L16.3478 32.8914C15.3772 32.7883 14.4331 32.5887 13.5279 32.3022L21.0702 8.4671ZM18.9903 8.03147L21.5349 -16.8387C20.7288 -16.9212 20.0452 -16.9484 20.0113 -16.9499C19.789 -16.9601 19.5886 -16.9668 19.4457 -16.9712C19.15 -16.9803 18.8438 -16.987 18.573 -16.9915C18.3069 -16.9959 17.9834 -16.9998 17.6614 -17C17.509 -17.0001 17.269 -16.9995 16.9948 -16.9944C16.8598 -16.992 16.6377 -16.987 16.3692 -16.976C16.2062 -16.9694 15.5673 -16.9439 14.7636 -16.8604L17.346 8.00584L19.9284 32.8721C19.4777 32.9189 19.1183 32.9436 18.9222 32.9558C18.7052 32.9693 18.5277 32.9775 18.4091 32.9823C18.1774 32.9918 17.9999 32.9955 17.9162 32.9971C17.7445 33.0002 17.6337 33 17.6282 33C17.6002 33 17.642 32.9999 17.7431 33.0016C17.7854 33.0023 17.8255 33.0031 17.8593 33.0039C17.8947 33.0047 17.9107 33.0052 17.9069 33.0051C17.9043 33.005 17.8899 33.0046 17.8656 33.0037C17.843 33.0028 17.7967 33.0011 17.7325 32.9981C17.6756 32.9955 17.5574 32.9899 17.4013 32.9803C17.2974 32.9738 16.9271 32.9509 16.4457 32.9016L18.9903 8.03147ZM17.346 8.00584L39.7092 -3.1694L39.7086 -3.17065L17.3453 8.00459L-5.01789 19.1798L-5.01727 19.1811L17.346 8.00584ZM21.4371 14.0528L10.6767 36.6186C4.2405 33.5495 -0.110604 28.1002 -2.08201 22.1857L21.6352 14.2803L45.3524 6.37502C43.316 0.265509 38.8224 -5.35386 32.1975 -8.51293L21.4371 14.0528ZM21.6352 14.2803L-2.16563 21.9302C-2.5905 20.6083 -2.81138 19.5356 -2.9078 19.0378C-3.0213 18.4518 -3.0924 17.9712 -3.13391 17.6669C-3.21561 17.0679 -3.25758 16.5939 -3.27624 16.3689C-3.31536 15.8972 -3.33126 15.5343 -3.33617 15.4198C-3.34301 15.2601 -3.34644 15.1397 -3.34793 15.0838C-3.3496 15.0208 -3.3504 14.9777 -3.35067 14.9622C-3.35117 14.9341 -3.34979 15.0131 -3.34863 15.2827C-3.34647 15.7886 -3.34634 16.6077 -3.34791 17.836L21.6521 17.8679L46.6521 17.8998C46.6536 16.68 46.6537 15.7315 46.6509 15.0688C46.6496 14.7541 46.6472 14.3985 46.6415 14.0754C46.639 13.9374 46.6332 13.6339 46.618 13.2785C46.6114 13.1245 46.5937 12.7305 46.5527 12.2359C46.533 11.9994 46.4901 11.5161 46.4074 10.9097C46.3798 10.7076 46.1517 8.85725 45.436 6.63048L21.6352 14.2803ZM21.6521 17.8679L-3.34788 17.819L-3.35475 21.3341L21.6452 21.383L46.6452 21.4319L46.652 17.9168L21.6521 17.8679ZM21.6452 21.383L42.6003 7.74906L41.9822 6.79905L21.0271 20.433L0.0719967 34.0669L0.690104 35.0169L21.6452 21.383ZM21.0271 20.433L41.9485 6.74744L41.3267 5.7968L20.4052 19.4823L-0.516193 33.1679L0.10566 34.1185L21.0271 20.433ZM20.4052 19.4823H45.4052V16.9304H20.4052H-4.59476V19.4823H20.4052ZM20.4052 16.9304H45.4052C45.4052 16.129 45.4069 15.5418 45.4093 15.1715C45.4098 15.0814 45.4104 15.0117 45.4109 14.9603C45.4114 14.9061 45.4117 14.8866 45.4116 14.8931C45.4116 14.8971 45.4112 14.9177 45.4105 14.9509C45.4099 14.98 45.4084 15.0472 45.4056 15.1383C45.4036 15.2034 45.3969 15.4129 45.3819 15.6877C45.3747 15.8185 45.3587 16.0949 45.3286 16.446C45.3133 16.6241 45.2872 16.9073 45.2459 17.2549C45.2247 17.4332 45.1952 17.665 45.1555 17.9355C45.1171 18.1973 45.0584 18.5684 44.9735 19.0113L20.4209 14.3028L-4.13174 9.59437C-4.39382 10.961 -4.47936 12.0667 -4.48851 12.1734C-4.51916 12.5308 -4.53572 12.8152 -4.54341 12.9557C-4.55951 13.2499 -4.56718 13.4856 -4.57023 13.5837C-4.57719 13.8073 -4.58054 14.0028 -4.58218 14.1069C-4.58589 14.3426 -4.58815 14.6055 -4.58973 14.8551C-4.59301 15.3737 -4.59476 16.0774 -4.59476 16.9304H20.4052ZM20.4209 14.3028L44.4861 21.0753C42.6228 27.6961 38.2581 32.7297 33.1429 35.6913L20.6165 14.056L8.09009 -7.57941C2.78487 -4.50781 -1.72236 0.700871 -3.64433 7.53036L20.4209 14.3028ZM20.6165 14.056L31.9409 36.344C31.5379 36.5488 30.1149 37.27 28.1688 37.8818C26.165 38.5118 24.4453 38.7714 23.2773 38.8906C22.2692 38.9936 21.4899 39.0069 21.3262 39.01C21.1045 39.0142 20.9423 39.0135 21.0333 39.0135V14.0135V-10.9865C20.9697 -10.9865 20.6877 -10.9869 20.371 -10.9809C20.1122 -10.9759 19.2626 -10.9594 18.1986 -10.8507C14.4818 -10.4713 11.4822 -9.34485 9.29211 -8.23212L20.6165 14.056ZM21.0333 14.0135V39.0135C21.1092 39.0135 20.9569 39.0141 20.7458 39.0102C20.5839 39.0072 19.888 38.995 18.9847 38.9103C18.0147 38.8193 16.3363 38.6059 14.3196 38.0116C12.1313 37.3666 10.418 36.5325 9.25989 35.8867L21.4371 14.0528L33.6143 -7.78099C30.1317 -9.72331 26.6586 -10.5894 23.654 -10.8712C22.6941 -10.9612 21.9275 -10.9765 21.673 -10.9812C21.3691 -10.9868 21.1021 -10.9865 21.0333 -10.9865V14.0135ZM14.2473 22.3668L39.2473 22.3987L39.2573 14.5597L14.2573 14.5279L-10.7427 14.496L-10.7527 22.3349L14.2473 22.3668Z" fill="black" mask="url(#path-2-inside-1_471_293)"/>
<path d="M47.3374 11.6364V24H45.6229L39.3384 14.9325H39.2237V24H37.3583V11.6364H39.0849L45.3754 20.7159H45.4901V11.6364H47.3374ZM53.9101 24.1871C52.9965 24.1871 52.2097 23.992 51.5496 23.6016C50.8936 23.2071 50.3865 22.6538 50.0283 21.9414C49.6742 21.225 49.4971 20.3859 49.4971 19.424C49.4971 18.4742 49.6742 17.6371 50.0283 16.9126C50.3865 16.1882 50.8856 15.6228 51.5255 15.2163C52.1694 14.8098 52.922 14.6065 53.7833 14.6065C54.3065 14.6065 54.8136 14.6931 55.3046 14.8661C55.7956 15.0392 56.2363 15.3108 56.6267 15.6811C57.0171 16.0514 57.325 16.5323 57.5503 17.1239C57.7757 17.7115 57.8884 18.4259 57.8884 19.267V19.907H50.5173V18.5547H56.1196C56.1196 18.0798 56.023 17.6592 55.8298 17.293C55.6366 16.9227 55.365 16.6309 55.0148 16.4176C54.6687 16.2043 54.2622 16.0977 53.7954 16.0977C53.2883 16.0977 52.8456 16.2224 52.4672 16.4719C52.093 16.7174 51.8032 17.0394 51.5979 17.4379C51.3967 17.8323 51.2961 18.2609 51.2961 18.7237V19.7802C51.2961 20.4 51.4047 20.9272 51.6221 21.3619C51.8434 21.7965 52.1513 22.1286 52.5457 22.358C52.9401 22.5833 53.401 22.696 53.9282 22.696C54.2703 22.696 54.5822 22.6477 54.8639 22.5511C55.1456 22.4505 55.3891 22.3016 55.5944 22.1044C55.7996 21.9072 55.9566 21.6637 56.0653 21.3739L57.7737 21.6818C57.6369 22.1849 57.3914 22.6256 57.0372 23.0039C56.6871 23.3782 56.2464 23.67 55.7151 23.8793C55.1879 24.0845 54.5862 24.1871 53.9101 24.1871ZM61.1001 14.7273L63.1466 18.3374L65.2112 14.7273H67.1853L64.2936 19.3636L67.2094 24H65.2354L63.1466 20.5348L61.0638 24H59.0837L61.9694 19.3636L59.1199 14.7273H61.1001ZM73.3671 14.7273V16.1761H68.3021V14.7273H73.3671ZM69.6604 12.5057H71.4655V21.2773C71.4655 21.6275 71.5178 21.8911 71.6224 22.0682C71.7271 22.2412 71.8619 22.36 72.0269 22.4244C72.1959 22.4847 72.3791 22.5149 72.5763 22.5149C72.7211 22.5149 72.8479 22.5049 72.9566 22.4847C73.0653 22.4646 73.1498 22.4485 73.2101 22.4364L73.5361 23.9276C73.4315 23.9678 73.2826 24.008 73.0894 24.0483C72.8962 24.0926 72.6547 24.1167 72.365 24.1207C71.8901 24.1288 71.4474 24.0443 71.0368 23.8672C70.6263 23.6901 70.2943 23.4164 70.0407 23.0462C69.7872 22.6759 69.6604 22.2111 69.6604 21.6516V12.5057ZM80.3141 11.6364H82.1735V20.402C82.1735 21.1948 82.0165 21.873 81.7026 22.4364C81.3927 22.9999 80.956 23.4305 80.3926 23.7283C79.8291 24.0221 79.1691 24.169 78.4125 24.169C77.7162 24.169 77.0904 24.0423 76.535 23.7887C75.9836 23.5352 75.5469 23.1669 75.225 22.6839C74.907 22.197 74.748 21.6054 74.748 20.9091H76.6014C76.6014 21.2512 76.6799 21.547 76.8368 21.7965C76.9978 22.046 77.2172 22.2412 77.4949 22.3821C77.7766 22.5189 78.0985 22.5874 78.4608 22.5874C78.8552 22.5874 79.1892 22.5049 79.4629 22.3398C79.7406 22.1708 79.9519 21.9233 80.0968 21.5973C80.2417 21.2713 80.3141 20.8729 80.3141 20.402V11.6364ZM91.6318 14.8842C91.5674 14.3127 91.3018 13.87 90.835 13.5561C90.3681 13.2382 89.7805 13.0792 89.0722 13.0792C88.5651 13.0792 88.1264 13.1597 87.7561 13.3207C87.3859 13.4776 87.0981 13.695 86.8928 13.9727C86.6916 14.2463 86.591 14.5582 86.591 14.9084C86.591 15.2022 86.6594 15.4557 86.7963 15.669C86.9371 15.8823 87.1202 16.0614 87.3456 16.2063C87.575 16.3472 87.8205 16.4659 88.0821 16.5625C88.3437 16.6551 88.5953 16.7315 88.8367 16.7919L90.0441 17.1058C90.4385 17.2024 90.843 17.3332 91.2575 17.4982C91.6721 17.6632 92.0564 17.8806 92.4106 18.1502C92.7648 18.4199 93.0505 18.7539 93.2678 19.1523C93.4892 19.5508 93.5999 20.0277 93.5999 20.5831C93.5999 21.2834 93.4188 21.9052 93.0566 22.4485C92.6984 22.9918 92.1772 23.4205 91.493 23.7344C90.8128 24.0483 89.9898 24.2053 89.0239 24.2053C88.0982 24.2053 87.2973 24.0584 86.6212 23.7646C85.945 23.4708 85.4158 23.0542 85.0335 22.5149C84.6511 21.9716 84.4398 21.3277 84.3996 20.5831H86.271C86.3073 21.0298 86.4521 21.4021 86.7057 21.6999C86.9633 21.9937 87.2913 22.2131 87.6897 22.358C88.0922 22.4988 88.5329 22.5692 89.0118 22.5692C89.539 22.5692 90.0079 22.4867 90.4184 22.3217C90.8329 22.1527 91.1589 21.9193 91.3964 21.6214C91.6338 21.3196 91.7526 20.9674 91.7526 20.565C91.7526 20.1987 91.6479 19.8989 91.4387 19.6655C91.2334 19.4321 90.9537 19.2389 90.5995 19.0859C90.2494 18.933 89.853 18.7982 89.4102 18.6815L87.9493 18.283C86.9593 18.0134 86.1744 17.617 85.5949 17.0938C85.0194 16.5705 84.7316 15.8783 84.7316 15.017C84.7316 14.3047 84.9248 13.6829 85.3112 13.1516C85.6975 12.6204 86.2207 12.2079 86.8808 11.9141C87.5408 11.6162 88.2854 11.4673 89.1144 11.4673C89.9516 11.4673 90.6901 11.6142 91.33 11.908C91.9739 12.2018 92.481 12.6063 92.8513 13.1214C93.2216 13.6326 93.4147 14.2202 93.4308 14.8842H91.6318Z" fill="black"/>
</svg>
