<svg width="20" height="20" viewBox="0 0 20 20" fill="none" xmlns="http://www.w3.org/2000/svg">
<mask id="path-1-inside-1_155_888" fill="white">
<path d="M14.8427 18.7512C14.7683 18.7906 14.7745 18.8031 14.8458 18.7669C14.8689 18.7575 14.8883 18.7444 14.9052 18.7287C14.9052 18.7156 14.9052 18.7156 14.8427 18.7512ZM14.9927 18.67C14.957 18.6994 14.957 18.6994 14.9995 18.68C15.022 18.6669 15.042 18.6543 15.042 18.6506C15.042 18.6337 15.032 18.6375 14.9927 18.67ZM15.0902 18.6112C15.0545 18.6406 15.0545 18.6406 15.097 18.6212C15.1202 18.6081 15.1395 18.5943 15.1395 18.5912C15.1395 18.5756 15.1295 18.5787 15.0902 18.6112ZM15.1889 18.5531C15.1533 18.5825 15.1533 18.5825 15.1945 18.5625C15.2176 18.55 15.237 18.5368 15.237 18.5331C15.237 18.5175 15.227 18.5206 15.1889 18.5531ZM15.322 18.465C15.2539 18.5106 15.2301 18.54 15.2926 18.5075C15.3345 18.4818 15.4058 18.4256 15.3933 18.4256C15.3664 18.4356 15.3439 18.4525 15.3214 18.465H15.322ZM9.34533 0.00459386C9.29971 0.00771893 9.16284 0.0202192 9.04284 0.0302194C6.20043 0.287725 3.54114 1.81776 1.85557 4.17468C0.923721 5.46658 0.31874 6.96724 0.0906222 8.54289C0.00999969 9.0929 0 9.25541 0 10.001C0 10.7461 0.00999969 10.9061 0.0906222 11.4561C0.63498 15.213 3.3074 18.3668 6.92978 19.5356C7.58164 19.7437 8.26474 19.8875 9.04284 19.9756C9.34533 20.0081 10.6534 20.0081 10.9559 19.9756C12.3009 19.8256 13.4365 19.4937 14.5602 18.9206C14.7327 18.8331 14.7652 18.81 14.742 18.7906C14.1921 18.065 13.6521 17.3387 13.1115 16.6062L11.5134 14.448L9.51158 11.4823C8.8441 10.4898 8.17412 9.49979 7.49352 8.51727C7.48664 8.51727 7.47789 9.83542 7.47414 11.443C7.46727 14.2586 7.46727 14.373 7.43164 14.438C7.39602 14.5161 7.33727 14.5811 7.25915 14.6174C7.19728 14.6468 7.14165 14.653 6.84604 14.653H6.50792L6.4198 14.598C6.3648 14.5624 6.31918 14.513 6.2898 14.4549L6.24731 14.3668L6.2573 6.52785L6.31918 6.44973C6.35855 6.4016 6.4073 6.36222 6.4623 6.33285C6.54417 6.29347 6.57667 6.28722 6.91478 6.28722C7.31165 6.28722 7.37727 6.30285 7.48164 6.41722C8.29162 7.62475 9.09909 8.8354 9.89344 10.0498C11.1928 12.0198 12.9665 14.708 13.8383 16.0268L15.4239 18.4262L15.502 18.3743C16.2639 17.8662 16.957 17.2612 17.5551 16.5712C18.815 15.1287 19.6325 13.3542 19.9094 11.4605C19.99 10.9104 20 10.7473 20 10.0023C20 9.25666 19.99 9.09728 19.9094 8.54727C19.365 4.79032 16.6926 1.6365 13.0702 0.467103C12.3927 0.252724 11.6959 0.106471 10.9903 0.0314694C10.8009 0.012094 9.50845 -0.0110315 9.34596 0.00584389L9.34533 0.00459386ZM13.4371 6.05284C13.5315 6.09784 13.6027 6.18285 13.6352 6.28035C13.6521 6.33285 13.6552 7.41975 13.6521 9.86792L13.6452 13.383L13.0271 12.433L12.4052 11.4823V8.9304C12.4052 7.27599 12.4121 6.34847 12.4209 6.30285C12.4502 6.19847 12.5215 6.11097 12.6165 6.05597C12.694 6.01659 12.724 6.01347 13.0333 6.01347C13.3227 6.01347 13.3721 6.01659 13.4371 6.05284Z"/>
</mask>
<path d="M14.8427 18.7512L26.5403 40.8457L26.8847 40.6633L27.2232 40.4704L14.8427 18.7512ZM14.8458 18.7669L5.45274 -4.40146L4.46186 -3.99973L3.50889 -3.51486L14.8458 18.7669ZM14.9052 18.7287L31.8908 37.0723L39.9052 29.6512V18.7287H14.9052ZM14.9927 18.67L30.8977 37.9581L30.9073 37.9501L14.9927 18.67ZM14.9995 18.68L25.3702 41.4275L26.5125 40.9067L27.5968 40.2742L14.9995 18.68ZM15.0902 18.6112L30.9952 37.8993L31.0048 37.8914L15.0902 18.6112ZM15.097 18.6212L25.4677 41.3687L26.475 40.9095L27.4376 40.3631L15.097 18.6212ZM15.1889 18.5531L31.0939 37.8412L31.2519 37.7109L31.4077 37.5781L15.1889 18.5531ZM15.1945 18.5625L26.1018 41.0576L26.5979 40.8171L27.0829 40.5549L15.1945 18.5625ZM15.322 18.465L29.234 39.2365L97.5743 -6.53503L15.322 -6.53503V18.465ZM15.2926 18.5075L26.8269 40.6876L27.5995 40.2859L28.3423 39.8313L15.2926 18.5075ZM15.3933 18.4256V-6.57441H10.8926L6.67453 -5.0048L15.3933 18.4256ZM15.3214 18.465L3.17984 -3.3887L-81.1524 43.465H15.3214V18.465ZM9.34533 0.00459386L31.7086 -11.1706L24.2603 -26.0756L7.63692 -24.937L9.34533 0.00459386ZM9.04284 0.0302194L6.9666 -24.8834L6.87689 -24.8759L6.78723 -24.8678L9.04284 0.0302194ZM1.85557 4.17468L22.1314 18.7996L22.1611 18.7586L22.1905 18.7174L1.85557 4.17468ZM0.0906222 8.54289L24.8263 12.1687L24.8295 12.1468L24.8327 12.125L0.0906222 8.54289ZM0.0906222 11.4561L24.8323 7.87117L24.8293 7.8507L24.8263 7.83024L0.0906222 11.4561ZM6.92978 19.5356L-0.746843 43.3278L-0.71055 43.3395L-0.674222 43.3511L6.92978 19.5356ZM9.04284 19.9756L6.22936 44.8168L6.30072 44.8249L6.37212 44.8326L9.04284 19.9756ZM10.9559 19.9756L13.6266 44.8326L13.6768 44.8272L13.727 44.8216L10.9559 19.9756ZM14.5602 18.9206L3.2503 -3.37484L3.22582 -3.36242L3.20136 -3.34995L14.5602 18.9206ZM14.742 18.7906L-5.18188 33.8915L-3.47717 36.1407L-1.31394 37.9532L14.742 18.7906ZM13.1115 16.6062L33.2266 1.7609L33.2148 1.7449L33.2029 1.72892L13.1115 16.6062ZM11.5134 14.448L-9.20791 28.4347L-8.90271 28.8869L-8.57808 29.3253L11.5134 14.448ZM9.51158 11.4823L-11.2336 25.4336L-11.2217 25.4513L-11.2097 25.469L9.51158 11.4823ZM7.49352 8.51727L28.0444 -5.7186L20.588 -16.4827H7.49352V8.51727ZM7.47414 11.443L32.4741 11.504L32.4741 11.5013L7.47414 11.443ZM7.43164 14.438L-14.4918 2.4229L-14.9337 3.22929L-15.3152 4.06597L7.43164 14.438ZM7.25915 14.6174L-3.26375 -8.0601L-3.36362 -8.01376L-3.46307 -7.96654L7.25915 14.6174ZM6.50792 14.653L-6.72892 35.8612L-0.653605 39.653H6.50792V14.653ZM6.4198 14.598L-7.17186 35.5806L-6.9954 35.6949L-6.81704 35.8062L6.4198 14.598ZM6.2898 14.4549L-16.2285 25.3143L-16.1276 25.5234L-16.0229 25.7306L6.2898 14.4549ZM6.24731 14.3668L-18.7527 14.3349L-18.76 20.0649L-16.271 25.2261L6.24731 14.3668ZM6.2573 6.52785L-13.341 -8.99325L-18.7316 -2.18665L-18.7427 6.49596L6.2573 6.52785ZM6.31918 6.44973L-13.0302 -9.38073L-13.1559 -9.22704L-13.2792 -9.07137L6.31918 6.44973ZM6.4623 6.33285L-4.3732 -16.197L-4.8496 -15.9678L-5.31588 -15.7188L6.4623 6.33285ZM7.48164 6.41722L28.2435 -7.50925L27.2051 -9.0573L25.9486 -10.4342L7.48164 6.41722ZM9.89344 10.0498L-11.0283 23.7349L-11.0023 23.7746L-10.9761 23.8143L9.89344 10.0498ZM13.8383 16.0268L34.6957 2.2439L34.693 2.23971L13.8383 16.0268ZM15.4239 18.4262L-5.43352 32.2091L8.38028 53.1133L29.2535 39.2527L15.4239 18.4262ZM15.502 18.3743L29.3316 39.2008L29.3528 39.1868L29.374 39.1726L15.502 18.3743ZM17.5551 16.5712L-1.2739 0.125226L-1.30495 0.160777L-1.33587 0.196446L17.5551 16.5712ZM19.9094 11.4605L-4.82629 7.83461L-4.82766 7.84397L19.9094 11.4605ZM19.9094 8.54727L-4.83225 12.1322L-4.82929 12.1526L-4.82629 12.1731L19.9094 8.54727ZM13.0702 0.467103L20.7506 -23.3239L20.6816 -23.3462L20.6125 -23.368L13.0702 0.467103ZM10.9903 0.0314694L13.6328 -24.8285L13.5838 -24.8337L13.5349 -24.8387L10.9903 0.0314694ZM9.34596 0.00584389L-13.0173 11.1811L-5.28248 26.6595L11.9284 24.8721L9.34596 0.00584389ZM13.4371 6.05284L1.25989 27.8867L1.95661 28.2752L2.67669 28.6186L13.4371 6.05284ZM13.6352 6.28035L37.436 -1.36952L37.3949 -1.49748L37.3524 -1.62498L13.6352 6.28035ZM13.6521 9.86792L38.652 9.91681L38.652 9.90832L38.6521 9.89983L13.6521 9.86792ZM13.6452 13.383L-7.3099 27.0169L38.481 97.3966L38.6452 13.4319L13.6452 13.383ZM13.0271 12.433L33.9822 -1.20095L33.9654 -1.22678L33.9485 -1.25256L13.0271 12.433ZM12.4052 11.4823H-12.5948V18.9328L-8.51619 25.1679L12.4052 11.4823ZM12.4209 6.30285L-11.6443 -0.469641L-11.9318 0.55202L-12.1317 1.59437L12.4209 6.30285ZM12.6165 6.05597L1.29211 -16.2321L0.68217 -15.9222L0.0900904 -15.5794L12.6165 6.05597ZM14.8427 18.7512L3.145 -3.34322C2.65763 -3.08519 1.64132 -2.53021 0.447792 -1.69323C-0.0207026 -1.36469 -1.39292 -0.390931 -2.90734 1.12724C-3.57743 1.79899 -5.25355 3.53407 -6.79642 6.17513C-7.70611 7.73233 -12.4809 16.0275 -8.92867 26.6895C-4.705 39.3669 6.4623 42.635 10.0053 43.326C13.9692 44.099 17.1377 43.6997 18.1653 43.5599C20.6714 43.2188 22.547 42.5628 23.0757 42.3775C24.5637 41.8558 25.683 41.3028 26.1827 41.0486L14.8458 18.7669L3.50889 -3.51486C3.97298 -3.75099 5.06479 -4.29194 6.5339 -4.80697C7.05315 -4.98901 8.92146 -5.64303 11.4225 -5.98341C12.4475 -6.12291 15.614 -6.52222 19.5765 -5.74941C23.1181 -5.0587 34.2845 -1.79126 38.5079 10.8853C42.0598 21.5464 37.2853 29.8404 36.3765 31.3962C34.8345 34.0358 33.1598 35.7691 32.4917 36.4388C30.9813 37.953 29.6155 38.9216 29.1557 39.244C27.9797 40.0687 26.9905 40.6073 26.5403 40.8457L14.8427 18.7512ZM14.8458 18.7669L24.2388 41.9352C27.3947 40.6557 29.9337 38.8845 31.8908 37.0723L14.9052 18.7287L-2.08051 0.385146C-0.157167 -1.39582 2.34309 -3.14072 5.45274 -4.40146L14.8458 18.7669ZM14.9052 18.7287H39.9052C39.9052 18.7287 39.9052 18.7284 39.9052 18.7282C39.9052 18.7279 39.9052 18.7272 39.9052 18.7267C39.9052 18.7255 39.9052 18.7235 39.9052 18.721C39.9052 18.7162 39.9052 18.7081 39.9051 18.6981C39.9051 18.6788 39.9051 18.6452 39.9049 18.6033C39.9045 18.5244 39.9034 18.3766 39.8994 18.191C39.8925 17.8699 39.8717 17.1182 39.7738 16.1661C39.6621 15.0799 39.133 9.3041 34.8326 3.62666C29.1548 -3.86907 21.0786 -6.19875 15.237 -6.27707C10.7006 -6.33789 7.3116 -5.11808 6.4299 -4.80069C5.1363 -4.33502 4.16793 -3.86259 3.8101 -3.68568C3.36868 -3.46744 3.02823 -3.28257 2.88678 -3.20524C2.7248 -3.11669 2.59761 -3.04481 2.55329 -3.01973C2.52478 -3.0036 2.50146 -2.99034 2.48846 -2.98295C2.47592 -2.97581 2.46426 -2.96916 2.4621 -2.96793L14.8427 18.7512L27.2232 40.4704C27.3257 40.4119 27.105 40.5389 26.8708 40.6669C26.7382 40.7394 26.405 40.9204 25.9697 41.1357C25.618 41.3095 24.6545 41.7798 23.3648 42.2441C22.487 42.5601 19.1009 43.7792 14.5667 43.7184C8.72731 43.6401 0.652584 41.3112 -5.02419 33.8167C-9.32367 28.1406 -9.85222 22.3666 -9.96372 21.2828C-10.1233 19.7316 -10.0948 18.2962 -10.0948 18.7287H14.9052ZM14.9927 18.67L-0.912371 -0.618106C-0.912956 -0.617623 -0.91672 -0.614519 -0.920854 -0.611108C-0.925231 -0.607497 -0.932418 -0.601566 -0.941139 -0.594357C-0.95691 -0.581321 -0.988959 -0.554806 -1.02891 -0.521491C-1.0776 -0.480897 -1.28973 -0.304274 -1.55282 -0.0725128C-1.63507 -4.97908e-05 -2.53933 0.781921 -3.54651 1.89194C-3.90439 2.28635 -5.42709 3.95159 -6.8303 6.44992C-7.51005 7.66018 -8.95901 10.4413 -9.64811 14.3216C-10.3807 18.4466 -10.5133 25.7578 -5.63598 32.854C-0.899874 39.7446 5.66107 42.1813 9.20771 43.021C12.7154 43.8514 15.5788 43.7199 16.8774 43.6204C19.5492 43.4157 21.5678 42.8124 22.0775 42.6612C23.4577 42.2519 24.5117 41.8008 24.618 41.7563C24.9329 41.6247 25.178 41.5143 25.235 41.4887C25.2814 41.4678 25.3185 41.451 25.3368 41.4427C25.3469 41.4381 25.3552 41.4343 25.3603 41.432C25.3651 41.4298 25.3695 41.4278 25.3702 41.4275L14.9995 18.68L4.62882 -4.06751C4.43197 -3.97777 4.87703 -4.18427 5.33307 -4.37491C5.43395 -4.41708 6.48377 -4.86664 7.86108 -5.2751C8.36932 -5.42583 10.3868 -6.02886 13.0577 -6.2335C14.3559 -6.33297 17.219 -6.46449 20.7264 -5.63413C24.2728 -4.79455 30.8336 -2.35797 35.5696 4.53255C40.4468 11.6286 40.3141 18.9395 39.5816 23.0643C38.8926 26.9444 37.4437 29.7252 36.7642 30.9351C35.3613 33.4327 33.8393 35.0971 33.4825 35.4904C32.4773 36.5982 31.5762 37.3772 31.4983 37.4458C31.1175 37.7813 30.7262 38.0994 30.8977 37.9581L14.9927 18.67ZM14.9995 18.68L27.5968 40.2742C27.6791 40.2262 28.2538 39.8939 28.9455 39.4304C29.2037 39.2574 30.166 38.6135 31.2885 37.6533C31.788 37.2261 33.0693 36.1073 34.4355 34.4277C35.1276 33.5767 36.2829 32.0479 37.3549 29.9263C38.343 27.971 40.042 23.9904 40.042 18.6506H15.042H-9.95797C-9.95797 13.3113 -8.25907 9.3312 -7.27133 7.37646C-6.19962 5.25555 -5.04478 3.72734 -4.35324 2.87715C-2.98819 1.19893 -1.7087 0.0818915 -1.21141 -0.343456C-0.093324 -1.2998 0.862528 -1.9391 1.11296 -2.1069C1.789 -2.55989 2.34249 -2.87934 2.40227 -2.91421L14.9995 18.68ZM15.042 18.6506H40.042C40.042 17.6352 39.9893 15.4497 39.3413 12.77C38.7137 10.174 37.0698 5.20406 32.4905 0.740155C21.2027 -10.2632 7.79379 -5.36841 5.95783 -4.65324C2.84823 -3.44193 0.711455 -1.85485 0.415886 -1.64219C-0.265098 -1.15221 -0.773911 -0.7324 -0.921957 -0.610197L14.9927 18.67L30.9073 37.9501C30.7789 38.0561 30.2861 38.4633 29.6181 38.9439C29.3355 39.1473 27.2086 40.7284 24.1064 41.9368C22.2779 42.6491 8.87385 47.544 -2.41083 36.5437C-6.98857 32.0813 -8.63133 27.1136 -9.25829 24.5205C-9.90551 21.8437 -9.95797 19.6618 -9.95797 18.6506H15.042ZM15.0902 18.6112L-0.814875 -0.67686C-0.815489 -0.676353 -0.819265 -0.673239 -0.82343 -0.669803C-0.827833 -0.66617 -0.835044 -0.660218 -0.843793 -0.652987C-0.859619 -0.639906 -0.891724 -0.613344 -0.931744 -0.579974C-0.980552 -0.539276 -1.19285 -0.36251 -1.45614 -0.130546C-1.53854 -0.0579517 -2.44322 0.724455 -3.45081 1.83516C-3.8089 2.22989 -5.332 3.89595 -6.73524 6.39552C-7.41511 7.60655 -8.86363 10.3884 -9.55179 14.2695C-10.2834 18.3959 -10.4131 25.7042 -5.53733 32.7969C-0.802909 39.6839 5.75444 42.121 9.3012 42.9613C12.8087 43.7922 15.672 43.6613 16.9711 43.5619C19.6436 43.3576 21.6627 42.7544 22.1728 42.6031C23.5536 42.1938 24.6081 41.7425 24.7145 41.698C25.0298 41.5662 25.275 41.4558 25.3322 41.4301C25.3787 41.4092 25.4158 41.3924 25.4341 41.384C25.4443 41.3794 25.4526 41.3756 25.4577 41.3733C25.4626 41.3711 25.467 41.3691 25.4677 41.3687L15.097 18.6212L4.72632 -4.12627C4.5297 -4.03663 4.97496 -4.24322 5.43148 -4.43404C5.53255 -4.47629 6.58283 -4.92599 7.96078 -5.33451C8.46938 -5.48529 10.4874 -6.08826 13.159 -6.29254C14.4577 -6.39185 17.3207 -6.52285 20.8279 -5.69193C24.3744 -4.85171 30.9316 -2.41476 35.6659 4.47213C40.5416 11.5646 40.4119 18.8728 39.6803 22.9989C38.9922 26.8797 37.5438 29.6613 36.8641 30.872C35.4612 33.3708 33.9388 35.036 33.5817 35.4296C32.5761 36.5382 31.6746 37.3176 31.5966 37.3864C31.2154 37.7222 30.8239 38.0405 30.9952 37.8993L15.0902 18.6112ZM15.097 18.6212L27.4376 40.3631C28.0162 40.0347 28.7485 39.5892 29.5608 39.0148C29.8928 38.7801 30.7411 38.1722 31.7354 37.2894C32.1664 36.9066 33.2668 35.9117 34.4655 34.4507C35.0568 33.7301 36.1375 32.3376 37.1791 30.3922C38.0194 28.8227 40.1395 24.5411 40.1395 18.5912H15.1395H-9.86047C-9.86047 12.6417 -7.74053 8.3606 -6.90052 6.79167C-5.85921 4.84677 -4.77893 3.45493 -4.18822 2.735C-2.99066 1.27546 -1.89195 0.282185 -1.4631 -0.09861C-0.473191 -0.977591 0.36883 -1.58058 0.693127 -1.80989C1.48998 -2.37336 2.20095 -2.80538 2.75641 -3.12065L15.097 18.6212ZM15.1395 18.5912H40.1395C40.1395 17.4875 40.0762 15.1455 39.3334 12.2909C38.5947 9.4518 36.7285 4.3786 31.856 -0.00407621C20.5148 -10.2051 7.65671 -5.33544 6.05777 -4.71279C3.02974 -3.53362 0.946361 -2.01001 0.595164 -1.75946C-0.112456 -1.25463 -0.640352 -0.820921 -0.824461 -0.668951L15.0902 18.6112L31.0048 37.8914C30.8403 38.0271 30.3285 38.4482 29.6338 38.9438C29.2955 39.1851 27.2221 40.7029 24.2014 41.8791C22.6099 42.4989 9.75675 47.3687 -1.58131 37.1704C-6.45227 32.7892 -8.31734 27.718 -9.05537 24.8816C-9.79744 22.0297 -9.86047 19.691 -9.86047 18.5912H15.1395ZM15.1889 18.5531L-0.716127 -0.734986C-0.716783 -0.734445 -0.72027 -0.73157 -0.724093 -0.728416C-0.728131 -0.725085 -0.734678 -0.719682 -0.742594 -0.71314C-0.756936 -0.701288 -0.785812 -0.677406 -0.821758 -0.647469C-0.865885 -0.610719 -1.05562 -0.452889 -1.29146 -0.24658C-1.36769 -0.179896 -2.17139 0.51186 -3.08108 1.48297C-3.40302 1.82664 -4.77335 3.27898 -6.10747 5.4392C-6.73616 6.45718 -8.17828 8.92272 -9.06645 12.4164C-9.93362 15.8276 -11.0389 23.4951 -6.27646 31.4353C-1.39952 39.5665 6.14327 42.2178 9.9657 43.0302C13.7131 43.8267 16.7383 43.5577 17.9732 43.4181C20.6082 43.12 22.5868 42.4536 23.0325 42.3059C24.3284 41.8763 25.3181 41.422 25.4074 41.3819C25.6981 41.2515 25.9244 41.1429 25.9767 41.1179C26.0195 41.0974 26.0537 41.0809 26.0706 41.0727C26.08 41.0682 26.0877 41.0644 26.0925 41.0621C26.097 41.06 26.1011 41.058 26.1018 41.0576L15.1945 18.5625L4.28723 -3.93266C4.10494 -3.84427 4.51501 -4.04626 4.93509 -4.23478C5.01912 -4.2725 6.00488 -4.72511 7.29793 -5.15381C7.74222 -5.30111 9.71975 -5.96723 12.354 -6.26517C13.5885 -6.40479 16.6134 -6.67375 20.3606 -5.87732C24.1828 -5.06495 31.7254 -2.4137 36.6022 5.71727C41.3646 13.6573 40.2593 21.3247 39.3922 24.7356C38.5041 28.2291 37.0621 30.6943 36.4336 31.7119C35.0999 33.8715 33.7303 35.3229 33.4094 35.6655C32.5017 36.6345 31.7012 37.3232 31.6294 37.3861C31.2886 37.6842 30.9402 37.9679 31.0939 37.8412L15.1889 18.5531ZM15.1945 18.5625L27.0829 40.5549C27.6403 40.2536 28.4507 39.7891 29.3791 39.1514C29.7574 38.8916 30.763 38.1915 31.9257 37.1486C32.4495 36.6789 33.689 35.5371 34.9999 33.8448C35.3353 33.4119 40.237 27.5709 40.237 18.5331H15.237H-9.76298C-9.76298 13.392 -8.18505 9.54336 -7.27064 7.65203C-6.27205 5.5866 -5.19072 4.08102 -4.52765 3.22504C-3.21784 1.53419 -1.98 0.394151 -1.45846 -0.0736121C-0.300038 -1.11259 0.699247 -1.80791 1.06977 -2.06242C1.98271 -2.6895 2.7719 -3.14115 3.30613 -3.42993L15.1945 18.5625ZM15.237 18.5331H40.237C40.237 17.4246 40.1726 15.1033 39.4417 12.2745C38.7193 9.47833 36.8881 4.4325 32.071 0.0440939C20.6872 -10.3265 7.70458 -5.38789 5.9864 -4.70439C2.90103 -3.477 0.79262 -1.89315 0.428258 -1.62595C-0.295916 -1.09488 -0.83448 -0.638498 -1.02994 -0.471868L15.1889 18.5531L31.4077 37.5781C31.2313 37.7284 30.7083 38.1722 29.9967 38.6941C29.645 38.952 27.5462 40.53 24.4681 41.7545C22.7572 42.4351 9.77946 47.3738 -1.60122 37.006C-6.41684 32.619 -8.24696 27.5753 -8.96868 24.7818C-9.69884 21.9557 -9.76298 19.6377 -9.76298 18.5331H15.237ZM15.322 18.465L1.41008 -2.30659C0.965191 -2.00863 0.355471 -1.58055 -0.335795 -1.02763C-0.344002 -1.02107 -2.70454 0.75832 -4.84627 3.65604C-5.4548 4.47937 -6.92921 6.55318 -8.08352 9.56091C-8.95157 11.8227 -11.81 20.1759 -7.15746 29.5934C-1.89739 40.2408 7.97418 42.7633 11.9048 43.2953C15.9261 43.8396 19.083 43.2525 20.181 43.0321C22.7323 42.52 24.6135 41.7121 25.0838 41.5115C25.8629 41.179 26.4732 40.8716 26.8269 40.6876L15.2926 18.5075L3.75836 -3.6727C4.09646 -3.84852 4.69381 -4.14977 5.46258 -4.47777C5.92248 -4.67398 7.7958 -5.47922 10.3416 -5.99019C11.4369 -6.21003 14.5916 -6.79697 18.6113 -6.25289C22.5403 -5.72108 32.4109 -3.19916 37.6705 7.44723C42.3226 16.8639 39.4642 25.2157 38.5968 27.4759C37.4431 30.482 35.9698 32.5539 35.363 33.375C34.0181 35.1945 32.7267 36.4078 32.3236 36.7841C31.7331 37.3352 31.2253 37.7547 30.8956 38.0185C30.226 38.5541 29.6448 38.9614 29.234 39.2365L15.322 18.465ZM15.2926 18.5075L28.3423 39.8313C29.5172 39.1123 30.4317 38.42 31.0244 37.9437C31.2256 37.7819 32.159 37.0372 33.2196 35.9579C33.5324 35.6396 34.0545 35.0923 34.6525 34.3697C35.101 33.8277 36.3543 32.287 37.5296 30.0482C38.1202 28.923 39.1344 26.7961 39.7809 23.9327C40.4007 21.1873 41.1047 15.876 38.8447 9.76034C33.0945 -5.79956 17.9943 -6.57441 15.3933 -6.57441V18.4256V43.4256C12.7938 43.4256 -2.30552 42.6512 -8.05533 27.0921C-10.3152 20.9769 -9.61124 15.6661 -8.99154 12.9213C-8.34521 10.0585 -7.33133 7.93232 -6.74108 6.80794C-5.56662 4.5707 -4.31471 3.03199 -3.86805 2.49226C-3.27194 1.77191 -2.75218 1.22712 -2.44216 0.911653C-1.3927 -0.156239 -0.477425 -0.885338 -0.297667 -1.02981C0.252053 -1.4716 1.10995 -2.12299 2.24304 -2.8164L15.2926 18.5075ZM15.3933 18.4256L6.67453 -5.0048C4.57046 -4.22185 3.05232 -3.32631 2.55577 -3.03034C2.36084 -2.91415 2.06522 -2.73171 2.25593 -2.84882C2.30998 -2.88201 2.68685 -3.1148 3.17984 -3.3887L15.3214 18.465L27.4629 40.3186C27.9672 40.0385 28.3553 39.7989 28.4208 39.7587C28.6228 39.6346 28.3387 39.8099 28.1556 39.919C27.6827 40.2009 26.1892 41.083 24.112 41.856L15.3933 18.4256ZM15.3214 18.465V43.465H15.322V18.465V-6.53503H15.3214V18.465ZM9.34533 0.00459386L7.63692 -24.937C7.50621 -24.928 7.40109 -24.9198 7.35145 -24.9159C7.29308 -24.9112 7.24356 -24.9071 7.21088 -24.9044C7.14795 -24.8991 7.08917 -24.894 7.06072 -24.8916C7.01764 -24.8878 7.00798 -24.887 6.98331 -24.8849C6.96473 -24.8833 6.96134 -24.883 6.9666 -24.8834L9.04284 0.0302194L11.1191 24.9439C11.1843 24.9384 11.2431 24.9334 11.2853 24.9297C11.3071 24.9278 11.3272 24.9261 11.3434 24.9247C11.3621 24.9231 11.3712 24.9223 11.3832 24.9212C11.3938 24.9203 11.3983 24.9199 11.3996 24.9198C11.4013 24.9197 11.3938 24.9203 11.3805 24.9214C11.3735 24.922 11.3631 24.9229 11.35 24.924C11.3371 24.925 11.319 24.9265 11.2969 24.9282C11.2752 24.9299 11.2447 24.9323 11.2077 24.9351C11.1888 24.9365 11.1667 24.9382 11.1417 24.94C11.1169 24.9418 11.0873 24.9439 11.0537 24.9462L9.34533 0.00459386ZM9.04284 0.0302194L6.78723 -24.8678C-3.39772 -23.9451 -12.618 -18.564 -18.4794 -10.368L1.85557 4.17468L22.1905 18.7174C19.7002 22.1995 15.7986 24.5206 11.2985 24.9283L9.04284 0.0302194ZM1.85557 4.17468L-18.4203 -10.4503C-21.7197 -5.87606 -23.8487 -0.583571 -24.6514 4.96083L0.0906222 8.54289L24.8327 12.125C24.4862 14.518 23.5671 16.8092 22.1314 18.7996L1.85557 4.17468ZM0.0906222 8.54289L-24.645 4.91706C-24.95 6.99738 -25 8.42836 -25 10.001H0H25C25 9.84241 25.0008 9.86829 24.9992 9.96279C24.9971 10.0817 24.9907 10.3672 24.967 10.7478C24.9131 11.6159 24.8114 12.2703 24.8263 12.1687L0.0906222 8.54289ZM0 10.001H-25C-25 11.5814 -24.9491 13.0077 -24.645 15.0819L0.0906222 11.4561L24.8263 7.83024C24.8101 7.71953 24.9125 8.37656 24.9667 9.24712C24.9905 9.62996 24.9971 9.91732 24.9992 10.0375C25.0008 10.133 25 10.1597 25 10.001H0ZM0.0906222 11.4561L-24.651 15.041C-22.7316 28.2881 -13.398 39.2459 -0.746843 43.3278L6.92978 19.5356L14.6064 -4.25659C20.0128 -2.51221 24.0016 2.138 24.8323 7.87117L0.0906222 11.4561ZM6.92978 19.5356L-0.674222 43.3511C1.69561 44.1078 3.99888 44.5642 6.22936 44.8168L9.04284 19.9756L11.8563 -4.86556C12.5306 -4.78919 13.4677 -4.6203 14.5338 -4.2799L6.92978 19.5356ZM9.04284 19.9756L6.37212 44.8326C8.12143 45.0205 9.96596 45 9.99938 45C10.0328 45 11.8773 45.0205 13.6266 44.8326L10.9559 19.9756L8.28519 -4.88131C8.70289 -4.92619 9.03053 -4.95015 9.20036 -4.96164C9.3904 -4.9745 9.54077 -4.98219 9.63416 -4.98655C9.81634 -4.99504 9.93923 -4.99811 9.97429 -4.99895C10.0491 -5.00074 10.0529 -5 9.99938 -5C9.94584 -5 9.94966 -5.00074 10.0245 -4.99895C10.0595 -4.99811 10.1824 -4.99504 10.3646 -4.98655C10.458 -4.98219 10.6084 -4.9745 10.7984 -4.96164C10.9682 -4.95015 11.2959 -4.92619 11.7136 -4.88131L9.04284 19.9756ZM10.9559 19.9756L13.727 44.8216C17.8366 44.3632 21.9128 43.2345 25.919 41.1912L14.5602 18.9206L3.20136 -3.34995C3.97081 -3.7424 4.85512 -4.10475 5.82025 -4.38715C6.77231 -4.66572 7.58906 -4.80388 8.18484 -4.87032L10.9559 19.9756ZM14.5602 18.9206L25.87 41.216C25.9788 41.1609 26.2995 40.9981 26.6858 40.7862C26.9211 40.6571 27.9975 40.0719 29.2558 39.1731C29.899 38.7137 31.1314 37.7923 32.4914 36.421C33.7097 35.1925 36.2419 32.4096 37.9772 28.0473C40.0071 22.9443 40.5716 16.5198 38.1822 10.0898C36.0944 4.4714 32.574 1.11609 30.798 -0.372002L14.742 18.7906L-1.31394 37.9532C-3.08418 36.47 -6.60046 33.1196 -8.68633 27.5065C-11.0738 21.0819 -10.5094 14.663 -8.48192 9.56622C-6.74912 5.21021 -4.22177 2.4342 -3.0111 1.21338C-1.65877 -0.150274 -0.436691 -1.06312 0.19314 -1.51302C1.42462 -2.39268 2.46197 -2.9545 2.64339 -3.05399C2.97588 -3.23633 3.22781 -3.36343 3.2503 -3.37484L14.5602 18.9206ZM14.742 18.7906L34.666 3.6897C34.2056 3.08228 33.7351 2.44995 33.2266 1.7609L13.1115 16.6062L-7.00364 31.4515C-6.43096 32.2274 -5.82147 33.0476 -5.18188 33.8915L14.742 18.7906ZM13.1115 16.6062L33.2029 1.72892L31.6049 -0.42925L11.5134 14.448L-8.57808 29.3253L-6.98 31.4834L13.1115 16.6062ZM11.5134 14.448L32.2347 0.461313L30.2329 -2.50437L9.51158 11.4823L-11.2097 25.469L-9.20791 28.4347L11.5134 14.448ZM9.51158 11.4823L30.2567 -2.46898C29.5676 -3.49363 28.8228 -4.59493 28.0444 -5.7186L7.49352 8.51727L-13.0574 22.7531C-12.4746 23.5945 -11.8794 24.4732 -11.2336 25.4336L9.51158 11.4823ZM7.49352 8.51727V-16.4827C-5.74236 -16.4827 -12.2659 -6.90541 -13.2757 -5.39828C-15.1021 -2.67231 -15.9411 -0.228915 -16.2031 0.550325C-16.8416 2.44926 -17.098 4.00225 -17.156 4.34488C-17.3331 5.39105 -17.4017 6.22227 -17.4155 6.38307C-17.4618 6.92217 -17.4799 7.34867 -17.4836 7.43208C-17.4959 7.71293 -17.5011 7.94072 -17.5025 8.00008C-17.5066 8.17655 -17.5088 8.34201 -17.51 8.43805C-17.5127 8.65919 -17.5149 8.93078 -17.5168 9.21161C-17.5206 9.7877 -17.5239 10.5565 -17.5258 11.3846L7.47414 11.443L32.4741 11.5013C32.4759 10.7219 32.4789 10.0278 32.4821 9.54296C32.4838 9.29331 32.4852 9.13489 32.4862 9.05864C32.4868 9.00598 32.4865 9.05591 32.4842 9.15401C32.4837 9.17419 32.4795 9.37209 32.468 9.63285C32.4647 9.70621 32.4471 10.1251 32.4013 10.6591C32.3877 10.8174 32.3193 11.6467 32.1424 12.6916C32.0845 13.0336 31.8282 14.5861 31.1899 16.4847C30.9279 17.2638 30.0889 19.707 28.2625 22.4329C27.2528 23.94 20.7293 33.5173 7.49352 33.5173V8.51727ZM7.47414 11.443L-17.5258 11.3819C-17.5295 12.8955 -17.5312 13.4237 -17.534 13.6303C-17.5378 13.9094 -17.5384 13.2232 -17.4678 12.3417C-17.4322 11.8971 -17.3166 10.5207 -16.9177 8.79037C-16.6942 7.82071 -16.3718 6.68884 -15.8978 5.45555C-15.41 4.18642 -14.8961 3.16055 -14.4918 2.4229L7.43164 14.438L29.3551 26.4531C30.4129 24.5229 31.2636 22.3685 31.8045 20.0219C32.2102 18.2619 32.3317 16.8439 32.3725 16.3354C32.4533 15.3262 32.4598 14.4232 32.4613 14.3136C32.4691 13.7429 32.4709 12.8061 32.4741 11.504L7.47414 11.443ZM7.43164 14.438L-15.3152 4.06597C-13.2453 -0.473641 -9.35574 -5.23327 -3.26375 -8.0601L7.25915 14.6174L17.782 37.2949C24.0303 34.3956 28.0373 29.5059 30.1785 24.8101L7.43164 14.438ZM7.25915 14.6174L-3.46307 -7.96654C-2.32731 -8.50577 -0.80707 -9.12124 1.04446 -9.59243C2.72107 -10.0191 4.10418 -10.1821 4.91579 -10.2546C5.69194 -10.324 6.28796 -10.3382 6.47972 -10.3424C6.6069 -10.3452 6.70411 -10.3462 6.7555 -10.3466C6.80851 -10.347 6.84238 -10.347 6.84604 -10.347V14.653V39.653C6.97507 39.653 7.24975 39.6527 7.57347 39.6456C7.86074 39.6393 8.52996 39.6216 9.36471 39.5471C11.7707 39.3321 14.7824 38.7201 17.9814 37.2013L7.25915 14.6174ZM6.84604 14.653V-10.347H6.50792V14.653V39.653H6.84604V14.653ZM6.50792 14.653L19.7448 -6.55514L19.6566 -6.61014L6.4198 14.598L-6.81704 35.8062L-6.72892 35.8612L6.50792 14.653ZM6.4198 14.598L20.0115 -6.38452C23.448 -4.15845 26.5187 -0.944426 28.6025 3.17915L6.2898 14.4549L-16.0229 25.7306C-13.8803 29.9705 -10.7184 33.2832 -7.17186 35.5806L6.4198 14.598ZM6.2898 14.4549L28.8081 3.59551L28.7656 3.50738L6.24731 14.3668L-16.271 25.2261L-16.2285 25.3143L6.2898 14.4549ZM6.2573 6.52785L25.8557 22.049L25.9175 21.9708L6.31918 6.44973L-13.2792 -9.07137L-13.341 -8.99325L6.2573 6.52785ZM6.31918 6.44973L25.6685 22.2802C23.526 24.899 20.962 26.9308 18.2405 28.3845L6.4623 6.33285L-5.31588 -15.7188C-8.14744 -14.2064 -10.8089 -12.0958 -13.0302 -9.38073L6.31918 6.44973ZM6.4623 6.33285L17.2978 28.8626C17.0235 28.9946 15.6937 29.6415 13.8915 30.1976C12.0135 30.7771 10.3929 31.0314 9.25136 31.1535C8.25926 31.2596 7.49432 31.2774 7.2917 31.2821C7.03699 31.288 6.85967 31.2872 6.91478 31.2872V6.28722V-18.7128C6.80084 -18.7128 6.49266 -18.7128 6.13421 -18.7045C5.82784 -18.6974 4.98626 -18.6755 3.93354 -18.5629C0.345059 -18.1791 -2.46909 -17.1127 -4.3732 -16.197L6.4623 6.33285ZM6.91478 6.28722V31.2872C6.89357 31.2872 6.78978 31.2872 6.64199 31.2848C6.49851 31.2825 6.22722 31.2766 5.8793 31.2588C5.32995 31.2307 3.7212 31.1376 1.69844 30.6719C-0.650347 30.1311 -3.42137 29.1266 -6.20865 27.317C-8.76737 25.6558 -10.4038 23.9059 -10.9853 23.2687L7.48164 6.41722L25.9486 -10.4342C23.6658 -12.9359 19.4278 -16.5542 12.9173 -18.0532C10.8155 -18.5372 9.10944 -18.6413 8.43291 -18.6759C7.69128 -18.7138 7.07446 -18.7128 6.91478 -18.7128V6.28722ZM7.48164 6.41722L-13.2802 20.3437C-12.4904 21.5211 -11.7448 22.6395 -11.0283 23.7349L9.89344 10.0498L30.8152 -3.63529C29.943 -4.96869 29.0737 -6.27157 28.2435 -7.50925L7.48164 6.41722ZM9.89344 10.0498L-10.9761 23.8143C-9.6778 25.7828 -7.89681 28.482 -7.01633 29.8139L13.8383 16.0268L34.693 2.23971C33.8298 0.933997 32.0634 -1.74311 30.763 -3.71467L9.89344 10.0498ZM13.8383 16.0268L-7.0191 29.8097L-5.43352 32.2091L15.4239 18.4262L36.2813 4.64332L34.6957 2.2439L13.8383 16.0268ZM15.4239 18.4262L29.2535 39.2527L29.3316 39.2008L15.502 18.3743L1.67244 -2.45215L1.59431 -2.40027L15.4239 18.4262ZM15.502 18.3743L29.374 39.1726C31.9287 37.4687 34.326 35.3917 36.446 32.9459L17.5551 16.5712L-1.33587 0.196446C-0.412066 -0.869316 0.599009 -1.73626 1.63008 -2.42396L15.502 18.3743ZM17.5551 16.5712L36.3841 33.0171C40.8025 27.9584 43.6736 21.7308 44.6464 15.0769L19.9094 11.4605L-4.82766 7.84397C-4.40861 4.97766 -3.17246 2.29888 -1.2739 0.125226L17.5551 16.5712ZM19.9094 11.4605L44.645 15.0863C44.9501 13.0052 45 11.5733 45 10.0023H20H-5C-5 10.1607 -5.00079 10.1348 -4.99918 10.0402C-4.99715 9.92131 -4.99067 9.63614 -4.96707 9.25597C-4.91324 8.38863 -4.81171 7.73519 -4.82629 7.83461L19.9094 11.4605ZM20 10.0023H45C45 8.42054 44.949 6.99507 44.645 4.92143L19.9094 8.54727L-4.82629 12.1731C-4.80976 12.2859 -4.91235 11.6279 -4.96666 10.7565C-4.99055 10.3732 -4.99711 10.0856 -4.99916 9.96546C-5.0008 9.87003 -5 9.84342 -5 10.0023H20ZM19.9094 8.54727L44.651 4.96237C42.7315 -8.28529 33.398 -19.241 20.7506 -23.3239L13.0702 0.467103L5.38987 24.2581C-0.0128021 22.514 -4.00147 17.8659 -4.83225 12.1322L19.9094 8.54727ZM13.0702 0.467103L20.6125 -23.368C18.3524 -24.0832 16.0145 -24.5753 13.6328 -24.8285L10.9903 0.0314694L8.34781 24.8914C7.37723 24.7883 6.43306 24.5887 5.5279 24.3022L13.0702 0.467103ZM10.9903 0.0314694L13.5349 -24.8387C12.7288 -24.9212 12.0452 -24.9484 12.0113 -24.9499C11.789 -24.9601 11.5886 -24.9668 11.4457 -24.9712C11.15 -24.9803 10.8438 -24.987 10.573 -24.9915C10.3069 -24.9959 9.9834 -24.9998 9.66142 -25C9.50897 -25.0001 9.26899 -24.9995 8.99478 -24.9944C8.85979 -24.992 8.63771 -24.987 8.36917 -24.976C8.20616 -24.9694 7.56733 -24.9439 6.76356 -24.8604L9.34596 0.00584389L11.9284 24.8721C11.4777 24.9189 11.1183 24.9436 10.9222 24.9558C10.7052 24.9693 10.5277 24.9775 10.4091 24.9823C10.1774 24.9918 9.99994 24.9955 9.91621 24.9971C9.74453 25.0002 9.63367 25 9.6282 25C9.60017 25 9.64205 24.9999 9.7431 25.0016C9.78537 25.0023 9.82549 25.0031 9.85926 25.0039C9.89474 25.0047 9.91074 25.0052 9.90691 25.0051C9.90428 25.005 9.88994 25.0046 9.86556 25.0037C9.84297 25.0028 9.79666 25.0011 9.73253 24.9981C9.67563 24.9955 9.55739 24.9899 9.40127 24.9803C9.2974 24.9738 8.92708 24.9509 8.44568 24.9016L10.9903 0.0314694ZM9.34596 0.00584389L31.7092 -11.1694L31.7086 -11.1706L9.34533 0.00459386L-13.0179 11.1798L-13.0173 11.1811L9.34596 0.00584389ZM13.4371 6.05284L2.67669 28.6186C-3.7595 25.5495 -8.1106 20.1002 -10.082 14.1857L13.6352 6.28035L37.3524 -1.62498C35.316 -7.73449 30.8224 -13.3539 24.1975 -16.5129L13.4371 6.05284ZM13.6352 6.28035L-10.1656 13.9302C-10.5905 12.6083 -10.8114 11.5356 -10.9078 11.0378C-11.0213 10.4518 -11.0924 9.97122 -11.1339 9.66693C-11.2156 9.06788 -11.2576 8.59391 -11.2762 8.36888C-11.3154 7.89721 -11.3313 7.5343 -11.3362 7.4198C-11.343 7.26011 -11.3464 7.13968 -11.3479 7.08378C-11.3496 7.02083 -11.3504 6.9777 -11.3507 6.96219C-11.3512 6.93412 -11.3498 7.01314 -11.3486 7.28271C-11.3465 7.78865 -11.3463 8.60771 -11.3479 9.83601L13.6521 9.86792L38.6521 9.89983C38.6536 8.67996 38.6537 7.73148 38.6509 7.0688C38.6496 6.75406 38.6472 6.39851 38.6415 6.07537C38.639 5.93737 38.6332 5.63395 38.618 5.27852C38.6114 5.12449 38.5937 4.73046 38.5527 4.23591C38.533 3.99943 38.4901 3.51609 38.4074 2.90969C38.3798 2.70757 38.1517 0.857246 37.436 -1.36952L13.6352 6.28035ZM13.6521 9.86792L-11.3479 9.81903L-11.3548 13.3341L13.6452 13.383L38.6452 13.4319L38.652 9.91681L13.6521 9.86792ZM13.6452 13.383L34.6003 -0.250935L33.9822 -1.20095L13.0271 12.433L-7.928 26.0669L-7.3099 27.0169L13.6452 13.383ZM13.0271 12.433L33.9485 -1.25256L33.3267 -2.2032L12.4052 11.4823L-8.51619 25.1679L-7.89434 26.1185L13.0271 12.433ZM12.4052 11.4823H37.4052V8.9304H12.4052H-12.5948V11.4823H12.4052ZM12.4052 8.9304H37.4052C37.4052 8.12897 37.4069 7.54177 37.4093 7.17153C37.4098 7.08143 37.4104 7.0117 37.4109 6.96028C37.4114 6.90609 37.4117 6.88658 37.4116 6.89309C37.4116 6.89709 37.4112 6.91773 37.4105 6.9509C37.4099 6.98002 37.4084 7.04715 37.4056 7.13833C37.4036 7.20338 37.3969 7.41288 37.3819 7.68766C37.3747 7.81849 37.3587 8.09492 37.3286 8.44604C37.3133 8.62408 37.2872 8.90734 37.2459 9.25489C37.2247 9.43316 37.1952 9.66496 37.1555 9.93547C37.1171 10.1973 37.0584 10.5684 36.9735 11.0113L12.4209 6.30285L-12.1317 1.59437C-12.3938 2.96102 -12.4794 4.06674 -12.4885 4.17337C-12.5192 4.53077 -12.5357 4.8152 -12.5434 4.95574C-12.5595 5.24992 -12.5672 5.48564 -12.5702 5.58366C-12.5772 5.80734 -12.5805 6.00275 -12.5822 6.10691C-12.5859 6.34264 -12.5882 6.60554 -12.5897 6.85513C-12.593 7.37366 -12.5948 8.07742 -12.5948 8.9304H12.4052ZM12.4209 6.30285L36.4861 13.0753C34.6228 19.6961 30.2581 24.7297 25.1429 27.6913L12.6165 6.05597L0.0900904 -15.5794C-5.21513 -12.5078 -9.72236 -7.29913 -11.6443 -0.469641L12.4209 6.30285ZM12.6165 6.05597L23.9409 28.3441C23.5379 28.5488 22.1149 29.27 20.1688 29.8818C18.165 30.5118 16.4453 30.7714 15.2773 30.8907C14.2692 30.9936 13.4899 31.0069 13.3262 31.01C13.1045 31.0142 12.9423 31.0135 13.0333 31.0135V6.01347V-18.9865C12.9697 -18.9865 12.6877 -18.9869 12.371 -18.9809C12.1122 -18.9759 11.2626 -18.9594 10.1986 -18.8507C6.4818 -18.4713 3.48215 -17.3449 1.29211 -16.2321L12.6165 6.05597ZM13.0333 6.01347V31.0135C13.1092 31.0135 12.9569 31.0141 12.7458 31.0102C12.5839 31.0072 11.888 30.995 10.9847 30.9103C10.0147 30.8193 8.33632 30.6059 6.31963 30.0116C4.13131 29.3666 2.41795 28.5325 1.25989 27.8867L13.4371 6.05284L25.6143 -15.781C22.1317 -17.7233 18.6586 -18.5894 15.654 -18.8712C14.6941 -18.9612 13.9275 -18.9765 13.673 -18.9812C13.3691 -18.9868 13.1021 -18.9865 13.0333 -18.9865V6.01347ZM6.24731 14.3668L31.2473 14.3987L31.2573 6.55974L6.2573 6.52785L-18.7427 6.49596L-18.7527 14.3349L6.24731 14.3668Z" fill="black" mask="url(#path-1-inside-1_155_888)"/>
</svg>
