<svg width="150" height="24" viewBox="0 0 150 24" fill="none" xmlns="http://www.w3.org/2000/svg">
<path d="M19.3252 6C19.3252 6.27385 19.2442 6.54155 19.0925 6.76925C18.9408 6.99695 18.7253 7.17442 18.473 7.27922C18.2208 7.38402 17.9433 7.41144 17.6755 7.35801C17.4077 7.30458 17.1618 7.17271 16.9687 6.97907C16.7757 6.78543 16.6442 6.53871 16.5909 6.27013C16.5377 6.00154 16.565 5.72314 16.6695 5.47013C16.774 5.21713 16.9509 5.00088 17.1779 4.84873C17.4049 4.69659 17.6718 4.61539 17.9448 4.61539C18.3109 4.61539 18.662 4.76126 18.9209 5.02093C19.1797 5.28059 19.3252 5.63278 19.3252 6ZM26.6871 7.38462C26.6872 7.53662 26.6499 7.68631 26.5784 7.82036C26.507 7.95442 26.4037 8.06871 26.2776 8.15308L23.9264 9.72462V12C23.923 15.1816 22.6616 18.2319 20.4187 20.4816C18.1759 22.7313 15.135 23.9966 11.9632 24H1.84049C1.49374 24 1.15405 23.9017 0.860539 23.7166C0.567028 23.5314 0.331642 23.2668 0.181496 22.9533C0.0313497 22.6397 -0.0274486 22.2901 0.0118743 21.9445C0.0511973 21.5989 0.187042 21.2715 0.403759 21L10.1227 9.30346V7.02577C10.1227 3.16962 13.2044 0.0184618 16.9912 3.07013e-07H17.0245C18.4907 -0.000437543 19.9189 0.467468 21.1021 1.3359C22.2854 2.20433 23.1622 3.42816 23.6054 4.83L26.2776 6.61615C26.4037 6.70052 26.507 6.81481 26.5784 6.94887C26.6499 7.08293 26.6872 7.23261 26.6871 7.38462ZM24.1081 7.38462L22.3044 6.17769C22.1163 6.05217 21.9808 5.86161 21.9237 5.64231C21.6411 4.5549 21.0068 3.59228 20.1202 2.90531C19.2336 2.21833 18.1448 1.84582 17.0245 1.84615H16.9992C14.2224 1.86 11.9632 4.18269 11.9632 7.02577V9.63692C11.9636 9.85314 11.8882 10.0626 11.7504 10.2288L1.84049 22.1538H4.93482L13.0951 12.3323C13.1716 12.2365 13.2663 12.1569 13.3738 12.0983C13.4813 12.0396 13.5994 12.0031 13.7211 11.9908C13.8429 11.9784 13.9659 11.9906 14.0829 12.0265C14.1999 12.0625 14.3086 12.1214 14.4026 12.2C14.4966 12.2786 14.574 12.3752 14.6304 12.4841C14.6867 12.5931 14.7208 12.7122 14.7307 12.8345C14.7406 12.9569 14.7261 13.08 14.688 13.1966C14.6499 13.3133 14.589 13.4211 14.5088 13.5138L7.33321 22.1538H11.9632C14.647 22.1508 17.2199 21.08 19.1177 19.1765C21.0154 17.2729 22.0828 14.692 22.0859 12V9.23077C22.0858 9.07876 22.1231 8.92908 22.1946 8.79502C22.266 8.66096 22.3693 8.54667 22.4954 8.46231L24.1081 7.38462Z" fill="white"/>
<path d="M40.3492 22.7821H34.0491L41.1472 1.2179H49.1273L56.2255 22.7821H49.9253L45.2213 7.15648H45.0533L40.3492 22.7821ZM39.1732 14.2743H51.0174V18.6546H39.1732V14.2743Z" fill="white"/>
<path d="M52.6786 22.7821V1.2179H58.5167V9.93624H58.8107L65.2788 1.2179H72.0829L64.8168 10.8207L72.2509 22.7821H65.2788L60.4487 14.6955L58.5167 17.2226V22.7821H52.6786Z" fill="white"/>
<path d="M78.8656 9.80989V14.1901H68.7855V9.80989H78.8656Z" fill="white"/>
<path d="M76.6129 22.7821V1.2179H85.8951C87.4911 1.2179 88.8876 1.50921 90.0846 2.09184C91.2817 2.67447 92.2127 3.51331 92.8777 4.60837C93.5427 5.70342 93.8752 7.01609 93.8752 8.54636C93.8752 10.0907 93.5322 11.3928 92.8462 12.4528C92.1672 13.5127 91.2117 14.313 89.9796 14.8535C88.7546 15.394 87.3231 15.6642 85.6851 15.6642H80.141V11.1155H84.509C85.1951 11.1155 85.7796 11.0313 86.2626 10.8628C86.7526 10.6873 87.1271 10.4101 87.3861 10.031C87.6521 9.65195 87.7851 9.15706 87.7851 8.54636C87.7851 7.92863 87.6521 7.42673 87.3861 7.04066C87.1271 6.64756 86.7526 6.35975 86.2626 6.17724C85.7796 5.98772 85.1951 5.89295 84.509 5.89295H82.451V22.7821H76.6129ZM89.2131 12.8845L94.5892 22.7821H88.2471L82.997 12.8845H89.2131Z" fill="white"/>
<path d="M111.578 12C111.578 14.4007 111.113 16.4259 110.182 18.0755C109.251 19.718 107.994 20.964 106.412 21.8134C104.83 22.6557 103.066 23.0769 101.12 23.0769C99.1599 23.0769 97.3888 22.6522 95.8068 21.8029C94.2318 20.9465 92.9788 19.697 92.0477 18.0544C91.1237 16.4048 90.6617 14.3867 90.6617 12C90.6617 9.5993 91.1237 7.57765 92.0477 5.93507C92.9788 4.28546 94.2318 3.03948 95.8068 2.19713C97.3888 1.34776 99.1599 0.923077 101.12 0.923077C103.066 0.923077 104.83 1.34776 106.412 2.19713C107.994 3.03948 109.251 4.28546 110.182 5.93507C111.113 7.57765 111.578 9.5993 111.578 12ZM105.572 12C105.572 10.7084 105.4 9.62036 105.057 8.73589C104.721 7.8444 104.221 7.17052 103.556 6.71424C102.898 6.25095 102.086 6.0193 101.12 6.0193C100.154 6.0193 99.3384 6.25095 98.6734 6.71424C98.0153 7.17052 97.5148 7.8444 97.1718 8.73589C96.8358 9.62036 96.6678 10.7084 96.6678 12C96.6678 13.2916 96.8358 14.3832 97.1718 15.2746C97.5148 16.1591 98.0153 16.833 98.6734 17.2963C99.3384 17.7526 100.154 17.9807 101.12 17.9807C102.086 17.9807 102.898 17.7526 103.556 17.2963C104.221 16.833 104.721 16.1591 105.057 15.2746C105.4 14.3832 105.572 13.2916 105.572 12Z" fill="white"/>
<path d="M112.89 22.7821H106.59L113.688 1.2179H121.668L128.766 22.7821H122.466L117.762 7.15648H117.594L112.89 22.7821ZM111.714 14.2743H123.558V18.6546H111.714V14.2743Z" fill="white"/>
<path d="M125.22 1.2179H132.486L137.484 13.432H137.736L142.734 1.2179H150V22.7821H144.288V10.3153H144.12L139.332 22.6136H135.888L131.1 10.2311H130.932V22.7821H125.22V1.2179Z" fill="white"/>
</svg>
