<svg width="279" height="22" viewBox="0 0 279 22" fill="none" xmlns="http://www.w3.org/2000/svg">
<path d="M26 21C26 21.2652 25.8946 21.5196 25.7071 21.7071C25.5196 21.8946 25.2652 22 25 22H1C0.734784 22 0.48043 21.8946 0.292893 21.7071C0.105357 21.5196 0 21.2652 0 21V1C0 0.734784 0.105357 0.48043 0.292893 0.292893C0.48043 0.105357 0.734784 0 1 0C1.26522 0 1.51957 0.105357 1.70711 0.292893C1.89464 0.48043 2 0.734784 2 1V14.5863L8.2925 8.2925C8.38537 8.19952 8.49566 8.12576 8.61706 8.07544C8.73846 8.02512 8.86858 7.99921 9 7.99921C9.13142 7.99921 9.26154 8.02512 9.38294 8.07544C9.50434 8.12576 9.61463 8.19952 9.7075 8.2925L13 11.5863L19.5863 5H17C16.7348 5 16.4804 4.89464 16.2929 4.70711C16.1054 4.51957 16 4.26522 16 4C16 3.73478 16.1054 3.48043 16.2929 3.29289C16.4804 3.10536 16.7348 3 17 3H22C22.2652 3 22.5196 3.10536 22.7071 3.29289C22.8946 3.48043 23 3.73478 23 4V9C23 9.26522 22.8946 9.51957 22.7071 9.70711C22.5196 9.89464 22.2652 10 22 10C21.7348 10 21.4804 9.89464 21.2929 9.70711C21.1054 9.51957 21 9.26522 21 9V6.41375L13.7075 13.7075C13.6146 13.8005 13.5043 13.8742 13.3829 13.9246C13.2615 13.9749 13.1314 14.0008 13 14.0008C12.8686 14.0008 12.7385 13.9749 12.6171 13.9246C12.4957 13.8742 12.3854 13.8005 12.2925 13.7075L9 10.4137L2 17.4137V20H25C25.2652 20 25.5196 20.1054 25.7071 20.2929C25.8946 20.4804 26 20.7348 26 21Z" fill="#F7F7F7"/>
<path d="M34.8438 17.5V4.40909H40.4943C41.4659 4.40909 42.3161 4.58594 43.0447 4.93963C43.7734 5.29332 44.3402 5.80256 44.745 6.46733C45.1499 7.1321 45.3523 7.92898 45.3523 8.85795C45.3523 9.79545 45.1435 10.5859 44.7259 11.2294C44.3125 11.8729 43.7308 12.3587 42.9808 12.6868C42.2351 13.0149 41.3636 13.179 40.3665 13.179H36.9915V10.4176H39.6506C40.0682 10.4176 40.424 10.3665 40.718 10.2642C41.0163 10.1577 41.2443 9.98935 41.402 9.75923C41.5639 9.52912 41.6449 9.22869 41.6449 8.85795C41.6449 8.48295 41.5639 8.17827 41.402 7.94389C41.2443 7.70526 41.0163 7.53054 40.718 7.41974C40.424 7.30469 40.0682 7.24716 39.6506 7.24716H38.3977V17.5H34.8438ZM42.5142 11.4915L45.7869 17.5H41.9261L38.7301 11.4915H42.5142ZM50.1911 17.5L46.3303 4.40909H50.2933L52.0831 12.4631H52.1854L54.3075 4.40909H57.4268L59.549 12.4886H59.6513L61.4411 4.40909H65.4041L61.5433 17.5H58.1428L55.9183 10.1875H55.8161L53.5916 17.5H50.1911ZM68.426 17.5H64.5907L68.9118 4.40909H73.7697L78.0907 17.5H74.2555L71.3919 8.0142H71.2896L68.426 17.5ZM67.71 12.3352H74.9203V14.9943H67.71V12.3352ZM90.6783 4.40909V17.5H87.7124L82.9822 10.6222H82.9055V17.5H79.3516V4.40909H82.3686L87.022 11.2614H87.1243V4.40909H90.6783ZM97.3963 17.5H92.3594V4.40909H97.3452C98.6918 4.40909 99.8551 4.67116 100.835 5.19531C101.82 5.7152 102.578 6.4652 103.111 7.44531C103.648 8.42116 103.916 9.59091 103.916 10.9545C103.916 12.3182 103.65 13.4901 103.117 14.4702C102.585 15.446 101.83 16.196 100.854 16.7202C99.8786 17.2401 98.7259 17.5 97.3963 17.5ZM95.9134 14.483H97.2685C97.9162 14.483 98.468 14.3786 98.924 14.1697C99.3842 13.9609 99.7337 13.6009 99.9723 13.0895C100.215 12.5781 100.337 11.8665 100.337 10.9545C100.337 10.0426 100.213 9.33097 99.9659 8.8196C99.723 8.30824 99.3651 7.94815 98.892 7.73935C98.4233 7.53054 97.848 7.42614 97.1662 7.42614H95.9134V14.483ZM108.135 17.5H104.3L108.621 4.40909H113.479L117.8 17.5H113.964L111.101 8.0142H110.999L108.135 17.5ZM107.419 12.3352H114.629V14.9943H107.419V12.3352ZM125.555 9.625V12.2841H119.419V9.625H125.555ZM132.64 17.5H127.604V4.40909H132.589C133.936 4.40909 135.099 4.67116 136.079 5.19531C137.064 5.7152 137.822 6.4652 138.355 7.44531C138.892 8.42116 139.16 9.59091 139.16 10.9545C139.16 12.3182 138.894 13.4901 138.361 14.4702C137.829 15.446 137.074 16.196 136.099 16.7202C135.123 17.2401 133.97 17.5 132.64 17.5ZM131.157 14.483H132.513C133.16 14.483 133.712 14.3786 134.168 14.1697C134.628 13.9609 134.978 13.6009 135.216 13.0895C135.459 12.5781 135.581 11.8665 135.581 10.9545C135.581 10.0426 135.457 9.33097 135.21 8.8196C134.967 8.30824 134.609 7.94815 134.136 7.73935C133.667 7.53054 133.092 7.42614 132.41 7.42614H131.157V14.483ZM140.805 17.5V4.40909H150.239V7.27273H144.359V9.52273H149.754V12.3864H144.359V14.6364H150.214V17.5H140.805ZM152.002 4.40909H156.425L159.468 11.8239H159.621L162.664 4.40909H167.087V17.5H163.61V9.93182H163.508L160.593 17.3977H158.496L155.581 9.88068H155.479V17.5H152.002V4.40909ZM181.453 10.9545C181.453 12.4119 181.17 13.6413 180.603 14.6428C180.036 15.6399 179.271 16.3963 178.308 16.9119C177.345 17.4233 176.271 17.679 175.087 17.679C173.894 17.679 172.816 17.4212 171.852 16.9055C170.894 16.3857 170.131 15.6271 169.564 14.63C169.002 13.6286 168.72 12.4034 168.72 10.9545C168.72 9.49716 169.002 8.26989 169.564 7.27273C170.131 6.27131 170.894 5.51491 171.852 5.00355C172.816 4.48793 173.894 4.23011 175.087 4.23011C176.271 4.23011 177.345 4.48793 178.308 5.00355C179.271 5.51491 180.036 6.27131 180.603 7.27273C181.17 8.26989 181.453 9.49716 181.453 10.9545ZM177.797 10.9545C177.797 10.1705 177.693 9.50994 177.484 8.97301C177.279 8.43182 176.975 8.02273 176.57 7.74574C176.169 7.46449 175.675 7.32386 175.087 7.32386C174.499 7.32386 174.002 7.46449 173.597 7.74574C173.197 8.02273 172.892 8.43182 172.683 8.97301C172.479 9.50994 172.377 10.1705 172.377 10.9545C172.377 11.7386 172.479 12.4013 172.683 12.9425C172.892 13.4794 173.197 13.8885 173.597 14.1697C174.002 14.4467 174.499 14.5852 175.087 14.5852C175.675 14.5852 176.169 14.4467 176.57 14.1697C176.975 13.8885 177.279 13.4794 177.484 12.9425C177.693 12.4013 177.797 11.7386 177.797 10.9545ZM191.599 8.73011C191.544 8.50426 191.456 8.30611 191.337 8.13565C191.218 7.96094 191.069 7.81392 190.89 7.6946C190.715 7.57102 190.51 7.4794 190.276 7.41974C190.046 7.35582 189.792 7.32386 189.515 7.32386C188.919 7.32386 188.409 7.46662 187.988 7.75213C187.57 8.03764 187.25 8.44886 187.029 8.9858C186.811 9.52273 186.703 10.1705 186.703 10.929C186.703 11.696 186.807 12.3523 187.016 12.8977C187.225 13.4432 187.536 13.8608 187.949 14.1506C188.363 14.4403 188.876 14.5852 189.49 14.5852C190.031 14.5852 190.48 14.5064 190.838 14.3487C191.201 14.1911 191.471 13.9673 191.65 13.6776C191.829 13.3878 191.919 13.0469 191.919 12.6548L192.532 12.7188H189.541V10.1875H195.345V12.0028C195.345 13.196 195.091 14.2166 194.584 15.0646C194.081 15.9084 193.387 16.5561 192.5 17.0078C191.618 17.4553 190.606 17.679 189.464 17.679C188.19 17.679 187.071 17.4084 186.108 16.8672C185.145 16.326 184.393 15.5547 183.852 14.5533C183.315 13.5518 183.047 12.3608 183.047 10.9801C183.047 9.89773 183.211 8.93892 183.539 8.10369C183.871 7.26847 184.331 6.56321 184.919 5.98793C185.507 5.40838 186.187 4.97159 186.958 4.67756C187.73 4.37926 188.556 4.23011 189.439 4.23011C190.214 4.23011 190.934 4.34091 191.599 4.5625C192.268 4.77983 192.858 5.09091 193.37 5.49574C193.885 5.89631 194.301 6.37145 194.616 6.92116C194.931 7.47088 195.123 8.07386 195.191 8.73011H191.599ZM197.002 17.5V4.40909H202.653C203.624 4.40909 204.474 4.58594 205.203 4.93963C205.932 5.29332 206.498 5.80256 206.903 6.46733C207.308 7.1321 207.51 7.92898 207.51 8.85795C207.51 9.79545 207.302 10.5859 206.884 11.2294C206.471 11.8729 205.889 12.3587 205.139 12.6868C204.393 13.0149 203.522 13.179 202.525 13.179H199.15V10.4176H201.809C202.226 10.4176 202.582 10.3665 202.876 10.2642C203.175 10.1577 203.403 9.98935 203.56 9.75923C203.722 9.52912 203.803 9.22869 203.803 8.85795C203.803 8.48295 203.722 8.17827 203.56 7.94389C203.403 7.70526 203.175 7.53054 202.876 7.41974C202.582 7.30469 202.226 7.24716 201.809 7.24716H200.556V17.5H197.002ZM204.672 11.4915L207.945 17.5H204.084L200.888 11.4915H204.672ZM212.426 17.5H208.591L212.912 4.40909H217.77L222.091 17.5H218.256L215.392 8.0142H215.29L212.426 17.5ZM211.71 12.3352H218.92V14.9943H211.71V12.3352ZM223.352 17.5V4.40909H229.002C229.974 4.40909 230.824 4.60085 231.553 4.98438C232.281 5.3679 232.848 5.90696 233.253 6.60156C233.658 7.29616 233.86 8.10795 233.86 9.03693C233.86 9.97443 233.651 10.7862 233.234 11.4723C232.82 12.1584 232.239 12.6868 231.489 13.0575C230.743 13.4283 229.871 13.6136 228.874 13.6136H225.499V10.8523H228.158C228.576 10.8523 228.932 10.7798 229.226 10.6349C229.524 10.4858 229.752 10.2749 229.91 10.0021C230.072 9.7294 230.153 9.40767 230.153 9.03693C230.153 8.66193 230.072 8.34233 229.91 8.07812C229.752 7.80966 229.524 7.60511 229.226 7.46449C228.932 7.3196 228.576 7.24716 228.158 7.24716H226.906V17.5H223.352ZM235.164 17.5V4.40909H238.718V9.52273H243.423V4.40909H246.977V17.5H243.423V12.3864H238.718V17.5H235.164ZM252.218 4.40909V17.5H248.664V4.40909H252.218ZM266.124 9.31818H262.519C262.493 9.01989 262.425 8.74929 262.314 8.50639C262.208 8.26349 262.059 8.05469 261.867 7.87997C261.679 7.70099 261.451 7.56463 261.183 7.47088C260.914 7.37287 260.61 7.32386 260.269 7.32386C259.672 7.32386 259.167 7.46875 258.754 7.75852C258.345 8.04829 258.034 8.46378 257.821 9.00497C257.612 9.54616 257.507 10.196 257.507 10.9545C257.507 11.7557 257.614 12.4268 257.827 12.968C258.044 13.505 258.358 13.9098 258.767 14.1825C259.176 14.451 259.668 14.5852 260.243 14.5852C260.571 14.5852 260.865 14.5447 261.125 14.4638C261.385 14.3786 261.611 14.2571 261.803 14.0994C261.995 13.9418 262.15 13.7521 262.27 13.5305C262.393 13.3047 262.476 13.0511 262.519 12.7699L266.124 12.7955C266.081 13.3494 265.926 13.9141 265.657 14.4893C265.389 15.0604 265.007 15.5888 264.513 16.0746C264.023 16.5561 263.416 16.9439 262.691 17.2379C261.967 17.532 261.125 17.679 260.167 17.679C258.965 17.679 257.887 17.4212 256.932 16.9055C255.982 16.3899 255.23 15.6314 254.676 14.63C254.126 13.6286 253.851 12.4034 253.851 10.9545C253.851 9.49716 254.132 8.26989 254.695 7.27273C255.257 6.27131 256.016 5.51491 256.971 5.00355C257.925 4.48793 258.99 4.23011 260.167 4.23011C260.993 4.23011 261.754 4.34304 262.449 4.56889C263.143 4.79474 263.752 5.125 264.277 5.55966C264.801 5.99006 265.223 6.5206 265.542 7.15128C265.862 7.78196 266.056 8.50426 266.124 9.31818ZM274.793 8.5C274.759 8.07386 274.599 7.74148 274.314 7.50284C274.032 7.2642 273.604 7.14489 273.029 7.14489C272.662 7.14489 272.362 7.18963 272.128 7.27912C271.898 7.36435 271.727 7.48153 271.616 7.63068C271.506 7.77983 271.448 7.95028 271.444 8.14205C271.435 8.29972 271.463 8.44247 271.527 8.57031C271.595 8.69389 271.702 8.80682 271.846 8.90909C271.991 9.0071 272.177 9.09659 272.403 9.17756C272.628 9.25852 272.897 9.33097 273.208 9.39489L274.282 9.625C275.006 9.77841 275.626 9.98082 276.142 10.2322C276.657 10.4837 277.079 10.7798 277.407 11.1207C277.736 11.4574 277.976 11.8366 278.13 12.2585C278.287 12.6804 278.368 13.1406 278.373 13.6392C278.368 14.5 278.153 15.2287 277.727 15.8253C277.301 16.4219 276.692 16.8757 275.899 17.1868C275.111 17.4979 274.162 17.6534 273.055 17.6534C271.917 17.6534 270.924 17.4851 270.076 17.1484C269.232 16.8118 268.576 16.294 268.107 15.5952C267.643 14.892 267.408 13.9929 267.404 12.8977H270.779C270.8 13.2983 270.9 13.6349 271.079 13.9077C271.258 14.1804 271.51 14.3871 271.834 14.5277C272.162 14.6683 272.552 14.7386 273.003 14.7386C273.383 14.7386 273.7 14.6918 273.956 14.598C274.211 14.5043 274.405 14.3743 274.537 14.2081C274.67 14.0419 274.738 13.8523 274.742 13.6392C274.738 13.4389 274.672 13.2642 274.544 13.1151C274.42 12.9616 274.216 12.8253 273.93 12.706C273.645 12.5824 273.259 12.4673 272.773 12.3608L271.469 12.0795C270.31 11.8281 269.396 11.4084 268.727 10.8203C268.062 10.228 267.732 9.42045 267.736 8.39773C267.732 7.56676 267.954 6.8402 268.401 6.21804C268.853 5.59162 269.477 5.10369 270.274 4.75426C271.075 4.40483 271.993 4.23011 273.029 4.23011C274.086 4.23011 275 4.40696 275.771 4.76065C276.542 5.11435 277.137 5.61293 277.555 6.25639C277.976 6.8956 278.189 7.64347 278.194 8.5H274.793Z" fill="white"/>
</svg>
