<svg width="136" height="40" viewBox="0 0 136 40" fill="none" xmlns="http://www.w3.org/2000/svg">
<rect x="0.5" y="0.5" width="135" height="39" rx="7.5" stroke="black"/>
<path d="M28.9984 19.1673L28.9851 13.857L18.9509 8V32L22.9604 29.6217V22.8693L25.988 24.657L25.97 20.0388L22.9604 18.2831V15.6023L29 19.1665L28.9984 19.1673ZM8.01489 13.8562L18.0491 8V32L14.0396 29.6217V15.6023L8 19.1665L8.01489 13.8562Z" fill="black"/>
<path d="M37.7486 15.2422V13.6364H47.3171V15.2422H43.4595V26H41.6001V15.2422H37.7486ZM51.9384 26.1871C51.0248 26.1871 50.238 25.992 49.5779 25.6016C48.9219 25.2071 48.4148 24.6538 48.0566 23.9414C47.7025 23.225 47.5254 22.3859 47.5254 21.424C47.5254 20.4742 47.7025 19.6371 48.0566 18.9126C48.4148 18.1882 48.9139 17.6228 49.5538 17.2163C50.1977 16.8098 50.9503 16.6065 51.8116 16.6065C52.3348 16.6065 52.8419 16.6931 53.3329 16.8661C53.8239 17.0392 54.2646 17.3108 54.655 17.6811C55.0454 18.0514 55.3533 18.5323 55.5787 19.1239C55.804 19.7115 55.9167 20.4259 55.9167 21.267V21.907H48.5456V20.5547H54.1479C54.1479 20.0798 54.0513 19.6592 53.8581 19.293C53.665 18.9227 53.3933 18.6309 53.0431 18.4176C52.697 18.2043 52.2905 18.0977 51.8237 18.0977C51.3166 18.0977 50.8739 18.2224 50.4956 18.4719C50.1213 18.7174 49.8315 19.0394 49.6262 19.4379C49.425 19.8323 49.3244 20.2609 49.3244 20.7237V21.7802C49.3244 22.4 49.4331 22.9272 49.6504 23.3619C49.8717 23.7965 50.1796 24.1286 50.574 24.358C50.9685 24.5833 51.4293 24.696 51.9565 24.696C52.2986 24.696 52.6105 24.6477 52.8922 24.5511C53.1739 24.4505 53.4174 24.3016 53.6227 24.1044C53.8279 23.9072 53.9849 23.6637 54.0936 23.3739L55.802 23.6818C55.6652 24.1849 55.4197 24.6256 55.0655 25.0039C54.7154 25.3782 54.2747 25.67 53.7434 25.8793C53.2162 26.0845 52.6145 26.1871 51.9384 26.1871ZM59.7245 20.4943V26H57.9195V16.7273H59.6521V18.2365H59.7668C59.9801 17.7455 60.3141 17.3511 60.7689 17.0533C61.2277 16.7554 61.8052 16.6065 62.5015 16.6065C63.1334 16.6065 63.6868 16.7393 64.1617 17.005C64.6366 17.2666 65.0048 17.657 65.2664 18.1761C65.528 18.6953 65.6588 19.3372 65.6588 20.1019V26H63.8538V20.3192C63.8538 19.6471 63.6787 19.1219 63.3286 18.7436C62.9784 18.3613 62.4975 18.1701 61.8857 18.1701C61.4672 18.1701 61.0949 18.2607 60.7689 18.4418C60.4469 18.6229 60.1914 18.8885 60.0022 19.2386C59.8171 19.5848 59.7245 20.0033 59.7245 20.4943ZM75.0281 18.9911L73.3921 19.2809C73.3237 19.0716 73.2151 18.8724 73.0661 18.6832C72.9213 18.4941 72.724 18.3391 72.4745 18.2184C72.225 18.0977 71.9131 18.0373 71.5388 18.0373C71.0277 18.0373 70.6011 18.152 70.259 18.3814C69.9169 18.6068 69.7458 18.8986 69.7458 19.2567C69.7458 19.5666 69.8605 19.8162 70.0899 20.0053C70.3193 20.1945 70.6896 20.3494 71.2007 20.4702L72.6737 20.8082C73.527 21.0054 74.1628 21.3093 74.5814 21.7198C75 22.1303 75.2093 22.6636 75.2093 23.3196C75.2093 23.875 75.0483 24.37 74.7263 24.8047C74.4084 25.2353 73.9636 25.5734 73.3921 25.8189C72.8247 26.0644 72.1666 26.1871 71.4181 26.1871C70.3797 26.1871 69.5325 25.9658 68.8765 25.5231C68.2205 25.0763 67.818 24.4425 67.6691 23.6214L69.4138 23.3558C69.5225 23.8106 69.7458 24.1547 70.0839 24.3881C70.422 24.6175 70.8627 24.7322 71.406 24.7322C71.9976 24.7322 72.4705 24.6095 72.8247 24.364C73.1788 24.1145 73.3559 23.8106 73.3559 23.4524C73.3559 23.1626 73.2472 22.9192 73.0299 22.7219C72.8166 22.5247 72.4886 22.3758 72.0459 22.2752L70.4763 21.9311C69.611 21.7339 68.9711 21.42 68.5566 20.9893C68.146 20.5587 67.9408 20.0134 67.9408 19.3533C67.9408 18.806 68.0937 18.3271 68.3996 17.9165C68.7055 17.506 69.128 17.1861 69.6673 16.9567C70.2066 16.7232 70.8244 16.6065 71.5207 16.6065C72.5228 16.6065 73.3116 16.8239 73.8872 17.2585C74.4627 17.6892 74.843 18.2667 75.0281 18.9911ZM81.0998 26.1871C80.2305 26.1871 79.4718 25.9879 78.8239 25.5895C78.1759 25.1911 77.6728 24.6336 77.3146 23.9173C76.9564 23.2009 76.7773 22.3638 76.7773 21.4059C76.7773 20.444 76.9564 19.6029 77.3146 18.8825C77.6728 18.162 78.1759 17.6026 78.8239 17.2042C79.4718 16.8058 80.2305 16.6065 81.0998 16.6065C81.9691 16.6065 82.7277 16.8058 83.3757 17.2042C84.0237 17.6026 84.5268 18.162 84.8849 18.8825C85.2431 19.6029 85.4222 20.444 85.4222 21.4059C85.4222 22.3638 85.2431 23.2009 84.8849 23.9173C84.5268 24.6336 84.0237 25.1911 83.3757 25.5895C82.7277 25.9879 81.9691 26.1871 81.0998 26.1871ZM81.1058 24.6719C81.6693 24.6719 82.1361 24.523 82.5064 24.2251C82.8767 23.9273 83.1503 23.5309 83.3274 23.0359C83.5085 22.5408 83.5991 21.9955 83.5991 21.3999C83.5991 20.8082 83.5085 20.2649 83.3274 19.7699C83.1503 19.2708 82.8767 18.8704 82.5064 18.5685C82.1361 18.2667 81.6693 18.1158 81.1058 18.1158C80.5384 18.1158 80.0675 18.2667 79.6932 18.5685C79.3229 18.8704 79.0472 19.2708 78.8661 19.7699C78.689 20.2649 78.6005 20.8082 78.6005 21.3999C78.6005 21.9955 78.689 22.5408 78.8661 23.0359C79.0472 23.5309 79.3229 23.9273 79.6932 24.2251C80.0675 24.523 80.5384 24.6719 81.1058 24.6719ZM87.4371 26V16.7273H89.1817V18.2003H89.2783C89.4474 17.7012 89.7452 17.3088 90.1718 17.0231C90.6024 16.7333 91.0894 16.5884 91.6327 16.5884C91.7454 16.5884 91.8782 16.5924 92.0312 16.6005C92.1881 16.6085 92.3109 16.6186 92.3994 16.6307V18.3572C92.327 18.3371 92.1982 18.315 92.0131 18.2908C91.8279 18.2627 91.6428 18.2486 91.4577 18.2486C91.031 18.2486 90.6507 18.3391 90.3167 18.5202C89.9867 18.6973 89.7251 18.9448 89.5319 19.2628C89.3387 19.5767 89.2421 19.9349 89.2421 20.3374V26H87.4371ZM98.9223 16.7273V18.1761H93.6823V16.7273H98.9223ZM95.1191 26V15.6527C95.1191 15.0732 95.2458 14.5922 95.4994 14.2099C95.7529 13.8235 96.089 13.5357 96.5075 13.3466C96.9261 13.1534 97.3809 13.0568 97.8719 13.0568C98.2341 13.0568 98.544 13.087 98.8016 13.1474C99.0592 13.2037 99.2503 13.256 99.3751 13.3043L98.9525 14.7653C98.868 14.7411 98.7593 14.7129 98.6265 14.6808C98.4937 14.6445 98.3327 14.6264 98.1436 14.6264C97.7049 14.6264 97.391 14.7351 97.2018 14.9524C97.0167 15.1697 96.9241 15.4837 96.9241 15.8942V26H95.1191ZM102.59 13.6364V26H100.785V13.6364H102.59ZM108.924 26.1871C108.055 26.1871 107.296 25.9879 106.648 25.5895C106 25.1911 105.497 24.6336 105.139 23.9173C104.781 23.2009 104.602 22.3638 104.602 21.4059C104.602 20.444 104.781 19.6029 105.139 18.8825C105.497 18.162 106 17.6026 106.648 17.2042C107.296 16.8058 108.055 16.6065 108.924 16.6065C109.793 16.6065 110.552 16.8058 111.2 17.2042C111.848 17.6026 112.351 18.162 112.709 18.8825C113.067 19.6029 113.246 20.444 113.246 21.4059C113.246 22.3638 113.067 23.2009 112.709 23.9173C112.351 24.6336 111.848 25.1911 111.2 25.5895C110.552 25.9879 109.793 26.1871 108.924 26.1871ZM108.93 24.6719C109.493 24.6719 109.96 24.523 110.331 24.2251C110.701 23.9273 110.975 23.5309 111.152 23.0359C111.333 22.5408 111.423 21.9955 111.423 21.3999C111.423 20.8082 111.333 20.2649 111.152 19.7699C110.975 19.2708 110.701 18.8704 110.331 18.5685C109.96 18.2667 109.493 18.1158 108.93 18.1158C108.363 18.1158 107.892 18.2667 107.517 18.5685C107.147 18.8704 106.871 19.2708 106.69 19.7699C106.513 20.2649 106.425 20.8082 106.425 21.3999C106.425 21.9955 106.513 22.5408 106.69 23.0359C106.871 23.5309 107.147 23.9273 107.517 24.2251C107.892 24.523 108.363 24.6719 108.93 24.6719ZM116.989 26L114.261 16.7273H116.126L117.943 23.5369H118.034L119.857 16.7273H121.722L123.533 23.5067H123.624L125.429 16.7273H127.294L124.572 26H122.73L120.847 19.305H120.708L118.825 26H116.989Z" fill="black"/>
</svg>
