<svg width="122" height="28" viewBox="0 0 122 28" fill="none" xmlns="http://www.w3.org/2000/svg">
<path d="M22.3464 2.90527L6.06519 0.0302744C5.54289 -0.0616372 5.00547 0.0576552 4.57111 0.361918C4.13675 0.666182 3.84101 1.1305 3.74894 1.65277L0.0301911 22.7778C-0.0152928 23.0366 -0.0093342 23.3018 0.0477263 23.5583C0.104787 23.8148 0.21183 24.0575 0.362741 24.2726C0.513651 24.4877 0.705469 24.671 0.927234 24.8119C1.149 24.9529 1.39636 25.0487 1.65519 25.094L17.9364 27.969C18.1953 28.0147 18.4607 28.0089 18.7173 27.9519C18.974 27.8949 19.2168 27.7879 19.4321 27.637C19.6473 27.4861 19.8307 27.2942 19.9717 27.0723C20.1127 26.8505 20.2086 26.603 20.2539 26.344L23.9727 5.21902C24.0638 4.69656 23.9436 4.15929 23.6387 3.7254C23.3337 3.2915 22.8689 2.9965 22.3464 2.90527ZM18.2814 25.999L1.99894 23.124L5.71769 1.99902L21.9989 4.87402L18.2814 25.999ZM7.16644 5.30152C7.21276 5.04049 7.36084 4.80853 7.57813 4.65664C7.79542 4.50475 8.06413 4.44536 8.32519 4.49152L18.7002 6.32277C18.9468 6.36597 19.1682 6.50007 19.3207 6.69859C19.4732 6.89711 19.5457 7.1456 19.5238 7.39497C19.502 7.64435 19.3874 7.87647 19.2028 8.04547C19.0181 8.21448 18.7768 8.30807 18.5264 8.30777C18.4678 8.30769 18.4093 8.30268 18.3514 8.29277L7.97644 6.46027C7.71541 6.41395 7.48345 6.26587 7.33156 6.04858C7.17967 5.8313 7.12028 5.56259 7.16644 5.30152ZM6.47394 9.24152C6.49673 9.11216 6.54479 8.98855 6.61536 8.87777C6.68594 8.76698 6.77765 8.67118 6.88525 8.59584C6.99286 8.52051 7.11425 8.46711 7.2425 8.4387C7.37075 8.41029 7.50334 8.40743 7.63269 8.43027L18.0077 10.2628C18.256 10.3043 18.4795 10.438 18.6336 10.6371C18.7877 10.8362 18.861 11.0861 18.8389 11.3368C18.8168 11.5876 18.7009 11.8208 18.5144 11.9899C18.3279 12.159 18.0844 12.2516 17.8327 12.249C17.7736 12.2491 17.7146 12.2437 17.6564 12.2328L7.28144 10.4015C7.02061 10.3546 6.78905 10.2061 6.63765 9.98862C6.48624 9.77112 6.42736 9.50241 6.47394 9.24152ZM5.78019 13.1803C5.82738 12.9199 5.97583 12.6889 6.19301 12.5378C6.4102 12.3867 6.67843 12.3278 6.93894 12.374L12.1239 13.2853C12.3704 13.3285 12.5917 13.4625 12.7442 13.6608C12.8967 13.8592 12.9693 14.1076 12.9476 14.3569C12.926 14.6061 12.8116 14.8382 12.6272 15.0073C12.4428 15.1764 12.2017 15.2703 11.9514 15.2703C11.8928 15.2702 11.8342 15.2652 11.7764 15.2553L6.58894 14.339C6.32814 14.2924 6.09649 14.1442 5.94485 13.927C5.79322 13.7097 5.734 13.4412 5.78019 13.1803Z" fill="white"/>
<path d="M35.4222 7.40881L38.1069 16.6389H38.2091L40.8938 7.40881H44.908L40.587 20.4997H35.729L31.408 7.40881H35.4222Z" fill="white"/>
<path d="M49.7228 7.40881V20.4997H46.1688V7.40881H49.7228Z" fill="white"/>
<path d="M51.0491 10.2724V7.40881H62.427V10.2724H58.4895V20.4997H54.9866V10.2724H51.0491Z" fill="white"/>
<path d="M63.7645 20.4997V7.40881H73.1992V10.2724H67.3185V12.5224H72.7134V15.3861H67.3185V17.6361H73.1736V20.4997H63.7645Z" fill="white"/>
<path d="M74.9618 20.4997V7.40881H84.3965V10.2724H78.5158V12.5224H83.9107V15.3861H78.5158V17.6361H84.3709V20.4997H74.9618Z" fill="white"/>
<path d="M92.6534 12.6247V15.2838H86.517V12.6247H92.6534Z" fill="white"/>
<path d="M106.924 12.3179H103.319C103.293 12.0196 103.225 11.749 103.114 11.5061C103.007 11.2632 102.858 11.0544 102.667 10.8797C102.479 10.7007 102.251 10.5643 101.983 10.4706C101.714 10.3726 101.409 10.3236 101.069 10.3236C100.472 10.3236 99.9669 10.4685 99.5536 10.7582C99.1445 11.048 98.8334 11.4635 98.6204 12.0047C98.4115 12.5459 98.3071 13.1957 98.3071 13.9543C98.3071 14.7554 98.4137 15.4266 98.6267 15.9678C98.8441 16.5047 99.1573 16.9095 99.5664 17.1822C99.9755 17.4507 100.468 17.5849 101.043 17.5849C101.371 17.5849 101.665 17.5445 101.925 17.4635C102.185 17.3783 102.411 17.2568 102.603 17.0991C102.794 16.9415 102.95 16.7518 103.069 16.5303C103.193 16.3044 103.276 16.0509 103.319 15.7696L106.924 15.7952C106.881 16.3491 106.725 16.9138 106.457 17.4891C106.189 18.0601 105.807 18.5885 105.313 19.0743C104.823 19.5558 104.216 19.9436 103.491 20.2376C102.767 20.5317 101.925 20.6787 100.966 20.6787C99.7645 20.6787 98.6864 20.4209 97.7319 19.9053C96.7816 19.3896 96.0294 18.6311 95.4755 17.6297C94.9257 16.6283 94.6509 15.4031 94.6509 13.9543C94.6509 12.4969 94.9321 11.2696 95.4946 10.2724C96.0571 9.27102 96.8157 8.51463 97.7702 8.00327C98.7248 7.48764 99.7901 7.22983 100.966 7.22983C101.793 7.22983 102.554 7.34275 103.248 7.56861C103.943 7.79446 104.552 8.12471 105.076 8.55937C105.6 8.98977 106.022 9.52031 106.342 10.151C106.662 10.7817 106.855 11.504 106.924 12.3179Z" fill="white"/>
<path d="M112.116 7.40881L114.8 16.6389H114.902L117.587 7.40881H121.601L117.28 20.4997H112.422L108.101 7.40881H112.116Z" fill="white"/>
</svg>
